<svg id="Layer_1" data-name="Layer 1" xmlns="http://www.w3.org/2000/svg" width="903.94" height="868.4" viewBox="0 0 903.94 868.4"><defs><style>.cls-1{fill:#2d3562;fill-rule:evenodd;}.cls-2{opacity:0.74;}.cls-3,.cls-4,.cls-5,.cls-6,.cls-7{fill:none;stroke:#fff;}.cls-3,.cls-5,.cls-7{stroke-miterlimit:10;}.cls-3{stroke-width:0.5px;}.cls-4,.cls-6{stroke-linecap:round;stroke-linejoin:round;}.cls-4,.cls-5{stroke-width:3px;}.cls-6,.cls-7{stroke-width:4px;}</style></defs><title>cc_logo_rund</title><path class="cls-1" d="M418.31,86.07c206.56-3.54,385.79,76.7,447.83,218.26,16.35,37.31,25.46,78.69,33.92,124.4,10.46,56.47,5.94,132.62-4.52,184.33-15,74-28.21,140.28-62.2,194.51C791.07,875,702.11,921,615.08,943.28c-72.64,18.57-179.59,12.09-248.79-6.79C160.05,880.22-81.49,677.78,30.42,389.15,79.48,262.64,156.7,161.62,282.61,112.08c28.17-11.08,59.94-16.57,92.73-22.61Z" transform="translate(-2.06 -85.96)"/><g class="cls-2"><polygon class="cls-3" points="401.81 752.55 292.06 687.17 292.06 730.37 332.93 755.47 332.93 798.09 401.81 837.2 401.81 752.55"/><polygon class="cls-3" points="449.68 725.7 401.81 752.55 401.81 837.2 449.68 810.35 449.68 725.7"/><polyline class="cls-3" points="207.37 274.6 242.07 253.43 212.63 236.35 176.88 256.85 207.37 274.6 370.93 369.81 365.58 372.75 257.75 310.67 189.39 349.4 187.6 348.15 255.43 309.06 172.79 261.23 109.76 297.1 110.22 338.15 189.17 384.23 189.32 388.67 109.76 342.54 109.76 380.77 302.63 491.82 302.63 456.49 274.7 440.02 274.7 435.71 303.06 452.36 303.06 409.24 373.35 368.86 398.69 383.93 398.69 396.76 486.25 447.12 598.18 381.69 668.74 423.38 631.54 445.19 695.5 481.76 695.5 603.71 868.02 505.02 868.02 462.28 701.94 365.72"/><polygon class="cls-3" points="389.79 596.05 326.36 559.51 316.71 565.36 330.16 573.4 312.33 583.19 309.7 581.14 323.58 573.25 313.5 567.11 286.31 582.9 296.83 589.48 300.49 587.28 302.97 588.89 299.32 591.08 321.39 603.71 349.31 587.72 338.05 581 340.39 579.68 354.86 587.72 324.75 605.55 350.04 620.46 377.22 604.38 363.49 596.05 365.97 594.59 379.71 602.63 389.79 596.05"/><polygon class="cls-3" points="328.59 574.26 339.01 580.46 340.39 579.68 330.16 573.4 328.59 574.26"/><polygon class="cls-3" points="353.3 588.65 364.45 595.49 365.61 594.8 354.4 588 353.3 588.65"/><polygon class="cls-3" points="328.59 574.26 328.59 599.58 338.05 594.17 338.05 581 339.01 580.46 328.59 574.26"/><polygon class="cls-3" points="353.96 589.06 353.96 618.14 363.58 612.46 363.49 596.05 364.45 595.49 353.96 589.06"/><polyline class="cls-3" points="276.46 583.96 276.46 710.43 292.06 719.12 292.06 687.17 362.49 647.79 355.46 643.29 351.53 636.26 350.97 627.26 276.46 583.96 328.19 554.72 395.95 595.49 434.47 571.59 233.51 455.35 109.76 383.77 109.76 418.63 405.17 589.77 400.17 592.68 104.94 422.01 104.94 294.64 244.4 213.38 334.1 265.96 334.1 309.82 301.11 329.17 297.16 326.87 330.16 307.85 330.16 268.77 277.37 238.06 210.53 276.44"/><polygon class="cls-3" points="347.68 660.98 384.2 682.66 339.44 710 302.2 688.31 347.68 660.98"/><polyline class="cls-3" points="562.87 645.49 562.87 653.86 554.32 658.22 498.15 625.95 500.42 624.73 500.59 619.67 554.67 650.2 562.87 645.49 440.42 575.02 356.69 623.86 356.51 636.07 360.53 643.05 392.97 661.88 388.61 664.68 364.45 650.72 351.63 658.05 386.34 677.93 500.59 612.17 504.78 614.61 392.97 678.98 396.82 681.77 343.96 712.29 401.81 745.79 443.03 721.71 449.68 725.7"/><line class="cls-3" x1="554.67" y1="650.2" x2="554.32" y2="658.22"/><polyline class="cls-3" points="504.78 614.61 504.78 617.75 500.59 619.67 500.42 624.73"/><polyline class="cls-3" points="498.15 625.95 396.8 684.92 396.82 681.77"/><polyline class="cls-3" points="396.8 684.92 396.8 722.71 394.48 723.9"/><polyline class="cls-3" points="416.92 736.96 382.9 717.07 380.68 718.26 414.81 738.2 404.34 744.31 380.68 730.13 377.5 731.71"/><line class="cls-3" x1="380.68" y1="718.26" x2="380.68" y2="730.13"/><polyline class="cls-3" points="561.16 638.77 498.15 602.7 498.15 566.36 561 602.2 628.72 562.94 628.72 599.64 561.16 638.77 561 644.42 622.51 608.07 622.51 646.12 449.68 746.99"/><polyline class="cls-3" points="621.39 640.61 570.26 670.56 570.26 672.88 483.25 723.9 483.25 727.4"/><polygon class="cls-3" points="494.36 615.76 432.78 579.47 431.21 580.39 431.21 587.93 487.03 619.98 494.36 615.76"/><polygon class="cls-3" points="625.17 606.58 625.17 645.02 692.25 606.58 692.25 568.15 625.17 606.58"/><polygon class="cls-3" points="630.52 561.49 630.52 599.38 692.25 563.9 692.25 526.01 630.52 561.49"/><polygon class="cls-3" points="628.72 446.92 691.51 483.69 691.51 522.5 630.52 556.87 630.52 517.33 568.25 480.74 628.72 446.92"/><polygon class="cls-3" points="628.72 556.87 628.72 518.25 566.03 482.21 566.03 521.39 628.72 556.87"/><polyline class="cls-3" points="566.03 482.21 498.58 519.54 498.58 560.94 561.23 596.61 628.72 556.87"/><polyline class="cls-3" points="343.8 442.13 343.72 468.17 346.68 469.83 346.68 440.45 340.02 444.33 340.02 432.69 348.15 428.07 486.01 508.27 608.53 436.38 624.98 445.44 495.62 518.25 498.58 519.54 628.72 446.92 628.72 486.45 691.51 522.5"/><polyline class="cls-3" points="340.02 444.33 336.7 442.85 336.7 431.58 394.17 398.87 394.17 386.31 373.84 374.85 307.13 411.07 307.13 455.24 495.44 564.08 495.62 518.25"/><polyline class="cls-3" points="495.44 566.3 495.44 601.41 307.13 491.82 307.13 458.93 336.7 476.12 336.7 481.29 340.02 483.69 340.02 477.04 495.44 566.3 495.44 564.08"/><polyline class="cls-3" points="340.02 483.69 345.23 480.03 346.58 480.81 346.58 510.3 343.78 508.81 343.78 481.05"/><polyline class="cls-3" points="346.58 510.3 486.44 591.39 486.44 561.13"/><line class="cls-3" x1="494.98" y1="586.05" x2="486.44" y2="591.4"/><polygon class="cls-3" points="361.68 519.05 361.68 493.74 372.13 499.69 372.13 525.12 361.68 519.05"/><polyline class="cls-3" points="361.68 519.05 363.37 518.19 363.37 494.7"/><line class="cls-3" x1="363.37" y1="518.19" x2="372.13" y2="523.22"/><line class="cls-3" x1="364.42" y1="495.31" x2="364.42" y2="518.8"/><polygon class="cls-3" points="364.87 508.25 364.87 507.55 366.13 508.25 366.13 509 364.87 508.25"/><polygon class="cls-3" points="410.17 547.17 410.17 521.2 411.59 522.08 421.24 528.02 421.24 553.59 410.17 547.17"/><polyline class="cls-3" points="411.59 522.08 411.59 545.97 410.17 547.17"/><polyline class="cls-3" points="412.53 522.66 412.53 546.67 411.59 545.97"/><line class="cls-3" x1="421.24" y1="551.79" x2="412.53" y2="546.67"/><polygon class="cls-3" points="413.06 537.7 413.06 536.97 414.27 537.7 414.27 538.32 413.06 537.7"/><polygon class="cls-3" points="436.48 562.43 436.48 536.97 450.2 545.05 450.2 570.38 436.48 562.43"/><line class="cls-3" x1="447.42" y1="568.77" x2="447.42" y2="543.41"/><polyline class="cls-3" points="438.09 537.92 438.09 562.17 437.05 562.76"/><line class="cls-3" x1="438.09" y1="562.17" x2="447.42" y2="567.66"/><line class="cls-3" x1="439.12" y1="538.52" x2="439.1" y2="562.76"/><polygon class="cls-3" points="439.58 553.59 439.58 552.5 440.74 553.04 440.74 554.03 439.58 553.59"/><polyline class="cls-3" points="495.44 544.42 486.44 549.81 348.2 468.77 348.15 428.07"/><line class="cls-3" x1="346.68" y1="469.83" x2="348.2" y2="468.77"/><polygon class="cls-3" points="361.68 476.6 361.68 451.29 372.13 457.24 372.13 482.66 361.68 476.6"/><polyline class="cls-3" points="361.68 476.6 363.37 475.74 363.37 452.25"/><line class="cls-3" x1="363.37" y1="475.74" x2="372.13" y2="480.77"/><line class="cls-3" x1="364.42" y1="452.85" x2="364.42" y2="476.35"/><polygon class="cls-3" points="364.87 465.79 364.87 465.1 366.13 465.79 366.13 466.55 364.87 465.79"/><polygon class="cls-3" points="410.17 504.93 410.17 479.62 420.62 485.57 420.62 510.99 410.17 504.93"/><polyline class="cls-3" points="410.17 504.93 411.86 504.07 411.86 480.58"/><line class="cls-3" x1="411.86" y1="504.07" x2="420.62" y2="509.1"/><line class="cls-3" x1="412.92" y1="481.18" x2="412.92" y2="504.68"/><polygon class="cls-3" points="413.36 494.12 413.36 493.43 414.62 494.12 414.62 494.88 413.36 494.12"/><polygon class="cls-3" points="436.48 520.34 436.48 494.88 450.2 502.96 450.2 528.29 436.48 520.34"/><line class="cls-3" x1="447.42" y1="526.68" x2="447.42" y2="501.32"/><polyline class="cls-3" points="438.09 495.83 438.09 520.08 437.05 520.67"/><line class="cls-3" x1="438.09" y1="520.08" x2="447.42" y2="525.57"/><line class="cls-3" x1="439.12" y1="496.43" x2="439.1" y2="520.67"/><polygon class="cls-3" points="439.58 511.5 439.58 510.41 440.74 510.95 440.74 511.94 439.58 511.5"/><line class="cls-3" x1="486.01" y1="508.27" x2="486.44" y2="549.81"/><polygon class="cls-3" points="486.44 504.07 530.39 478.94 431.84 421.5 387.19 446.92 437.05 475.74 451.88 466.98 456.1 469.46 441.94 478.26 486.44 504.07"/><polygon class="cls-3" points="383.49 445.25 403.03 433.46 388.54 424.87 368.5 436.66 383.49 445.25"/><polygon class="cls-3" points="390.9 423.52 405.89 432.61 428.3 419.14 412.92 410.38 390.9 423.52"/><polygon class="cls-3" points="351.82 426.55 397.3 400.94 410.17 408.52 365.5 435.06 351.82 426.55"/><line class="cls-3" x1="397.3" y1="400.94" x2="397.3" y2="416.17"/><line class="cls-3" x1="412.92" y1="410.38" x2="412.92" y2="428.07"/><line class="cls-3" x1="388.54" y1="424.87" x2="388.54" y2="442.2"/><polyline class="cls-3" points="431.84 421.5 431.84 462.78 445.59 470.7"/><line class="cls-3" x1="456.1" y1="469.46" x2="456.1" y2="486.47"/><line class="cls-3" x1="456.1" y1="476.6" x2="495.62" y2="498.82"/><polygon class="cls-3" points="446.66 462.78 446.66 441.49 469.27 454.35 469.27 476.11 446.66 462.78"/><polyline class="cls-3" points="446.66 462.78 451.02 460.39 451.02 443.97"/><line class="cls-3" x1="451.02" y1="460.39" x2="469.27" y2="470.7"/><polyline class="cls-3" points="457.47 447.63 457.47 462.78 452.34 459.95 452.34 444.72"/><polyline class="cls-3" points="459.3 448.68 459.3 463.69 464.21 466.25 464.21 451.47"/><polyline class="cls-3" points="465.81 452.38 465.81 467.1 469.27 468.96"/><polygon class="cls-3" points="263.68 322.47 263.68 344.05 285.84 356.85 285.84 335.07 268.01 324.93 263.68 322.47"/><polyline class="cls-3" points="263.68 344.05 268.07 341.38 268.01 324.93 269.71 325.9 269.71 340.42 274.76 343.29 274.76 328.77 276.41 329.71 276.41 344.05 281.25 346.92 281.25 332.47 283.16 333.55 283.16 348.06 285.84 349.4"/><line class="cls-3" x1="268.07" y1="341.38" x2="285.84" y2="351.88"/><polygon class="cls-3" points="290.28 337.16 290.28 358.75 312.44 371.54 312.44 349.77 294.61 339.62 290.28 337.16"/><polyline class="cls-3" points="290.28 358.75 294.67 356.07 294.61 339.62 296.31 340.59 296.31 355.12 301.36 357.98 301.36 343.47 303.01 344.4 303.01 358.75 307.85 361.61 307.85 347.16 309.76 348.25 309.76 362.76 312.44 364.09"/><line class="cls-3" x1="294.67" y1="356.05" x2="312.44" y2="366.55"/><polygon class="cls-3" points="316.78 351.86 316.78 373.44 338.94 386.24 338.94 364.46 321.11 354.32 316.78 351.86"/><polyline class="cls-3" points="316.78 373.44 321.17 370.77 321.11 354.32 322.81 355.29 322.81 369.81 327.86 372.68 327.86 358.16 329.51 359.1 329.51 373.44 334.35 376.31 334.35 361.86 336.26 362.94 336.26 377.45 338.94 378.79"/><line class="cls-3" x1="321.17" y1="370.77" x2="338.94" y2="381.27"/><polyline class="cls-3" points="309.39 405.61 290.28 394.09 290.28 373.27 312.44 385.31 312.44 403.86"/><polyline class="cls-3" points="294.67 375.66 294.67 391.99 290.28 394.09"/><line class="cls-3" x1="294.67" y1="391.99" x2="312.44" y2="402.3"/><polyline class="cls-3" points="295.75 376.24 295.75 391.06 300.75 394.09 300.75 378.96 302.44 379.88 302.44 394.71 307.54 397.75 307.54 382.64 309.1 383.49 309.1 398.36 312.44 400.08"/><polyline class="cls-3" points="325.7 392.56 325.7 396.24 320.77 399.07 320.77 389.87 319.32 389.08 319.32 399.07 314.93 401.4 315.34 386.9 325.7 392.56 327.25 393.4 328.51 394.09 327.46 395.23"/><polyline class="cls-3" points="189.39 349.4 189.32 388.67 248.14 355.48 248.14 351.31 249.05 350.14 258.17 344.93 257.75 310.67"/><polyline class="cls-3" points="257.78 313.78 248.66 319.13 249.05 350.14"/><polygon class="cls-3" points="257.18 344.21 257.18 315.36 249.61 320.06 250.06 348.3 257.18 344.21"/><polygon class="cls-3" points="227.68 362.16 246.9 350.96 246.9 320.17 227.68 331.83 227.68 362.16"/><polygon class="cls-3" points="225.13 363.35 225.13 332.89 211.33 340.42 211.33 370.77 225.13 363.35"/><polygon class="cls-3" points="207.93 372.48 207.93 342.39 194.31 350.14 194.31 379.83 207.93 372.48"/><polyline class="cls-3" points="246.9 338.62 249.61 339.66 285.26 398.56 284.73 398.86 248.92 340.1"/><polyline class="cls-3" points="285.26 398.56 285.26 403.49 284.62 403.67"/><polyline class="cls-3" points="282.6 400.3 282.6 412.92 283.02 413.22 283.93 412.83 283.93 402.53"/><line class="cls-3" x1="283.09" y1="401.12" x2="283.02" y2="413.22"/><polyline class="cls-3" points="303.06 411.81 279.08 424.87 284.62 428.07 282.6 429.57 282.6 440.35 274.7 435.71 274.76 425.69 303.06 409.24 307.13 411.07"/><polyline class="cls-3" points="284.62 428.07 284.62 439.1 282.6 440.35"/><line class="cls-3" x1="274.76" y1="425.69" x2="282.6" y2="429.57"/><polyline class="cls-3" points="271.33 394.15 269.71 393.38 269.71 390.6 268.07 389.44 268.07 386.9 265.56 385.45 265.56 382.97 263.68 381.94 263.68 379.37 261.64 378.13 261.64 376.24 259.48 374.85 259.48 373.27 256.6 371.54 256.6 368.13 254.53 367 254.53 364.09 252.37 363.19 252.37 360.3 250.51 359.27 250.51 356.85 248.14 355.48"/><polyline class="cls-3" points="277.47 401.12 278.77 401.83 278.77 404.04 281.08 405.2 281.15 407.65 282.6 408.3 282.6 410.39 279.35 408.66 279.35 406.76 276.96 405.61 276.96 403.67 274.22 401.83"/><polyline class="cls-3" points="271.85 392.73 271.85 389.84 269.71 388.67 269.71 386.24 267.53 385.23 267.53 382.49 266.52 381.91"/><polygon class="cls-3" points="266.52 373.3 266.52 382.61 265.56 382.97 264.84 382.58 264.95 370.67 266.52 373.3"/><line class="cls-3" x1="265.68" y1="371.89" x2="265.56" y2="382.97"/><polyline class="cls-3" points="264.84 377.95 263.7 377.43 263.7 374.99 261.14 373.76 261.14 371.24 258.92 370.04 258.92 367.61 257.27 366.55"/><polygon class="cls-3" points="257.27 357.78 257.27 367.73 256.6 368.13 255.57 367.57 255.57 354.94 257.27 357.78"/><line class="cls-3" x1="256.42" y1="356.36" x2="256.6" y2="368.13"/><polyline class="cls-3" points="255.57 363.16 254.22 362.46 254.22 359.53 252.28 358.3 252.28 356.03 250.72 355.16 250.72 354.01 253.94 352.2"/><polyline class="cls-3" points="284.73 398.86 284.62 403.67 248.97 343.85 249.14 356.06 249.89 356.49 250.72 355.95 250.52 346.46"/><line class="cls-3" x1="250.02" y1="345.62" x2="249.89" y2="356.49"/><polyline class="cls-3" points="258.17 344.93 259.99 346.14 259.99 348.78 262.17 350.14 262.17 352.77 264.23 353.97 264.23 356.49 266.52 357.84 266.52 360.48 268.81 361.8 268.81 364.27 270.95 365.55 270.95 367.98 273.17 369.38 273.17 371.73 275.15 372.84 275.15 375.44 277.5 376.82 277.5 379.11 279.56 380.34 279.73 382.97 281.7 384.21 281.7 386.9 284.09 388.16 284.09 390.89 286.36 391.99 286.36 394.6 288.5 395.79 288.5 398.56 290.69 399.79 290.69 402.06 292.75 403.13 292.75 405.39 283.93 410.39"/><line class="cls-3" x1="292.75" y1="403.13" x2="283.93" y2="408.49"/><line class="cls-3" x1="290.69" y1="402.06" x2="283.93" y2="406.01"/><line class="cls-3" x1="282.6" y1="406.76" x2="281.15" y2="407.65"/><line class="cls-3" x1="290.69" y1="399.79" x2="285.27" y2="402.85"/><line class="cls-3" x1="281.08" y1="405.2" x2="282.6" y2="404.32"/><line class="cls-3" x1="288.5" y1="398.56" x2="285.27" y2="400.3"/><line class="cls-3" x1="282.6" y1="401.76" x2="278.77" y2="404.04"/><line class="cls-3" x1="288.5" y1="395.79" x2="284.84" y2="397.86"/><line class="cls-3" x1="278.77" y1="401.83" x2="282.2" y2="399.62"/><line class="cls-3" x1="286.36" y1="394.6" x2="283.77" y2="396.1"/><line class="cls-3" x1="280.99" y1="397.59" x2="277.89" y2="399.43"/><line class="cls-3" x1="286.36" y1="391.99" x2="282.6" y2="394.09"/><line class="cls-3" x1="279.84" y1="395.65" x2="277.43" y2="397.15"/><line class="cls-3" x1="284.09" y1="388.16" x2="280.31" y2="390.38"/><line class="cls-3" x1="277.57" y1="391.85" x2="275.46" y2="393.04"/><line class="cls-3" x1="274.93" y1="387.42" x2="274.93" y2="392.84"/><line class="cls-3" x1="274.22" y1="386.22" x2="274.22" y2="391.99"/><line class="cls-3" x1="273.41" y1="384.88" x2="273.41" y2="391.99"/><line class="cls-3" x1="281.7" y1="386.9" x2="279.13" y2="388.43"/><line class="cls-3" x1="276.51" y1="390.08" x2="274.93" y2="390.9"/><line class="cls-3" x1="281.7" y1="384.22" x2="277.9" y2="386.4"/><line class="cls-3" x1="273.41" y1="389.11" x2="271.85" y2="389.84"/><line class="cls-3" x1="279.73" y1="382.97" x2="276.86" y2="384.67"/><line class="cls-3" x1="273.41" y1="386.7" x2="269.71" y2="388.67"/><line class="cls-3" x1="279.56" y1="380.34" x2="275.65" y2="382.68"/><line class="cls-3" x1="269.71" y1="386.24" x2="273.1" y2="384.34"/><line class="cls-3" x1="277.5" y1="379.11" x2="274.53" y2="380.83"/><line class="cls-3" x1="267.53" y1="385.23" x2="271.97" y2="382.46"/><line class="cls-3" x1="267.53" y1="382.49" x2="270.86" y2="380.59"/><line class="cls-3" x1="273.49" y1="379.11" x2="277.5" y2="376.82"/><line class="cls-3" x1="275.15" y1="375.44" x2="272.34" y2="377.2"/><line class="cls-3" x1="269.71" y1="378.65" x2="266.52" y2="380.59"/><line class="cls-3" x1="275.15" y1="372.84" x2="271.15" y2="375.25"/><line class="cls-3" x1="268.55" y1="376.71" x2="266.52" y2="377.81"/><line class="cls-3" x1="273.17" y1="371.73" x2="270.11" y2="373.53"/><line class="cls-3" x1="267.53" y1="374.99" x2="266.52" y2="375.66"/><line class="cls-3" x1="264.84" y1="376.71" x2="263.7" y2="377.43"/><line class="cls-3" x1="273.17" y1="369.38" x2="269.02" y2="371.73"/><line class="cls-3" x1="263.7" y1="374.98" x2="264.92" y2="374.24"/><line class="cls-3" x1="270.95" y1="367.98" x2="267.84" y2="369.78"/><line class="cls-3" x1="264.84" y1="371.48" x2="261.14" y2="373.76"/><line class="cls-3" x1="270.95" y1="365.55" x2="266.85" y2="368.13"/><line class="cls-3" x1="261.14" y1="371.23" x2="264.27" y2="369.53"/><line class="cls-3" x1="268.81" y1="364.27" x2="265.62" y2="366.11"/><line class="cls-3" x1="258.92" y1="370.04" x2="263.1" y2="367.56"/><line class="cls-3" x1="268.81" y1="361.8" x2="264.51" y2="364.27"/><line class="cls-3" x1="258.92" y1="367.61" x2="262.1" y2="365.89"/><line class="cls-3" x1="266.52" y1="360.48" x2="263.36" y2="362.38"/><line class="cls-3" x1="257.27" y1="365.71" x2="260.81" y2="363.73"/><line class="cls-3" x1="266.52" y1="357.84" x2="262.1" y2="360.3"/><line class="cls-3" x1="259.66" y1="361.8" x2="257.27" y2="363.16"/><line class="cls-3" x1="264.23" y1="356.49" x2="261.01" y2="358.33"/><line class="cls-3" x1="258.47" y1="359.79" x2="257.27" y2="360.48"/><line class="cls-3" x1="254.22" y1="362.46" x2="255.57" y2="361.54"/><line class="cls-3" x1="264.23" y1="353.97" x2="259.8" y2="356.49"/><line class="cls-3" x1="254.22" y1="359.53" x2="255.57" y2="358.76"/><line class="cls-3" x1="262.17" y1="352.77" x2="258.72" y2="354.71"/><line class="cls-3" x1="252.28" y1="358.3" x2="255.57" y2="356.49"/><line class="cls-3" x1="262.17" y1="350.14" x2="257.55" y2="352.77"/><line class="cls-3" x1="252.28" y1="356.03" x2="255.15" y2="354.23"/><line class="cls-3" x1="259.99" y1="348.78" x2="256.35" y2="350.8"/><line class="cls-3" x1="259.99" y1="346.14" x2="255.15" y2="348.82"/><line class="cls-3" x1="250.62" y1="351.46" x2="252.8" y2="350.28"/><ellipse class="cls-3" cx="273.71" cy="394.09" rx="2.01" ry="1.15"/><ellipse class="cls-3" cx="273.71" cy="392.51" rx="0.78" ry="0.43"/><ellipse class="cls-3" cx="273.71" cy="394.09" rx="0.78" ry="0.43"/><line class="cls-3" x1="272.93" y1="394.09" x2="272.93" y2="392.51"/><line class="cls-3" x1="274.49" y1="394.09" x2="274.49" y2="392.51"/><ellipse class="cls-3" cx="273.7" cy="395.77" rx="2.01" ry="0.53"/><polyline class="cls-3" points="271.7 394.09 271.69 395.15 271.69 395.77"/><polyline class="cls-3" points="275.72 394.09 275.72 395.15 275.72 395.77"/><path class="cls-3" d="M277.77,481.11a5.18,5.18,0,0,1,1.93,5,.47.47,0,0,1-.18.29c-.75.55-4.21,2.81-7.51,0a.62.62,0,0,1-.22-.54c.09-1.08.47-4.17,2-4.56" transform="translate(-2.06 -85.96)"/><ellipse class="cls-3" cx="250.88" cy="406.76" rx="2.01" ry="1.15"/><ellipse class="cls-3" cx="250.88" cy="405.18" rx="0.78" ry="0.43"/><ellipse class="cls-3" cx="250.88" cy="406.76" rx="0.78" ry="0.43"/><line class="cls-3" x1="250.1" y1="406.76" x2="250.1" y2="405.18"/><line class="cls-3" x1="251.66" y1="406.76" x2="251.66" y2="405.18"/><ellipse class="cls-3" cx="250.87" cy="408.44" rx="2.01" ry="0.53"/><polyline class="cls-3" points="248.87 406.76 248.86 407.82 248.86 408.44"/><polyline class="cls-3" points="252.89 406.76 252.88 407.82 252.88 408.44"/><path class="cls-3" d="M254.94,493.78a5.18,5.18,0,0,1,1.92,5,.42.42,0,0,1-.17.29c-.75.55-4.21,2.81-7.51,0a.63.63,0,0,1-.22-.54c.08-1.08.46-4.17,2-4.56" transform="translate(-2.06 -85.96)"/><ellipse class="cls-3" cx="248.85" cy="379.44" rx="2.01" ry="1.15"/><ellipse class="cls-3" cx="248.85" cy="377.86" rx="0.78" ry="0.43"/><ellipse class="cls-3" cx="248.85" cy="379.44" rx="0.78" ry="0.43"/><line class="cls-3" x1="248.07" y1="379.44" x2="248.07" y2="377.86"/><line class="cls-3" x1="249.63" y1="379.44" x2="249.63" y2="377.86"/><ellipse class="cls-3" cx="248.84" cy="381.12" rx="2.01" ry="0.53"/><polyline class="cls-3" points="246.84 379.44 246.83 380.5 246.83 381.12"/><polyline class="cls-3" points="250.86 379.44 250.86 380.5 250.86 381.12"/><path class="cls-3" d="M252.91,466.46a5.18,5.18,0,0,1,1.93,5,.5.5,0,0,1-.18.29c-.75.55-4.21,2.81-7.51,0a.6.6,0,0,1-.22-.53c.09-1.08.47-4.17,2-4.56" transform="translate(-2.06 -85.96)"/><ellipse class="cls-3" cx="225.67" cy="392.3" rx="2.01" ry="1.15"/><ellipse class="cls-3" cx="225.67" cy="390.72" rx="0.78" ry="0.43"/><ellipse class="cls-3" cx="225.67" cy="392.29" rx="0.78" ry="0.43"/><line class="cls-3" x1="224.88" y1="392.29" x2="224.88" y2="390.72"/><line class="cls-3" x1="226.45" y1="392.29" x2="226.45" y2="390.72"/><ellipse class="cls-3" cx="225.66" cy="393.98" rx="2.01" ry="0.53"/><polyline class="cls-3" points="223.66 392.3 223.65 393.36 223.65 393.98"/><polyline class="cls-3" points="227.68 392.3 227.67 393.36 227.67 393.98"/><path class="cls-3" d="M229.73,479.32a5.18,5.18,0,0,1,1.92,5,.45.45,0,0,1-.18.29c-.74.55-4.21,2.81-7.51,0a.66.66,0,0,1-.22-.53c.09-1.08.47-4.17,2-4.56" transform="translate(-2.06 -85.96)"/><polyline class="cls-3" points="274.76 353.74 248.85 377.86 225.67 390.72 201.12 394.51"/><polyline class="cls-3" points="299.76 368.13 273.71 392.51 250.88 405.18 226.45 408.97"/><polygon class="cls-3" points="116.13 325.88 116.13 302.35 166.5 273.14 166.5 296.04 116.13 325.88"/><polyline class="cls-3" points="116.13 320.98 163.18 294.14 166.5 296.04"/><line class="cls-3" x1="163.19" y1="275.06" x2="163.18" y2="294.14"/><polyline class="cls-3" points="161.6 275.98 161.6 293.51 152.15 298.87 152.15 281.46"/><polyline class="cls-3" points="149.37 283.07 149.37 300.67 139.83 306.08 139.83 288.61"/><polyline class="cls-3" points="136.58 290.49 136.58 308.09 127 313.4 127 296.05"/><polyline class="cls-3" points="124.7 297.38 124.7 315 116.13 320"/><polyline class="cls-3" points="226.45 325.76 173.09 298.07 172.79 261.23"/><line class="cls-3" x1="110.22" y1="338.15" x2="173.09" y2="298.07"/><line class="cls-3" x1="109.76" y1="380.77" x2="142.98" y2="361.8"/><polygon class="cls-3" points="535.65 476.11 492.41 450.94 539.82 424.11 582.28 448.68 535.65 476.11"/><line class="cls-3" x1="539.82" y1="424.1" x2="539.56" y2="473.81"/><polygon class="cls-3" points="543.21 422.8 585.15 446.92 605.99 434.86 563.65 410.3 543.21 422.8"/><line class="cls-3" x1="563.65" y1="410.3" x2="563.65" y2="434.56"/><polygon class="cls-3" points="566.03 407.95 627.61 443.38 659.11 424.54 599.01 388.25 566.03 407.95"/><polyline class="cls-3" points="599.01 388.25 599.44 408.64 583.73 418.14"/><polyline class="cls-3" points="599.44 408.64 611.28 415.81 628.72 406.19"/><polyline class="cls-3" points="626.2 423.55 616.61 417.54 609.52 421 607.52 419.81 607.52 417.7 609.69 419.11 609.69 416.35 612.18 417.76 612.2 415.31 614.5 416.68 614.51 414.03 628.15 422.43 609.69 433.07"/><line class="cls-3" x1="611.29" y1="415.81" x2="607.52" y2="417.7"/><polyline class="cls-3" points="597.24 425.91 607.52 419.81 609.52 421 599.44 427.17"/><polyline class="cls-3" points="601.93 428.61 609.52 423.55 609.52 421"/><polyline class="cls-3" points="609.52 423.55 611.77 424.81 603.89 429.74"/><polyline class="cls-3" points="611.77 424.81 611.77 427.17 605.73 430.79"/><polyline class="cls-3" points="611.77 427.17 614.08 428.61 614.08 430.54"/><line class="cls-3" x1="614.08" y1="428.61" x2="608.14" y2="432.18"/><polyline class="cls-3" points="594.56 462.56 594.56 459.51 607.83 451.51 607.83 455.09"/><line class="cls-3" x1="596.67" y1="458.24" x2="596.67" y2="461.37"/><line class="cls-3" x1="605.73" y1="452.78" x2="605.73" y2="456.28"/><line class="cls-3" x1="606.54" y1="452.29" x2="606.66" y2="455.75"/><polygon class="cls-3" points="244.87 251.01 216.28 234.69 244.87 217.49 273.15 234.25 244.87 251.01"/><line class="cls-3" x1="244.87" y1="217.49" x2="244.87" y2="251.01"/><polyline class="cls-3" points="212.78 231.8 212.78 189.21 251.85 126.54 294.67 150.15 392.94 95.05"/><polyline class="cls-3" points="212.78 189.21 124.7 138.49 164.68 75.81 209 87.76 296.16 138.2 362.62 100.59 392.94 95.05 434.47 156.56 334.35 213.38"/><polyline class="cls-3" points="434.47 156.56 433.2 372.5 424.78 377.56 424.78 374.85 421.57 373.01 421.57 340.99 408.77 348.24 408.77 387.43 398.69 392.84 398.69 272.56 334.1 309.82"/><line class="cls-3" x1="394.18" y1="275.17" x2="394.18" y2="381.51"/><polygon class="cls-3" points="328.19 344.93 394.18 307.28 394.18 313.78 334.1 348.78 328.19 344.93"/><polygon class="cls-3" points="363 365.19 394.18 347.48 394.18 354.94 369.63 369.05 363 365.19"/><polyline class="cls-3" points="408.77 378.79 420.29 372.19 420.29 341.72"/><polyline class="cls-3" points="408.77 380.59 421.57 373.01 433.24 366.8 437.71 369.41 437.71 375.52 433.2 372.5"/><polyline class="cls-3" points="409.37 380.24 412.18 381.94 412.18 385.59 415.51 387.38 415.51 390.9 408.77 387.43"/><polyline class="cls-3" points="424.78 377.56 424.78 378.29 427.93 380.24 427.93 383.8 415.51 390.9"/><line class="cls-3" x1="415.51" y1="387.38" x2="427.92" y2="380.24"/><line class="cls-3" x1="412.18" y1="385.59" x2="424.78" y2="378.29"/><line class="cls-3" x1="412.18" y1="381.94" x2="424.43" y2="374.65"/><line class="cls-3" x1="398.68" y1="385.57" x2="408.77" y2="380.09"/><polyline class="cls-3" points="440.05 365.06 440.32 373.7 437.71 375.52 457.54 387.07 457.54 374.85 437.71 363.75 437.71 369.41"/><polyline class="cls-3" points="440.32 373.7 449.19 379.17 449.19 370.17 450.21 370.74 450.21 379.47 457.54 383.81"/><polyline class="cls-3" points="457.54 387.07 523.28 425.47 523.28 413.68 533.69 419.38"/><path class="cls-3" d="M488.44,489.88V477.73L468.88,467v11.05a.21.21,0,0,0,.33.17l1.86-1.31V468.2" transform="translate(-2.06 -85.96)"/><path class="cls-3" d="M471.07,468.2" transform="translate(-2.06 -85.96)"/><polyline class="cls-3" points="469.01 390.95 478.18 396.31 478.18 387.27 479.18 387.82 479.18 396.61 486.38 400.86"/><path class="cls-3" d="M499.68,484.61v9.14l-2.14,1.11a.21.21,0,0,1-.3-.19l.26-11.28,19.63,11v12.29" transform="translate(-2.06 -85.96)"/><polyline class="cls-3" points="497.62 407.79 506.72 412.93 506.72 403.73"/><polyline class="cls-3" points="507.64 404.24 507.64 413.38 515.07 417.85"/><line class="cls-3" x1="525.71" y1="415.01" x2="525.61" y2="424.1"/><polygon class="cls-3" points="540.29 415.52 522.22 405.03 522.22 406.27 539.26 416.13 540.29 415.52"/><polyline class="cls-3" points="522.22 405.03 523.57 403.92 540.93 413.68 540.93 415.15 540.29 415.52"/><polyline class="cls-3" points="524.86 386.46 524.86 402.84 523.57 403.92 523.57 385.7 540.93 395.84 540.93 413.68"/><polyline class="cls-3" points="524.86 402.84 529.96 406.03 530.15 389.55"/><polyline class="cls-3" points="536.79 393.42 536.79 410 531.58 406.97 531.58 390.38"/><polyline class="cls-3" points="538.43 394.38 538.43 410.58 540.93 412.15"/><polygon class="cls-3" points="516.21 400.19 516.21 381.52 495.98 369.92 495.98 387.89 494.83 389.1 494.83 390.19 514.49 401.64 516.21 400.19"/><line class="cls-3" x1="514.48" y1="400.44" x2="494.83" y2="389.1"/><polyline class="cls-3" points="497.29 387.07 502.51 390.09 502.53 373.67 497.28 370.66 497.29 387.07 495.98 387.89 515.9 399.29 514.49 400.44 514.49 401.64"/><polyline class="cls-3" points="504.11 374.58 504.11 390.93 509.26 394.06 509.26 377.53"/><polyline class="cls-3" points="510.99 378.52 510.99 394.77 515.9 397.79"/><polygon class="cls-3" points="486.82 382.86 486.82 365.38 466.82 353.57 466.82 371.63 486.82 382.86"/><line class="cls-3" x1="465.34" y1="373" x2="485.16" y2="384.32"/><polyline class="cls-3" points="468 354.26 468 370.91 466.82 371.63 465.34 373 465.34 374.58 485.16 385.57 486.82 384.32 486.82 382.86 485.16 384.32 485.16 385.57"/><polyline class="cls-3" points="468 370.91 473.16 373.96 473.43 357.47"/><polyline class="cls-3" points="474.86 358.31 474.86 374.85 479.99 377.91 479.99 361.34"/><polyline class="cls-3" points="481.74 362.38 481.74 378.66 486.82 381.62"/><polygon class="cls-3" points="438.15 355.53 438.15 337.45 458.38 349.25 458.38 366.8 438.15 355.53"/><polyline class="cls-3" points="456.65 369.17 456.71 368.11 458.38 366.8 458.38 367.74 456.65 369.17 436.9 357.74 436.9 356.73 438.15 355.53 439.47 354.57 439.36 338.16"/><line class="cls-3" x1="436.9" y1="356.73" x2="456.71" y2="368.11"/><polyline class="cls-3" points="439.47 354.57 444.62 357.86 444.62 341.22"/><polyline class="cls-3" points="446.24 342.17 446.24 358.7 451.38 361.69 451.38 345.16"/><polyline class="cls-3" points="453.13 346.18 453.13 362.42 458.38 365.46"/><polyline class="cls-3" points="433.47 327.07 542.27 390.38 553.81 382.86 553.81 354.26 433.72 285.26"/><polyline class="cls-3" points="433.68 291.11 482.56 319.04 482.56 351.32 433.47 323.39"/><polygon class="cls-3" points="485.16 352.83 485.16 320.55 514.49 336.69 514.49 369.92 485.16 352.83"/><polygon class="cls-3" points="517.01 370.66 517.01 338.95 549.63 357.86 549.65 385.57 545.68 388.16 517.01 370.66"/><polyline class="cls-3" points="553.81 354.26 553.81 226.4 583.04 243.32 583.04 377.56"/><polyline class="cls-3" points="542.27 390.38 540.93 391.19 561.82 402.94"/><polyline class="cls-3" points="589.37 386.84 572.98 377.08 550.75 390.82 566.52 400.19"/><line class="cls-3" x1="572.98" y1="377.08" x2="572.98" y2="396.66"/><polygon class="cls-3" points="553.81 292.38 505.94 265.15 505.94 252.79 504.11 251.95 504.11 267.03 553.81 295.94 553.81 292.38"/><polygon class="cls-3" points="508.05 274.7 508.05 269.32 504.11 267.03 504.11 272.48 508.05 274.7"/><line class="cls-3" x1="508.05" y1="274.7" x2="512.46" y2="271.89"/><polyline class="cls-3" points="556.08 221.12 504.11 251.95 505.94 252.79 553.81 224.72"/><polyline class="cls-3" points="553.81 226.4 553.04 226.17 582.36 178.97 611.2 195.34 583.04 243.32"/><polyline class="cls-3" points="611.2 195.34 647.37 216.79 647.37 222.3"/><polygon class="cls-3" points="655.28 285.26 682.58 241.97 619.82 206.95 593.12 248.64 655.28 285.26"/><polygon class="cls-3" points="575.08 264.45 575.08 246.1 562.69 238.8 562.69 256.03 561.43 257 561.43 258.16 574.01 265.32 575.08 264.45"/><polyline class="cls-3" points="561.43 257 574.01 264.26 574.01 265.32"/><polyline class="cls-3" points="562.69 256.03 575.08 263.26 574.01 264.26"/><polyline class="cls-3" points="563.98 239.56 563.98 254.97 569.31 258.02 569.31 242.7"/><polyline class="cls-3" points="570.79 243.58 570.79 258.82 575.08 261.37"/><polygon class="cls-3" points="575.08 306.24 575.08 287.9 562.69 280.6 562.69 297.82 561.43 298.79 561.43 299.95 574.01 307.12 575.08 306.24"/><polyline class="cls-3" points="561.43 298.79 574.01 306.06 574.01 307.12"/><polyline class="cls-3" points="562.69 297.82 575.08 305.06 574.01 306.06"/><polyline class="cls-3" points="563.98 281.36 563.98 296.77 569.31 299.81 569.31 284.5"/><polyline class="cls-3" points="570.79 285.37 570.79 300.61 575.08 303.16"/><polygon class="cls-3" points="575.08 348.05 575.08 329.7 562.69 322.4 562.69 339.63 561.43 340.59 561.43 341.75 574.01 348.92 575.08 348.05"/><polyline class="cls-3" points="561.43 340.59 574.01 347.86 574.01 348.92"/><polyline class="cls-3" points="562.69 339.63 575.08 346.86 574.01 347.86"/><polyline class="cls-3" points="563.98 323.16 563.98 338.57 569.31 341.62 569.31 326.3"/><polyline class="cls-3" points="570.79 327.17 570.79 342.42 575.08 344.96"/><polyline class="cls-3" points="575.08 372.49 575.08 371.59 562.69 364.31 562.69 377.4"/><line class="cls-3" x1="563.98" y1="365.07" x2="563.98" y2="376.61"/><polyline class="cls-3" points="569.31 368.2 569.31 373.33 570.79 372.42 570.79 369.07"/><polygon class="cls-3" points="599.98 279.15 619.93 290.59 620.37 290.19 620.37 272.82 599.98 261.16 599.98 279.15"/><polyline class="cls-3" points="620.37 290.19 620.37 291.44 618.72 292.95 598.66 281.36 598.66 280.25 599.98 279.15 601.3 278.25 601.35 261.94"/><polyline class="cls-3" points="598.66 280.25 618.64 291.84 618.72 292.95"/><line class="cls-3" x1="618.64" y1="291.84" x2="619.93" y2="290.59"/><polyline class="cls-3" points="601.3 278.25 606.57 281.36 606.57 264.93"/><polyline class="cls-3" points="608.18 265.85 608.18 282.33 613.28 285.37 613.28 268.77"/><polyline class="cls-3" points="615.21 269.87 615.21 286.16 620.37 289.2"/><polygon class="cls-3" points="627.71 295.05 647.66 306.49 648.1 306.09 648.1 288.72 627.71 277.06 627.71 295.05"/><polyline class="cls-3" points="648.1 306.09 648.1 307.33 646.45 308.85 626.39 297.26 626.39 296.15 627.71 295.05 629.03 294.15 629.08 277.84"/><polyline class="cls-3" points="626.39 296.15 646.37 307.73 646.45 308.85"/><polyline class="cls-3" points="629.03 294.15 634.3 297.26 634.3 280.83"/><polyline class="cls-3" points="635.91 281.75 635.91 298.23 641.01 301.27 641.01 284.67"/><polyline class="cls-3" points="642.94 285.77 642.94 302.06 648.1 305.1"/><polygon class="cls-3" points="599.98 321.15 619.93 332.59 620.37 332.2 620.37 314.82 599.98 303.16 599.98 321.15"/><polyline class="cls-3" points="620.37 332.2 620.37 333.44 618.72 334.96 598.66 323.36 598.66 322.25 599.98 321.15 601.3 320.26 601.35 303.95"/><polyline class="cls-3" points="598.66 322.25 618.64 333.84 618.72 334.96"/><polyline class="cls-3" points="601.3 320.26 606.57 323.36 606.57 306.93"/><polyline class="cls-3" points="608.18 307.85 608.18 324.33 613.28 327.38 613.28 310.77"/><polyline class="cls-3" points="615.21 311.87 615.21 328.17 620.37 331.2"/><polygon class="cls-3" points="627.71 337.75 647.66 349.19 648.1 348.8 648.1 331.42 627.71 319.76 627.71 337.75"/><polyline class="cls-3" points="648.1 348.8 648.1 350.04 646.45 351.56 626.39 339.96 626.39 338.85 627.71 337.75 629.03 336.86 629.08 320.54"/><polyline class="cls-3" points="626.39 338.85 646.37 350.44 646.45 351.56"/><polyline class="cls-3" points="629.03 336.86 634.3 339.96 634.3 323.53"/><polyline class="cls-3" points="635.91 324.45 635.91 340.93 641.01 343.98 641.01 327.37"/><polyline class="cls-3" points="642.94 328.47 642.94 344.76 648.1 347.8"/><polygon class="cls-3" points="599.99 363.69 619.94 375.13 620.38 374.74 620.38 357.37 599.99 345.7 599.99 363.69"/><polyline class="cls-3" points="620.38 374.74 620.38 375.98 618.73 377.5 598.67 365.9 598.67 364.8 599.99 363.69 601.31 362.8 601.36 346.49"/><polyline class="cls-3" points="598.67 364.8 618.65 376.38 618.73 377.5"/><polyline class="cls-3" points="601.31 362.8 606.58 365.9 606.58 349.48"/><polyline class="cls-3" points="608.19 350.4 608.19 366.88 613.29 369.92 613.29 353.31"/><polyline class="cls-3" points="615.22 354.42 615.22 370.71 620.38 373.75"/><polygon class="cls-3" points="627.71 379.65 647.66 391.09 648.1 390.7 648.1 373.32 627.71 361.66 627.71 379.65"/><polyline class="cls-3" points="648.1 390.7 648.1 391.94 646.45 393.46 626.39 381.86 626.39 380.75 627.71 379.65 629.03 378.76 629.08 362.44"/><polyline class="cls-3" points="626.39 380.75 646.37 392.34 646.45 393.46"/><polyline class="cls-3" points="629.03 378.76 634.3 381.86 634.3 365.43"/><polyline class="cls-3" points="635.91 366.35 635.91 382.83 641.01 385.88 641.01 369.27"/><polyline class="cls-3" points="642.94 370.37 642.94 386.67 648.1 389.7"/><polyline class="cls-3" points="635.91 403.99 655.58 392.23 655.58 373.33 667.19 379.5 667.19 396.66 644.92 409.31"/><polyline class="cls-3" points="655.58 373.33 655.28 285.26 706.36 257.86 706.36 363.16 667.19 385.88"/><line class="cls-3" x1="706.36" y1="363.16" x2="875" y2="459.51"/><polygon class="cls-3" points="697.13 445.93 702.27 449.21 707.71 445.93 702.42 442.9 697.13 445.93"/><polyline class="cls-3" points="707.71 445.93 707.71 483.88 702.42 486.45 697.13 483.42 697.13 445.93"/><line class="cls-3" x1="702.28" y1="449.21" x2="702.42" y2="486.45"/><polygon class="cls-3" points="734.47 424.16 739.62 427.44 745.06 424.16 739.76 421.12 734.47 424.16"/><polyline class="cls-3" points="745.06 424.16 745.06 462.1 739.76 464.67 734.47 461.65 734.47 424.16"/><line class="cls-3" x1="739.62" y1="427.44" x2="739.76" y2="464.67"/><line class="cls-3" x1="667.19" y1="391.09" x2="734.47" y2="428.86"/><line class="cls-3" x1="745.06" y1="434.56" x2="868.02" y2="505.02"/><line class="cls-3" x1="431.84" y1="462.78" x2="423.24" y2="467.76"/><polyline class="cls-3" points="408.77 369.92 413.32 367.5 413.32 347.89 408.77 350.08"/><polygon class="cls-3" points="414.53 366.8 419.05 364.37 419.05 345.23 414.53 347.48 414.53 366.8"/><polygon class="cls-3" points="408 332.88 408 316.1 420.29 308.69 420.29 325.9 408 332.88"/><polyline class="cls-3" points="421.64 326.88 421.64 328.03 408.77 334.99 408 334.3 408 332.88 408.77 333.91 421.64 326.88 420.29 325.9"/><line class="cls-3" x1="408.77" y1="333.91" x2="408.77" y2="334.99"/><polyline class="cls-3" points="408 331.25 412.49 328.91 412.49 313.39"/><polyline class="cls-3" points="414.14 312.4 414.14 327.42 419.05 324.83 419.05 309.44"/><polygon class="cls-3" points="408 291.22 408 274.43 420.29 267.03 420.29 284.23 408 291.22"/><polyline class="cls-3" points="421.64 285.21 421.64 286.36 408.77 293.33 408 292.63 408 291.22 408.77 292.25 421.64 285.21 420.29 284.23"/><polyline class="cls-3" points="408 289.59 412.49 287.24 412.49 271.73"/><polyline class="cls-3" points="414.14 270.73 414.14 285.76 419.05 283.17 419.05 267.78"/><polygon class="cls-3" points="408 249.37 408 232.58 420.29 225.18 420.29 242.38 408 249.37"/><polyline class="cls-3" points="421.64 243.36 421.64 244.51 408.77 251.48 408 250.78 408 249.37 408.77 250.4 421.64 243.36 420.29 242.38"/><polyline class="cls-3" points="408 247.74 412.49 245.39 412.49 229.88"/><polyline class="cls-3" points="414.14 228.88 414.14 243.91 419.05 241.31 419.05 225.93"/><polygon class="cls-3" points="408 207.68 408 190.9 420.29 183.49 420.29 200.7 408 207.68"/><polyline class="cls-3" points="421.64 201.67 421.64 202.83 408.77 209.79 408 209.1 408 207.68 408.77 208.71 421.64 201.67 420.29 200.7"/><polyline class="cls-3" points="408 206.05 412.49 203.71 412.49 188.19"/><polyline class="cls-3" points="414.14 187.19 414.14 202.22 419.05 199.63 419.05 184.24"/><polygon class="cls-3" points="358.87 236.35 358.87 218.95 378.76 207.09 378.76 225.18 358.87 236.35"/><line class="cls-3" x1="360.43" y1="237.8" x2="380.41" y2="226.23"/><polyline class="cls-3" points="358.87 234.92 363.98 232.02 363.98 215.9"/><polyline class="cls-3" points="365.81 214.81 365.81 231.25 371.08 228.25 371.08 211.67"/><polyline class="cls-3" points="372.43 210.87 372.43 227.38 377.68 224.38 377.68 207.73"/><polyline class="cls-3" points="377.68 224.38 378.76 225.18 380.41 226.23 380.41 227.49 360.49 239.11 358.87 237.58 358.87 236.35 360.44 237.8 360.49 239.11"/><polygon class="cls-3" points="359.29 277.37 359.29 259.97 379.19 248.11 379.19 266.2 359.29 277.37"/><line class="cls-3" x1="360.86" y1="278.82" x2="380.83" y2="267.25"/><polyline class="cls-3" points="359.29 275.94 364.4 273.04 364.4 256.92"/><polyline class="cls-3" points="366.23 255.83 366.23 272.27 371.5 269.27 371.5 252.69"/><polyline class="cls-3" points="372.85 251.89 372.85 268.4 378.1 265.4 378.1 248.75"/><polyline class="cls-3" points="378.1 265.4 379.19 266.2 380.83 267.25 380.83 268.51 360.91 280.13 359.29 278.6 359.29 277.37 360.86 278.82 360.91 280.13"/><polygon class="cls-3" points="570.26 672.88 523.65 645.95 523.65 643.86 570.26 670.56 570.26 672.88"/><polyline class="cls-3" points="467.37 697.73 469.93 698.86 461.31 706.73 454.65 702.84 463.2 695.89"/><polyline class="cls-3" points="469.93 698.86 469.93 706.73 466.56 709.8"/><polygon class="cls-3" points="480.46 687.4 476.44 685.39 476.44 675.12 480.46 677.06 480.46 687.4"/><polyline class="cls-3" points="476.44 675.12 493.1 662 496.63 664.05 480.46 677.06"/><polygon class="cls-3" points="495.61 659.72 512.72 646.37 516.15 648.31 499.37 662 495.61 659.72"/><polyline class="cls-3" points="523.65 642.41 519.88 640.61 515.39 644.27 518.76 646.37 523.65 642.41 523.65 649.22"/><path class="cls-3" d="M485.1,741.93" transform="translate(-2.06 -85.96)"/><line class="cls-3" x1="483.04" y1="655.97" x2="511.36" y2="672.34"/><ellipse class="cls-3" cx="514.28" cy="757.3" rx="1.32" ry="1.02" transform="translate(-396.8 563.32) rotate(-49.04)"/><path class="cls-3" d="M486,739v-4.62l-5.94,3.26.41,6.65,4.59-2.4L484,741.3A2.35,2.35,0,0,1,483,740c-.2-.64-.21-1.43.71-1.72a1.71,1.71,0,0,1,1.36.18L515,756.2" transform="translate(-2.06 -85.96)"/><polyline class="cls-3" points="483.98 648.46 477.25 644.45 470.76 648.23 478.04 651.72"/><line class="cls-3" x1="470.76" y1="648.23" x2="470.76" y2="653.51"/><path class="cls-3" d="M472.82,738.89l.54.27,2.87-1.48a1.53,1.53,0,0,1,1.27,2.15L452,754.61v-1.17l-1.6-1,23-13.25" transform="translate(-2.06 -85.96)"/><path class="cls-3" d="M452,754.61v3.24l-1.6-.79s-2.76-.23-1.22,2.9l1.66.86-4.6,2.7v-6.67l5.76-3.41" transform="translate(-2.06 -85.96)"/><polyline class="cls-3" points="444.19 670.89 436.55 667.22 436.55 673.02 444.19 677.55"/><polyline class="cls-3" points="436.55 667.22 443.04 663.42 448.34 666.45"/><line class="cls-3" x1="449.94" y1="671.89" x2="478.94" y2="689.33"/><ellipse class="cls-3" cx="480.51" cy="776.48" rx="1.32" ry="1.02" transform="translate(-422.92 544.42) rotate(-49.04)"/><path class="cls-3" d="M538.31,742.88l-30.38-18c-2.83,0-1.16,2.72-1.16,2.72l30.13,17.58" transform="translate(-2.06 -85.96)"/><polyline class="cls-3" points="507.18 635.21 500.41 631.3 494.03 634.96 501.6 638.58 507.18 635.21 507.18 639.65"/><path class="cls-3" d="M496.09,720.92v5.83l2.63-1.36s2.13-.34,1.28,2.17l-1.11.77,4.64,2.76.13-6.55" transform="translate(-2.06 -85.96)"/><line class="cls-3" x1="506.2" y1="642.47" x2="501.48" y2="645.13"/><line class="cls-3" x1="496.84" y1="642.36" x2="483.98" y2="649.6"/><line class="cls-3" x1="494.03" y1="640.79" x2="482.3" y2="647.46"/><ellipse class="cls-3" cx="537.8" cy="744.12" rx="1.4" ry="1.02" transform="translate(-378.75 576.54) rotate(-49.04)"/><polyline class="cls-3" points="448.78 654.97 448.98 666.08 453.16 663.42 453.16 652.13 455.62 650.7 455.62 662.25"/><polyline class="cls-3" points="452.91 666.92 452.91 673.68 455.62 675.31 455.62 665.35"/><polyline class="cls-3" points="455.62 678.82 455.62 682.41 452.91 684.25 448.78 681.54 448.78 674.85 477.62 691.57"/><line class="cls-3" x1="452.91" y1="684.25" x2="452.91" y2="677.25"/><polygon class="cls-3" points="429.67 651.72 424.19 648.46 424.19 611.29 429.67 608.07 434.94 611.19 434.94 648.46 429.67 651.72"/><polyline class="cls-3" points="424.19 611.29 429.57 614.61 434.94 611.19"/><line class="cls-3" x1="429.57" y1="614.61" x2="429.67" y2="651.71"/><polyline class="cls-3" points="399.07 608.27 399.14 634.12 401.8 635.83 401.8 606.7 388.04 614.61 388.04 641.8"/><line class="cls-3" x1="399.14" y1="634.12" x2="388.04" y2="640.61"/><polyline class="cls-3" points="312.07 598.38 312.33 583.19 309.7 581.14 309.7 597.3"/><polyline class="cls-3" points="419.65 580.79 225.28 468.75 225.28 450.59"/><path class="cls-3" d="M235.57,541.31l0,17.94a.12.12,0,0,0,.19.11l1.27-.74L237,542.11" transform="translate(-2.06 -85.96)"/><line class="cls-3" x1="235.93" y1="456.75" x2="236.05" y2="473.18"/><polyline class="cls-3" points="235 472.66 243.78 477.67 243.78 479.41"/><line class="cls-3" x1="243.78" y1="477.67" x2="243.89" y2="461.36"/><polygon class="cls-3" points="236.38 461.73 236.38 460.96 237.58 461.73 237.58 462.32 236.38 461.73"/><path class="cls-3" d="M259.6,555.58l0,17.94a.13.13,0,0,0,.2.11l1.34-.74-.11-16.51" transform="translate(-2.06 -85.96)"/><line class="cls-3" x1="260.09" y1="471.02" x2="260.22" y2="487.45"/><polyline class="cls-3" points="259.11 486.93 268.37 491.94 268.37 493.68"/><line class="cls-3" x1="268.37" y1="491.94" x2="268.49" y2="475.63"/><polygon class="cls-3" points="260.57 476 260.57 475.23 261.83 476 261.83 476.6 260.57 476"/><path class="cls-3" d="M286.33,570.75l0,17.94a.14.14,0,0,0,.21.11l1.37-.74-.11-16.51" transform="translate(-2.06 -85.96)"/><line class="cls-3" x1="286.89" y1="486.19" x2="287.03" y2="502.62"/><polyline class="cls-3" points="285.88 502.1 295.28 507.11 295.28 508.85"/><line class="cls-3" x1="295.28" y1="507.11" x2="295.41" y2="490.8"/><polygon class="cls-3" points="287.38 491.17 287.38 490.4 288.68 491.17 288.68 491.77 287.38 491.17"/><path class="cls-3" d="M320.42,590.33l0,17.94a.12.12,0,0,0,.19.11l1.27-.74-.11-16.51" transform="translate(-2.06 -85.96)"/><line class="cls-3" x1="320.78" y1="505.77" x2="320.9" y2="522.2"/><polyline class="cls-3" points="319.85 521.68 328.63 526.69 328.63 528.43"/><line class="cls-3" x1="328.63" y1="526.69" x2="328.74" y2="510.38"/><polygon class="cls-3" points="321.23 510.75 321.23 509.98 322.43 510.75 322.43 511.35 321.23 510.75"/><line class="cls-3" x1="109.76" y1="418.63" x2="139.82" y2="401.16"/><polyline class="cls-3" points="121.41 390.51 121.41 404.82 133.78 397.67"/><line class="cls-3" x1="121.41" y1="399.58" x2="129.34" y2="395.1"/><polyline class="cls-3" points="128.11 394.38 122.75 397.67 122.75 391.29"/><polyline class="cls-3" points="116.26 346.31 116.26 364.79 132.47 355.7"/><line class="cls-3" x1="116.26" y1="360.14" x2="128.33" y2="353.3"/><polyline class="cls-3" points="117.36 346.95 117.36 358.33 127.17 352.64"/><line class="cls-3" x1="124.7" y1="138.49" x2="125.38" y2="283.07"/><polyline class="cls-3" points="412.49 122.32 421.64 116.83 567.72 202.54"/><polyline class="cls-3" points="409.08 118.95 423.22 111.14 570.79 197.6"/><line class="cls-3" x1="682.58" y1="241.97" x2="706.36" y2="257.86"/><polyline class="cls-3" points="875 511.05 897.94 523.88 473.54 770.53 449.68 756.63 875 511.05 875 459.51 868.02 462.28"/><polyline class="cls-3" points="449.68 760.84 473.73 775.22 897.94 528.06 897.94 523.88"/><polygon class="cls-3" points="414.26 776.56 414.26 755.85 436.97 742.67 436.97 763.66 414.26 776.56"/><polyline class="cls-3" points="438.51 765.02 415.62 777.74 415.53 779.01"/><polyline class="cls-3" points="415.62 777.74 414.26 776.56 414.26 777.46 415.53 779.01 438.51 766.02 438.51 765.02 436.97 763.66"/><polygon class="cls-3" points="415.53 756.21 415.53 774.1 421.43 770.53 421.43 753.03 415.53 756.21"/><polygon class="cls-3" points="422.89 752.03 422.89 770.02 428.52 766.75 428.52 749.12 422.89 752.03"/><polygon class="cls-3" points="429.97 748.12 429.97 765.93 435.69 762.66 435.69 744.95 429.97 748.12"/><polyline class="cls-3" points="411.64 831.69 411.64 791.09 443.23 773.01 443.23 813.97"/><line class="cls-3" x1="427.98" y1="822.52" x2="427.98" y2="781.45"/><polygon class="cls-3" points="414.26 827.7 427.02 820.16 427.02 785.28 414.26 792.36 414.26 827.7"/><polygon class="cls-3" points="429.06 819.34 429.06 784.37 441.87 776.56 441.87 812.35 429.06 819.34"/><polygon class="cls-3" points="429.88 800.9 429.88 804.08 432.61 802.49 432.61 799.54 429.88 800.9"/><polyline class="cls-3" points="449.68 810.35 884.59 561.11 884.59 535.84"/><polyline class="cls-3" points="877.84 539.77 877.84 559.75 847.09 576.69 847.09 557.69 848 557.16 848.1 574.73 876.99 558.73 876.92 540.31"/><polyline class="cls-3" points="869.21 544.8 869.21 554.35 876.99 558.73"/><line class="cls-3" x1="869.21" y1="554.35" x2="848.05" y2="566.43"/><polyline class="cls-3" points="843.44 559.82 843.44 580.03 812.69 596.97 812.69 577.97 813.6 577.44 813.71 595.01 842.59 579.01 842.52 560.35"/><polyline class="cls-3" points="834.81 564.84 834.81 574.63 842.59 579.01"/><line class="cls-3" x1="834.81" y1="574.63" x2="813.66" y2="586.71"/><polyline class="cls-3" points="782.59 595.18 782.59 615.16 751.84 632.1 751.84 613.1 752.74 612.57 752.85 630.14 781.74 614.14 781.67 595.72"/><polyline class="cls-3" points="773.96 600.21 773.96 609.76 781.74 614.14"/><line class="cls-3" x1="773.96" y1="609.76" x2="752.8" y2="621.84"/><polyline class="cls-3" points="702.61 641.87 702.61 662.07 671.86 679.01 671.86 660.01 672.77 659.49 672.87 677.05 701.76 661.06 701.69 642.4"/><polyline class="cls-3" points="693.98 646.8 693.98 656.67 701.76 661.06"/><line class="cls-3" x1="693.98" y1="656.67" x2="672.82" y2="668.75"/><polyline class="cls-3" points="666.09 663.19 666.09 683.16 635.34 700.1 635.34 681.11 636.24 680.58 636.35 698.15 665.23 682.15 665.17 663.73"/><polyline class="cls-3" points="657.46 668.22 657.46 677.76 665.23 682.15"/><line class="cls-3" x1="657.46" y1="677.76" x2="636.3" y2="689.84"/><polyline class="cls-3" points="627.81 685.46 627.81 705.43 597.06 722.37 597.06 703.37 597.96 702.85 598.07 720.41 626.96 704.42 626.89 685.99"/><polyline class="cls-3" points="619.18 690.49 619.18 700.03 626.96 704.42"/><line class="cls-3" x1="619.18" y1="700.03" x2="598.02" y2="712.11"/><polyline class="cls-3" points="567.69 720.47 567.69 740.76 536.95 757.7 536.95 738.71 537.85 738.18 537.96 755.75 566.84 739.75 566.77 721.01"/><polyline class="cls-3" points="559.06 725.5 559.06 735.37 566.84 739.75"/><line class="cls-3" x1="559.06" y1="735.37" x2="537.91" y2="747.44"/><polyline class="cls-3" points="529.92 742.52 529.92 762.5 499.17 779.44 499.17 760.44 500.08 759.91 500.18 777.48 529.07 761.48 529 743.06"/><polyline class="cls-3" points="521.29 747.55 521.29 757.1 529.07 761.48"/><line class="cls-3" x1="521.29" y1="757.1" x2="500.13" y2="769.18"/><polygon class="cls-3" points="572.87 717.46 572.87 739.75 574.03 739.09 574.01 716.79 572.87 717.46"/><line class="cls-3" x1="582.75" y1="711.7" x2="582.75" y2="734.09"/><line class="cls-3" x1="592.8" y1="705.84" x2="592.8" y2="728.27"/><line class="cls-3" x1="591.37" y1="729.15" x2="591.37" y2="706.68"/><polyline class="cls-3" points="583.53 711.25 583.53 724.02 591.37 728.27"/><polyline class="cls-3" points="725.56 628.5 730.2 631.09 730.2 646.8 717.51 654.37 717.29 633.31"/><line class="cls-3" x1="730.2" y1="631.09" x2="730.2" y2="625.79"/><polyline class="cls-3" points="731.9 624.8 732.24 646.23 745.01 639.23 745.01 617.16"/><line class="cls-3" x1="732.01" y1="632.1" x2="745.01" y2="639.23"/><line class="cls-3" x1="746.42" y1="616.34" x2="746.42" y2="640.29"/><line class="cls-3" x1="715.24" y1="634.51" x2="715.24" y2="658.16"/><polygon class="cls-3" points="419.28 803.3 419.28 801.42 417.23 800.37 417.23 797.95 414.91 796.67 414.91 794.29 414.26 793.96 414.26 798.63 415.41 799.27 415.41 801.25 419.28 803.3"/><line class="cls-3" x1="419.28" y1="803.3" x2="427.02" y2="798.88"/><line class="cls-3" x1="419.28" y1="801.42" x2="427.02" y2="796.78"/><path class="cls-3" d="M428.85,878.19l-2.26-1.25L417,882.63l2.32,1.28,9.56-5.46A.15.15,0,0,0,428.85,878.19Z" transform="translate(-2.06 -85.96)"/><line class="cls-3" x1="426.87" y1="794.9" x2="417.23" y2="800.37"/><path class="cls-3" d="M417,880.25l9.5-5.56a.15.15,0,0,1,.22.13l-.1,2.12" transform="translate(-2.06 -85.96)"/><line class="cls-3" x1="424.63" y1="788.86" x2="423.15" y2="787.42"/><polygon class="cls-3" points="367.36 692.95 344.66 679.43 344.66 675.19 370.74 690.88 367.36 692.95"/><polygon class="cls-3" points="344.66 675.19 334.84 668.7 332.23 670.26 342.67 676.39 344.66 675.19"/><polyline class="cls-3" points="332.91 670.66 332.91 673.19 330.68 674.31 330.68 676.95 328.68 678.15 328.68 680.87 326.28 682.14 326.28 684.92 324.12 686.14 324.12 688.54 321.88 689.74 321.88 692.46 319.65 693.89 319.65 696.05 317.71 697.35 327.21 702.88 329.08 701.73 329.16 699.25 331.4 698.13 331.56 695.57 333.79 694.29 333.79 691.82 336.11 690.62 336.11 688.06 338.45 686.77 338.45 683.74 340.51 682.62 340.51 680.31 342.59 679.03 342.67 676.39"/><line class="cls-3" x1="332.91" y1="673.19" x2="342.59" y2="679.03"/><line class="cls-3" x1="330.68" y1="674.31" x2="340.51" y2="680.31"/><line class="cls-3" x1="330.68" y1="676.95" x2="340.51" y2="682.62"/><line class="cls-3" x1="328.68" y1="678.15" x2="338.45" y2="683.74"/><line class="cls-3" x1="328.68" y1="680.87" x2="338.45" y2="686.77"/><line class="cls-3" x1="326.28" y1="682.14" x2="336.11" y2="688.06"/><line class="cls-3" x1="326.28" y1="684.92" x2="336.11" y2="690.62"/><line class="cls-3" x1="324.12" y1="686.14" x2="333.79" y2="691.82"/><line class="cls-3" x1="324.12" y1="688.54" x2="333.79" y2="694.29"/><line class="cls-3" x1="321.88" y1="689.74" x2="331.56" y2="695.57"/><line class="cls-3" x1="321.88" y1="692.46" x2="331.4" y2="698.13"/><line class="cls-3" x1="319.65" y1="693.89" x2="329.16" y2="699.25"/><line class="cls-3" x1="319.65" y1="696.05" x2="329.08" y2="701.73"/><polyline class="cls-3" points="328.68 703.74 331.2 702.45 331.2 700.61 333.31 699.25 333.31 697.57 336.11 696.05 336.11 692.46 338.45 691.02 338.45 688.54 340.51 687.17 340.51 684.54 342.27 683.74 342.27 680.87 344.66 679.43 347.95 681.38 347.95 704.8"/><polyline class="cls-3" points="267.27 257.9 267.27 286.29 270.86 288.78 277.37 282.91 277.37 238.06"/><line class="cls-3" x1="254.18" y1="265.4" x2="267.28" y2="273.34"/><line class="cls-3" x1="212.63" y1="236.35" x2="212.63" y2="271.38"/><polyline class="cls-3" points="214.44 270.28 214.44 262.45 220.86 266.37"/><line class="cls-3" x1="216.28" y1="263.58" x2="216.28" y2="269.37"/><polygon class="cls-3" points="151.41 191.81 151.41 174.88 139.08 167.51 139.08 184.68 151.41 191.81"/><polyline class="cls-3" points="140.32 168.25 140.32 183.59 145.85 186.73 145.85 171.56"/><polyline class="cls-3" points="147.41 172.49 147.41 187.58 151.41 189.88"/><polyline class="cls-3" points="150.53 194.22 150.53 192.87 151.41 191.81 151.41 193.35 150.53 194.22 137.76 187.1 137.76 185.75 139.08 184.68"/><line class="cls-3" x1="150.53" y1="192.87" x2="137.76" y2="185.75"/><polygon class="cls-3" points="180.44 207.2 180.44 190.27 168.1 182.9 168.1 200.07 180.44 207.2"/><polyline class="cls-3" points="169.35 183.64 169.35 198.98 174.88 202.12 174.88 186.94"/><polyline class="cls-3" points="176.43 187.88 176.43 202.97 180.44 205.27"/><polyline class="cls-3" points="179.56 209.6 179.56 208.26 180.44 207.2 180.44 208.74 179.56 209.6 166.79 202.49 166.79 201.14 168.1 200.07"/><line class="cls-3" x1="179.56" y1="208.26" x2="166.79" y2="201.14"/><polygon class="cls-3" points="151.61 233.91 151.61 216.98 139.27 209.6 139.27 226.78 151.61 233.91"/><polyline class="cls-3" points="140.52 210.35 140.52 225.69 146.04 228.83 146.04 213.66"/><polyline class="cls-3" points="147.6 214.59 147.6 229.68 151.61 231.98"/><polyline class="cls-3" points="150.73 236.31 150.73 234.97 151.61 233.91 151.61 235.45 150.73 236.31 137.96 229.2 137.96 227.85 139.27 226.78"/><line class="cls-3" x1="150.73" y1="234.97" x2="137.96" y2="227.85"/><polygon class="cls-3" points="180.1 248.81 180.1 231.88 167.77 224.5 167.77 241.68 180.1 248.81"/><polyline class="cls-3" points="169.02 225.25 169.02 240.59 174.54 243.73 174.54 228.55"/><polyline class="cls-3" points="176.1 229.49 176.1 244.58 180.1 246.88"/><polyline class="cls-3" points="179.23 251.21 179.23 249.87 180.1 248.81 180.1 250.35 179.23 251.21 166.45 244.1 166.45 242.75 167.77 241.68"/><line class="cls-3" x1="179.23" y1="249.87" x2="166.45" y2="242.75"/><polyline class="cls-3" points="151.61 267.45 151.61 258.63 139.27 251.21 139.27 268.19 144.6 271.53"/><polyline class="cls-3" points="139.27 268.19 137.96 269.37 137.96 270.73 141.84 273.14"/><line class="cls-3" x1="137.96" y1="269.37" x2="143.28" y2="272.3"/><line class="cls-3" x1="147.17" y1="255.96" x2="147.17" y2="270.28"/><polyline class="cls-3" points="140.52 251.96 140.52 267.19 145.44 270.28 145.44 254.92"/><line class="cls-3" x1="277.37" y1="282.91" x2="330.16" y2="307.85"/><polyline class="cls-3" points="270.86 288.78 270.86 256.06 249.96 268.4 250.02 299.43"/><polyline class="cls-3" points="330.16 268.77 334.1 265.96 334.35 213.38 294.67 150.15 244.87 178.43 244.4 213.38"/><polyline class="cls-3" points="471.9 194.7 471.9 161.23 480.82 156.56 490.64 162.12 490.64 194.7 480.6 188.01 480.82 156.56 480.92 153.81 479.27 152.72 434.35 178.08"/><polygon class="cls-3" points="488.41 191.58 488.89 163.13 481.94 158.88 481.94 187.45 488.41 191.58"/><polyline class="cls-3" points="472.45 193.29 470.95 194.18 473.2 195.47 473.18 182.39"/><polygon class="cls-3" points="473.2 181.34 472.45 181.95 472.45 195 473.2 195.47 473.91 195 473.91 181.88 473.2 181.34"/><polyline class="cls-3" points="472.45 181.95 473.18 182.39 473.91 181.88"/><polygon class="cls-3" points="479.75 193.1 479 193.71 479 206.76 479.75 207.24 480.47 206.76 480.47 193.65 479.75 193.1"/><polyline class="cls-3" points="479 193.71 479.74 194.16 480.47 193.65"/><polygon class="cls-3" points="488.88 208.14 488.13 208.76 488.13 221.81 488.88 222.28 489.6 221.81 489.6 208.69 488.88 208.14"/><polyline class="cls-3" points="488.13 208.76 488.87 209.2 489.6 208.69"/><polyline class="cls-3" points="488.87 209.2 488.88 222.28 488.87 224.86 490.57 225.92 490.57 228.45 493.04 229.81 493.04 232.14 495.01 233.15 495.01 236.18 496.74 237.06"/><polygon class="cls-3" points="497.48 223.4 496.74 224.01 496.74 237.06 497.48 237.54 498.2 237.06 498.2 223.94 497.48 223.4"/><polyline class="cls-3" points="496.74 224.01 497.47 224.46 498.2 223.94"/><line class="cls-3" x1="497.48" y1="237.54" x2="497.47" y2="224.45"/><polyline class="cls-3" points="505.81 250.94 505.6 238.91 506.35 238.23 507.13 238.74 507.13 250.16"/><line class="cls-3" x1="506.37" y1="239.39" x2="506.57" y2="250.49"/><polyline class="cls-3" points="479.74 194.16 479.75 207.24 477.38 205.81 477.38 202.93 475.3 201.72 475.3 199.39 473.18 198.18 473.2 195.47"/><polyline class="cls-3" points="479.75 207.24 479.75 209.85 481.94 211.01 481.94 213.54 484.35 214.7 484.35 217.13 486.73 218.39 486.73 220.87 488.13 221.81"/><polyline class="cls-3" points="497.21 237.37 497.21 239.94 499.64 241.4 499.64 243.77 501.87 244.94 501.87 247.62 504.38 248.85 504.45 251.75"/><polyline class="cls-3" points="504.11 252.79 502.46 251.95 502.46 250.04 500.05 248.71 500.05 246.87 497.48 245.34 497.48 244.56"/><polyline class="cls-3" points="472.07 178.37 472.45 178.08 508.72 237.54 507.91 238.05 471.9 178.72"/><line class="cls-3" x1="473.91" y1="185.97" x2="479" y2="194.16"/><line class="cls-3" x1="480.47" y1="196.84" x2="488.13" y2="209.54"/><line class="cls-3" x1="489.6" y1="212.21" x2="496.85" y2="224.45"/><polyline class="cls-3" points="498.2 226.75 505.6 238.91 506.37 239.39 507.13 238.74"/><polyline class="cls-3" points="507.91 238.05 507.91 243.2 507.13 241.8"/><polyline class="cls-3" points="508.72 237.54 508.95 242.26 507.91 243.2"/><line class="cls-3" x1="473.91" y1="192.37" x2="476.85" y2="190.69"/><line class="cls-3" x1="479.27" y1="189.27" x2="481.2" y2="188.4"/><line class="cls-3" x1="473.91" y1="195" x2="478.05" y2="192.62"/><line class="cls-3" x1="480.47" y1="191.23" x2="483.09" y2="189.67"/><polyline class="cls-3" points="482.42 190.06 482.83 192.37 485.41 193.42 485.41 196.15 487.38 197.26 487.38 199.81 489.6 201.2 489.6 203.82 491.94 205.15 491.94 207.59 494.05 208.94 494.05 211.37 496.22 212.87 496.22 215.04 498.2 216.15 498.2 218.71 500.5 220.04 500.5 222.6 502.94 223.94 502.94 226.43 504.83 227.44 504.83 230.16 507.13 231.6 507.13 234.1 509.39 235.56 509.39 238.05 511.73 239.16 511.73 241.83 513.84 243.2 513.84 245.5 514.48 245.8"/><line class="cls-3" x1="473.18" y1="198.18" x2="479" y2="194.7"/><line class="cls-3" x1="482.83" y1="192.37" x2="481.61" y2="193.1"/><line class="cls-3" x1="485.41" y1="193.42" x2="482.83" y2="195.1"/><line class="cls-3" x1="485.41" y1="196.15" x2="483.94" y2="196.93"/><line class="cls-3" x1="487.38" y1="197.26" x2="485.02" y2="198.69"/><line class="cls-3" x1="487.38" y1="199.81" x2="486.2" y2="200.63"/><line class="cls-3" x1="489.6" y1="201.2" x2="487.38" y2="202.57"/><line class="cls-3" x1="489.6" y1="203.82" x2="488.49" y2="204.38"/><line class="cls-3" x1="491.94" y1="205.15" x2="489.8" y2="206.52"/><line class="cls-3" x1="491.94" y1="207.59" x2="490.87" y2="208.14"/><line class="cls-3" x1="494.05" y1="208.94" x2="491.94" y2="210.04"/><line class="cls-3" x1="494.05" y1="211.37" x2="493.06" y2="211.87"/><line class="cls-3" x1="496.22" y1="212.87" x2="494.4" y2="214.07"/><line class="cls-3" x1="496.22" y1="215.04" x2="495.44" y2="215.78"/><line class="cls-3" x1="498.2" y1="216.15" x2="496.39" y2="217.33"/><line class="cls-3" x1="498.2" y1="218.71" x2="497.48" y2="219.12"/><line class="cls-3" x1="500.5" y1="220.04" x2="498.7" y2="221.12"/><line class="cls-3" x1="500.5" y1="222.6" x2="499.93" y2="223.13"/><line class="cls-3" x1="502.95" y1="223.94" x2="501.1" y2="225.05"/><line class="cls-3" x1="502.95" y1="226.43" x2="502.14" y2="226.75"/><line class="cls-3" x1="504.83" y1="227.43" x2="503.14" y2="228.4"/><line class="cls-3" x1="504.83" y1="230.16" x2="504.4" y2="230.47"/><line class="cls-3" x1="507.13" y1="231.6" x2="505.6" y2="232.43"/><line class="cls-3" x1="509.39" y1="235.56" x2="507.99" y2="236.35"/><line class="cls-3" x1="509.39" y1="238.05" x2="508.75" y2="238.23"/><line class="cls-3" x1="511.73" y1="239.16" x2="508.89" y2="241"/><line class="cls-3" x1="513.84" y1="243.2" x2="507.13" y2="247"/><line class="cls-3" x1="511.73" y1="241.83" x2="507.13" y2="244.59"/><line class="cls-3" x1="479" y1="197.26" x2="475.3" y2="199.39"/><line class="cls-3" x1="475.3" y1="201.72" x2="479" y2="199.39"/><line class="cls-3" x1="480.47" y1="198.69" x2="481.37" y2="198.32"/><line class="cls-3" x1="477.38" y1="202.93" x2="479" y2="201.89"/><line class="cls-3" x1="480.47" y1="201.2" x2="482.42" y2="200.08"/><line class="cls-3" x1="477.38" y1="205.81" x2="479" y2="204.77"/><line class="cls-3" x1="480.47" y1="204.1" x2="483.65" y2="202.11"/><line class="cls-3" x1="480.47" y1="206.76" x2="484.85" y2="204.1"/><line class="cls-3" x1="479.75" y1="209.85" x2="486.08" y2="206.14"/><line class="cls-3" x1="481.94" y1="211.01" x2="487.2" y2="208"/><line class="cls-3" x1="481.94" y1="213.54" x2="488.13" y2="210.04"/><line class="cls-3" x1="484.35" y1="214.7" x2="488.13" y2="212.5"/><line class="cls-3" x1="489.6" y1="214.07" x2="490.38" y2="213.54"/><line class="cls-3" x1="484.35" y1="217.13" x2="488.13" y2="214.87"/><line class="cls-3" x1="486.73" y1="218.39" x2="488.13" y2="217.68"/><line class="cls-3" x1="489.6" y1="217.13" x2="491.94" y2="215.78"/><line class="cls-3" x1="486.73" y1="220.87" x2="488.13" y2="220.04"/><line class="cls-3" x1="489.6" y1="219.12" x2="492.63" y2="217.33"/><line class="cls-3" x1="489.6" y1="221.41" x2="493.57" y2="218.92"/><line class="cls-3" x1="488.87" y1="224.86" x2="494.88" y2="221.12"/><line class="cls-3" x1="490.57" y1="225.92" x2="495.91" y2="222.86"/><line class="cls-3" x1="490.57" y1="228.45" x2="496.73" y2="224.86"/><line class="cls-3" x1="493.04" y1="229.81" x2="496.73" y2="227.68"/><line class="cls-3" x1="493.04" y1="232.14" x2="496.73" y2="230"/><line class="cls-3" x1="498.2" y1="229.2" x2="499.23" y2="228.45"/><line class="cls-3" x1="495.01" y1="233.15" x2="496.73" y2="232.29"/><line class="cls-3" x1="498.2" y1="231.6" x2="500.37" y2="230.31"/><line class="cls-3" x1="495.01" y1="236.18" x2="496.73" y2="235.25"/><line class="cls-3" x1="498.2" y1="234.35" x2="501.57" y2="232.29"/><line class="cls-3" x1="498.2" y1="236.77" x2="502.67" y2="234.24"/><line class="cls-3" x1="497.21" y1="239.94" x2="503.86" y2="236.06"/><line class="cls-3" x1="499.64" y1="241.4" x2="505.18" y2="238.23"/><line class="cls-3" x1="499.64" y1="243.77" x2="505.6" y2="240.37"/><line class="cls-3" x1="501.87" y1="244.94" x2="505.67" y2="242.91"/><line class="cls-3" x1="501.87" y1="247.62" x2="505.67" y2="245.39"/><line class="cls-3" x1="504.38" y1="248.85" x2="505.75" y2="247.98"/><ellipse class="cls-3" cx="493.17" cy="237.71" rx="2.01" ry="1.15"/><ellipse class="cls-3" cx="493.17" cy="236.13" rx="0.78" ry="0.43"/><ellipse class="cls-3" cx="493.17" cy="237.7" rx="0.78" ry="0.43"/><line class="cls-3" x1="492.38" y1="237.7" x2="492.38" y2="236.13"/><line class="cls-3" x1="493.95" y1="237.7" x2="493.95" y2="236.13"/><ellipse class="cls-3" cx="493.16" cy="239.39" rx="2.01" ry="0.53"/><polyline class="cls-3" points="495.18 237.71 495.17 238.76 495.17 239.39"/><path class="cls-3" d="M497.23,324.73a5.18,5.18,0,0,1,1.92,5,.45.45,0,0,1-.18.29c-.74.55-4.21,2.81-7.51,0a.67.67,0,0,1-.22-.54c.09-1.07.47-4.16,2-4.55" transform="translate(-2.06 -85.96)"/><ellipse class="cls-3" cx="470.33" cy="250.38" rx="2.01" ry="1.15"/><ellipse class="cls-3" cx="470.33" cy="248.8" rx="0.78" ry="0.43"/><ellipse class="cls-3" cx="470.33" cy="250.37" rx="0.78" ry="0.43"/><line class="cls-3" x1="469.55" y1="250.37" x2="469.55" y2="248.8"/><line class="cls-3" x1="471.11" y1="250.37" x2="471.11" y2="248.8"/><ellipse class="cls-3" cx="470.33" cy="252.06" rx="2.01" ry="0.53"/><polyline class="cls-3" points="468.32 250.38 468.31 251.44 468.31 252.06"/><polyline class="cls-3" points="472.34 250.38 472.34 251.44 472.34 252.06"/><path class="cls-3" d="M474.39,337.4a5.18,5.18,0,0,1,1.93,5,.45.45,0,0,1-.18.29c-.74.55-4.21,2.81-7.51,0a.61.61,0,0,1-.22-.54c.09-1.07.47-4.16,2-4.55" transform="translate(-2.06 -85.96)"/><polyline class="cls-3" points="519.21 211.75 493.17 236.13 470.33 248.8 445.9 252.59"/><ellipse class="cls-3" cx="520" cy="279.85" rx="2.01" ry="1.15"/><ellipse class="cls-3" cx="520" cy="278.27" rx="0.78" ry="0.43"/><ellipse class="cls-3" cx="520" cy="279.84" rx="0.78" ry="0.43"/><line class="cls-3" x1="519.21" y1="279.84" x2="519.21" y2="278.27"/><line class="cls-3" x1="520.78" y1="279.84" x2="520.78" y2="278.27"/><ellipse class="cls-3" cx="519.99" cy="281.53" rx="2.01" ry="0.53"/><polyline class="cls-3" points="517.98 279.85 517.98 280.9 517.98 281.53"/><polyline class="cls-3" points="522.01 279.85 522 280.9 522 281.53"/><path class="cls-3" d="M524.06,366.86a5.18,5.18,0,0,1,1.92,5,.43.43,0,0,1-.18.29c-.74.55-4.21,2.81-7.51,0a.67.67,0,0,1-.22-.54c.09-1.07.47-4.16,2-4.56" transform="translate(-2.06 -85.96)"/><ellipse class="cls-3" cx="495.17" cy="264.92" rx="2.01" ry="1.15"/><ellipse class="cls-3" cx="495.17" cy="263.35" rx="0.78" ry="0.43"/><ellipse class="cls-3" cx="495.17" cy="264.92" rx="0.78" ry="0.43"/><line class="cls-3" x1="494.39" y1="264.92" x2="494.39" y2="263.35"/><line class="cls-3" x1="495.95" y1="264.92" x2="495.95" y2="263.35"/><ellipse class="cls-3" cx="495.16" cy="266.61" rx="2.01" ry="0.53"/><polyline class="cls-3" points="493.16 264.93 493.15 265.98 493.15 266.61"/><path class="cls-3" d="M499.23,351.94a5.18,5.18,0,0,1,1.92,5,.43.43,0,0,1-.18.29c-.74.55-4.21,2.81-7.51,0a.68.68,0,0,1-.22-.54c.09-1.07.47-4.17,2-4.56" transform="translate(-2.06 -85.96)"/><polyline class="cls-3" points="522 277.44 520 278.27 496.37 281.53"/><polyline class="cls-3" points="504.11 259.05 495.17 263.35 471.7 267.55"/><line class="cls-3" x1="520" y1="277.84" x2="510.9" y2="272.89"/><polyline class="cls-3" points="503.77 268.71 497.18 264.93 497.17 265.98 497.17 266.61"/><line class="cls-3" x1="494.39" y1="263.35" x2="470.33" y2="248.8"/><line class="cls-3" x1="434.35" y1="179.9" x2="480.92" y2="153.81"/><polygon class="cls-3" points="434.7 214.7 434.7 181.88 448.74 173.71 448.74 206.76 434.7 214.7"/><polyline class="cls-3" points="470.95 194.18 450.84 205.43 450.84 172.96 470.48 161.87 470.95 194.18 471.2 198.45 473.62 199.85 473.62 202.54 475.46 203.6 475.46 206.52 477.62 207.66 477.62 210.33 479.75 211.48 479.75 214.84 482.45 216.5 482.45 218.34 484.8 219.67 484.8 221.52 486.83 222.6 486.83 225.58 488.87 226.4 488.87 228.95 491.09 230.03 491.09 232.89 493.06 233.97 493.06 235.56"/><line class="cls-3" x1="523.31" y1="652.45" x2="506.2" y2="666.26"/><polyline class="cls-3" points="503.84 667.99 480.46 687.4 478.53 689.08"/><polyline class="cls-3" points="476.32 690.82 467.37 697.73 463.2 695.89 463.2 687.9 459.09 685.62 442.43 699.09 473.01 717.46 476.32 715.52 448.82 699.43 463.2 687.9"/><polyline class="cls-3" points="494.03 639.65 485.89 644.45 478.45 640.04 478.45 637.42 486.16 632.93 495.48 627.51 495.61 634.05"/><line class="cls-3" x1="485.89" y1="644.45" x2="485.69" y2="633.1"/><line class="cls-3" x1="478.04" y1="614.82" x2="478.04" y2="625.15"/><polyline class="cls-3" points="442.99 594.69 442.99 609.76 475.58 627.51"/><line class="cls-3" x1="442.99" y1="596.61" x2="478.04" y2="616.7"/><line class="cls-3" x1="401.8" y1="635.83" x2="442.99" y2="609.76"/><polyline class="cls-3" points="370.74 648.98 378.56 644.45 393.16 649.55 396.8 645.15 377.63 638.14 365.15 645.73"/><polyline class="cls-3" points="393.16 649.55 393.59 660.98 396.8 658.39 396.8 645.15"/><line class="cls-3" x1="378.56" y1="644.45" x2="378.54" y2="653.51"/><line class="cls-3" x1="391.41" y1="660.98" x2="393.59" y2="660.98"/><polyline class="cls-3" points="398.11 671.16 407.58 656.97 401.81 654.46 407.58 650.06 419.9 654.16 416.8 660.4"/><line class="cls-3" x1="401.81" y1="654.46" x2="401.8" y2="665.63"/><polyline class="cls-3" points="388.61 664.68 388.61 676.63 393.59 673.76 392.97 661.88"/><polyline class="cls-3" points="420.15 671.34 420.15 690.12 416.92 691.9 413.14 689.73 413.14 675.31"/><line class="cls-3" x1="416.92" y1="673.21" x2="416.92" y2="691.9"/><polyline class="cls-3" points="396.8 706.73 409.88 699.4 403.34 695.45 396.8 699.4"/><polyline class="cls-3" points="396.8 720.04 409.88 712.54 409.88 699.4"/><polyline class="cls-3" points="402.48 681.62 412.06 689.08 413.14 688.54"/><line class="cls-3" x1="411.58" y1="676.32" x2="413.14" y2="677.55"/><polyline class="cls-3" points="420.15 674.42 435.17 685.35 419.9 694.66 411.59 689.47 412.06 689.08"/><polyline class="cls-3" points="435.17 685.35 435.17 697.86 419.9 706.73 411.59 701.92 411.59 689.47"/><line class="cls-3" x1="419.9" y1="694.66" x2="419.9" y2="706.73"/><polyline class="cls-3" points="476.32 715.52 477.57 723.14 483.25 719.92 483.25 723.9"/><line class="cls-3" x1="476.42" y1="716.09" x2="483.25" y2="719.92"/><polyline class="cls-3" points="442.43 699.09 442.43 716.09 473.2 733.26 473.01 717.46"/><polygon class="cls-3" points="285.44 618.14 306.57 630.26 306.57 610.84 285.44 598.85 285.44 618.14"/><polyline class="cls-3" points="305.63 633.02 305.63 631.69 306.57 630.26 306.57 631.91 305.63 633.02 284.21 620.72 284.21 619.74 285.44 618.14"/><line class="cls-3" x1="284.21" y1="619.74" x2="305.63" y2="631.69"/><polygon class="cls-3" points="286.74 600.95 292.12 604.07 292.12 620.46 286.74 617.58 286.74 600.95"/><polygon class="cls-3" points="293.52 621.31 293.52 604.74 298.53 607.68 298.53 624.18 293.52 621.31"/><polygon class="cls-3" points="300.25 624.92 300.25 608.53 305.38 611.35 305.38 628.16 300.25 624.92"/><polygon class="cls-3" points="316.33 635.7 337.46 647.82 337.46 628.4 316.33 616.4 316.33 635.7"/><polyline class="cls-3" points="336.52 650.58 336.52 649.25 337.46 647.82 337.46 649.47 336.52 650.58 315.1 638.27 315.1 637.29 316.33 635.7"/><line class="cls-3" x1="315.1" y1="637.29" x2="336.52" y2="649.25"/><polygon class="cls-3" points="317.62 618.51 323 621.63 323 638.02 317.62 635.14 317.62 618.51"/><polygon class="cls-3" points="324.41 638.87 324.41 622.3 329.42 625.24 329.42 641.74 324.41 638.87"/><polygon class="cls-3" points="331.13 642.48 331.13 626.09 336.27 628.9 336.27 645.72 331.13 642.48"/><polygon class="cls-3" points="285.44 652.08 306.57 664.21 306.57 644.78 285.44 632.79 285.44 652.08"/><polyline class="cls-3" points="305.63 666.97 305.63 665.64 306.57 664.21 306.57 665.86 305.63 666.97 284.21 654.66 284.21 653.68 285.44 652.08"/><line class="cls-3" x1="284.21" y1="653.68" x2="305.63" y2="665.64"/><polygon class="cls-3" points="286.74 634.9 292.12 638.02 292.12 654.41 286.74 651.53 286.74 634.9"/><polygon class="cls-3" points="293.52 655.26 293.52 638.69 298.53 641.62 298.53 658.13 293.52 655.26"/><polygon class="cls-3" points="300.25 658.86 300.25 642.48 305.38 645.29 305.38 662.1 300.25 658.86"/><polyline class="cls-3" points="336.52 662.31 316.33 651.09 316.33 670.66 319.12 672.04"/><polyline class="cls-3" points="316.33 670.66 315.1 671.5 315.1 672.78 316.57 673.46"/><line class="cls-3" x1="315.1" y1="671.5" x2="317.71" y2="672.83"/><polyline class="cls-3" points="335.4 662.94 331.2 660.58 331 665.4"/><polyline class="cls-3" points="329.73 666.1 329.73 659.66 324.34 656.75 324.34 669.12"/><polyline class="cls-3" points="322.99 669.87 322.99 655.92 317.71 652.98 317.71 669.5 320.56 671.23"/><polyline class="cls-3" points="305.38 679.72 285.68 668.42 285.68 688.06 292.06 691.82"/><polyline class="cls-3" points="285.68 688.06 284.21 688.98 284.21 690.27 292.06 694.59"/><line class="cls-3" x1="284.21" y1="688.98" x2="292.06" y2="693.61"/><polyline class="cls-3" points="292.06 687.17 292.06 673.46 286.8 670.38 286.8 686.77 292.06 689.98"/><polyline class="cls-3" points="298.77 683.41 298.77 677.31 293.52 674.31 293.52 686.35"/><polyline class="cls-3" points="300.25 682.38 300.25 677.97 304.33 680.31"/><polygon class="cls-3" points="549.08 531.25 549.08 502.93 535.2 510.98 535.2 539.41 549.08 531.25"/><polyline class="cls-3" points="498.58 560.94 535.2 539.41 549.08 531.25 562.87 535.84 562.87 506.95 549.08 502.93"/><polygon class="cls-3" points="558.1 523.88 558.1 522.97 560.74 523.42 560.74 524.68 558.1 523.88"/><line class="cls-3" x1="566.03" y1="521.39" x2="562.87" y2="522.97"/><polyline class="cls-3" points="546.59 504.37 546.59 530.17 549.08 531.25"/><line class="cls-3" x1="535.2" y1="522.5" x2="546.59" y2="516.13"/><polyline class="cls-3" points="597.75 498.07 597.75 472.82 613.48 463.75 613.48 494.61 628.72 486.45"/><polyline class="cls-3" points="598.75 498.66 598.75 473.94 612.51 465.91 612.51 494.99 601.94 500.53"/><polygon class="cls-3" points="600.01 492.01 600.01 491.12 601.2 490.67 601.2 491.34 600.01 492.01"/><line class="cls-3" x1="668.74" y1="423.38" x2="668.74" y2="466.46"/><line class="cls-3" x1="667.19" y1="396.66" x2="667.19" y2="422.46"/><polyline class="cls-3" points="807.82 605.1 807.82 580.57 787.92 592.16 787.92 616.51 789.08 615.84 789.08 592.06 806.42 581.88 806.41 605.91"/><line class="cls-3" x1="797.87" y1="586.9" x2="797.87" y2="610.8"/><line class="cls-3" x1="473.54" y1="770.53" x2="473.73" y2="775.22"/><line class="cls-3" x1="691.51" y1="483.69" x2="695.5" y2="481.76"/><line class="cls-3" x1="336.7" y1="431.58" x2="340.02" y2="432.69"/><line class="cls-3" x1="104.94" y1="294.64" x2="109.76" y2="297.1"/><polyline class="cls-3" points="140.62 305.63 140.52 293.5 149.37 298.87"/><polyline class="cls-3" points="145.75 302.72 145.75 296.67 146.91 297.38 146.91 301.94"/><line class="cls-3" x1="561.23" y1="596.61" x2="561" y2="602.2"/><line class="cls-3" x1="678.27" y1="239.56" x2="650.57" y2="282.48"/><polyline class="cls-3" points="674.68 237.56 647.37 280.6 643.43 278.28 670.74 235.36 666.82 233.17 639.35 275.87 635.91 273.85 662.94 231.01 659.58 229.14 632.37 271.76 629.03 269.87 656.17 227.23 652.42 225.14 625.45 267.69 621.43 265.32 648.66 223.04 644.56 220.76 617.79 263.18 614.14 261.02 641.55 219.08 637.25 216.68 610.73 259.02 606.57 256.57 633.69 214.69 630.05 212.66 603.1 254.52 599.62 252.47 626.39 210.62 623.16 208.82 596.3 250.52"/><line class="cls-3" x1="585.04" y1="180.49" x2="555.78" y2="227.54"/><line class="cls-3" x1="588.29" y1="182.34" x2="559.07" y2="229.45"/><line class="cls-3" x1="591.47" y1="184.14" x2="562.1" y2="231.2"/><line class="cls-3" x1="595.15" y1="186.23" x2="565.64" y2="233.25"/><line class="cls-3" x1="598.66" y1="188.22" x2="568.89" y2="235.13"/><line class="cls-3" x1="603.09" y1="190.74" x2="573.68" y2="237.91"/><line class="cls-3" x1="606.57" y1="192.71" x2="576.78" y2="240.08"/><line class="cls-3" x1="609.52" y1="194.38" x2="580.69" y2="241.97"/><line class="cls-3" x1="388" y1="97.82" x2="427.86" y2="160.31"/><polyline class="cls-3" points="421.11 164.15 381.43 101.51 352.46 106.11 349.7 107.9 377.18 103.89 417.17 166.38"/><polyline class="cls-3" points="413.26 168.6 373.22 106.11 346.51 109.71 343.38 111.48 370.03 107.9 409.7 170.62"/><polyline class="cls-3" points="405.95 172.75 366.1 110.1 339.73 113.54 336.66 115.28 362.06 112.37 402.1 174.94"/><polyline class="cls-3" points="398.48 176.99 358.48 114.37 333.26 117.2 329.48 119.34 354.69 116.5 394.92 179.01"/><polyline class="cls-3" points="391.16 181.14 351.39 118.35 325.47 121.61 321.65 123.78 347.47 120.55 387.01 183.49"/><polyline class="cls-3" points="383.33 185.59 343.38 122.84 318.24 125.7 313.48 128.4 339.73 124.89 379.65 187.67"/><polyline class="cls-3" points="361.44 101.26 391.16 96.05 430.94 158.57"/><polyline class="cls-3" points="387.01 97.82 358.48 102.93 356.04 104.32 384.82 99.61 424.67 162.12"/><polyline class="cls-3" points="303.67 133.95 328.22 131.34 324.74 133.29 300.4 135.8 297.15 137.64 320.7 135.14 316.91 137.68 296.16 139.5 295.76 141.38 313.14 139.79 309.39 141.9 295.76 143.05 295.29 145.16 305.33 144.17 301.76 146.18 295.42 146.69 294.92 148.16 297.71 148.44 337.92 211.36 341.95 209.07 301.76 146.18 305.33 144.17 345.44 207.09 349.32 204.88 309.39 141.9 313.14 139.79 353.11 202.74 357.12 200.46 316.91 137.68 320.7 135.14 361.24 198.12 364.81 196.09 324.74 133.29 328.22 131.34 368.13 194.21 372.19 191.91 331.88 129.29 307.97 131.52 310.69 129.97 336.05 126.95 376.03 189.72"/><polyline class="cls-3" points="210.11 88.41 168.1 77.8 127.87 140.31 130.86 142.03 170.89 79.43 174.88 81.74 134.57 144.17 138.36 146.35 178.44 83.81 182.4 86.12 142.5 148.74 145.85 150.66 186.12 88.29 189.27 90.12 149.41 152.72 153.42 155.03 193.42 92.53 197.75 95.05 157.67 157.47 160.78 159.26 200.88 96.87 203.9 98.63 164.68 161.51 168.1 163.43 208.27 101.17 212.05 103.38 172.11 165.79 176.39 168.25 216.1 105.73 219.37 107.64 179.59 169.84 183.74 172.49 223.06 109.79 227.11 112.14 187.45 174.62 190.71 176.5 230.68 114.22 234.16 116.25 194.69 178.79 198.84 181.18 238.49 118.77 241.55 120.55 201.82 182.9 205.79 185.18 245.5 122.84 249.62 125.24 210.11 187.67"/><polyline class="cls-3" points="211.98 89.49 170.89 79.43 174.88 81.74 215.48 91.52 216.73 92.24 178.44 83.81 182.4 86.12 219.18 93.65 221.59 95.05 186.12 88.29 189.27 90.12 225.29 97.19 228.03 98.78 193.42 92.53 197.75 95.05 232.17 101.17 235.15 102.9 200.88 96.87 203.9 98.63 239.65 105.5 241.87 106.78 208.27 101.17 212.05 103.38 246 109.18 249.62 111.27 216.1 105.73 219.37 107.64 253.16 113.32 256.03 114.98 223.06 109.79 227.11 112.14 261.4 118.08 263.95 119.56 230.68 114.22 234.16 116.25 268.82 122.38 271.93 124.18 238.49 118.77 241.55 120.55 275.58 126.29 278.86 128.19 245.5 122.84 249.62 125.24 284.06 131.19 286.72 132.74 251.85 126.54 164.68 75.81"/><polyline class="cls-3" points="258.74 130.33 290.45 134.89 293.11 136.43 262.87 132.61 267.19 135 296.16 138.2 296 139.48 294.67 150.15"/><polyline class="cls-3" points="270.28 136.7 296 139.48 295.76 141.38 274.95 139.27 278.38 141.16 295.76 143.05 295.29 145.16 283.14 143.79 287.17 146.01 295.42 146.69 294.92 148.16 291.06 148.16"/><line class="cls-3" x1="471.2" y1="198.45" x2="434.1" y2="220.16"/><line class="cls-3" x1="446.55" y1="212.87" x2="491.15" y2="237.71"/><line class="cls-3" x1="373.84" y1="374.85" x2="373.84" y2="410.3"/><polyline class="cls-3" points="555.3 484.66 555.3 481.76 569 473.81 569 476.95"/><line class="cls-3" x1="557.76" y1="480.33" x2="557.76" y2="483.22"/><polyline class="cls-3" points="566.45 475.29 566.45 478.38 567.57 477.75 567.57 474.63"/><polyline class="cls-3" points="522.21 468.28 531.35 462.78 531.35 441.49 509.09 454.02 509.09 460.39"/><polyline class="cls-3" points="531.35 462.78 527.21 460.39 518.13 465.91"/><line class="cls-3" x1="527.04" y1="443.92" x2="527.21" y2="460.39"/><polyline class="cls-3" points="525.89 444.56 525.89 459.51 520.88 462.78 520.88 447.38 519.08 448.4 519.08 463.15 516.26 464.82"/><polyline class="cls-3" points="512.41 452.15 512.41 462.56 513.9 463.44 513.9 451.31"/><polyline class="cls-3" points="395.47 438.02 390 434.3 390 441.32"/><line class="cls-3" x1="391.61" y1="435.4" x2="391.61" y2="440.35"/><polyline class="cls-3" points="387.19 443.01 387.19 432.69 374.43 440.06"/><line class="cls-3" x1="384.96" y1="433.98" x2="384.96" y2="444.36"/><line class="cls-3" x1="226.45" y1="368.11" x2="269.71" y2="393.38"/><line class="cls-3" x1="421.64" y1="116.83" x2="421.64" y2="137.55"/><line class="cls-3" x1="553.81" y1="235.25" x2="505.94" y2="265.15"/><line class="cls-3" x1="284.73" y1="430.89" x2="303.06" y2="420.03"/><polyline class="cls-3" points="592.8 248.75 594.25 383.99 572.85 371.16 553.81 382.86"/></g><path class="cls-4" d="M405.09,619.82l-.27.27.48.46" transform="translate(-2.06 -85.96)"/><path class="cls-4" d="M405.45,394.79l-.63-.62c61.9-62.24,164.05-62.53,226.29-.64A160,160,0,0,1,518,667v-.08a158.82,158.82,0,0,1-112.14-45.81" transform="translate(-2.06 -85.96)"/><path class="cls-5" d="M427.92,417.26" transform="translate(-2.06 -85.96)"/><path class="cls-5" d="M451.23,440.57" transform="translate(-2.06 -85.96)"/><path class="cls-4" d="M450.52,574.39l1.14-1.13a93.66,93.66,0,0,0,133.39-.75c35.23-36.12,35.32-94.34.2-130.56a93.65,93.65,0,0,0-133.39-1.15l-.2.2-.43-.43" transform="translate(-2.06 -85.96)"/><path class="cls-4" d="M426,598.93" transform="translate(-2.06 -85.96)"/><path class="cls-4" d="M450.52,574.39" transform="translate(-2.06 -85.96)"/><path class="cls-4" d="M405.09,619.82" transform="translate(-2.06 -85.96)"/><path class="cls-4" d="M426,598.93" transform="translate(-2.06 -85.96)"/><path class="cls-5" d="M405.86,621.11l-.56-.56" transform="translate(-2.06 -85.96)"/><path class="cls-4" d="M405.45,394.79" transform="translate(-2.06 -85.96)"/><path class="cls-5" d="M426,598.93c-18.15-17.85-35.72-38.51-38.44-41.39" transform="translate(-2.06 -85.96)"/><path class="cls-4" d="M439.53,611.52l0,0c-4.39-3.79-9-8.09-13.52-12.57" transform="translate(-2.06 -85.96)"/><path class="cls-5" d="M387.5,557.5l0,0" transform="translate(-2.06 -85.96)"/><path class="cls-4" d="M442.18,406l-.68.47c-4.65,3.3-9.2,7-13.58,10.76" transform="translate(-2.06 -85.96)"/><path class="cls-5" d="M427.92,417.26c-19.8,17.18-36,37.25-40.42,40.24" transform="translate(-2.06 -85.96)"/><path class="cls-5" d="M442.18,406c22.36-15.65,46.56-21,65.32-23.53,47.42-6.44,96.22,26.93,108,41,11.22,13.4,48.17,64.84,28.5,127.5-19.56,62.31-69.93,74.46-72.5,75.5-33.3,13.44-96.26,15.84-132-15" transform="translate(-2.06 -85.96)"/><polyline class="cls-5" points="403.39 308.83 402.44 308.54 385.44 371.54"/><line class="cls-5" x1="385.44" y1="371.54" x2="449.17" y2="354.61"/><line class="cls-4" x1="403.39" y1="308.83" x2="440.12" y2="320.07"/><polyline class="cls-4" points="440.12 320.06 440.2 320.09 449.44 354.54 449.17 354.61"/><line class="cls-5" x1="385.48" y1="471.58" x2="403.03" y2="533.86"/><polyline class="cls-4" points="448.46 488.43 437.73 525.49 437.47 525.56"/><polyline class="cls-5" points="403.24 534.59 403.43 535.25 403.81 535.14"/><polyline class="cls-5" points="448.46 488.43 448.71 487.56 385.46 471.52 385.48 471.58"/><line class="cls-4" x1="437.47" y1="525.56" x2="403.81" y2="535.14"/><line class="cls-4" x1="403.24" y1="534.59" x2="403.03" y2="533.86"/><path class="cls-6" d="M729,734.16l.52.54-1,.9" transform="translate(-2.06 -85.96)"/><path class="cls-6" d="M737,288.21l1.26-1.21C618,161.26,415.63,156.73,289.88,277c-126.59,121-131.08,321.8-10,448.39a317.14,317.14,0,0,0,223.56,97.91v-.16a314.63,314.63,0,0,0,224-86.43" transform="translate(-2.06 -85.96)"/><path class="cls-7" d="M691.61,331.87" transform="translate(-2.06 -85.96)"/><path class="cls-7" d="M644.51,377.16" transform="translate(-2.06 -85.96)"/><path class="cls-6" d="M640.73,642.38l-2.21-2.3c-74.43,71.79-193.34,69-264.32-6.66-68.41-72.93-66.32-188.32,4.68-258.73,73.67-73.05,192.6-71.53,264.39,2.9l.38.4.86-.83" transform="translate(-2.06 -85.96)"/><path class="cls-6" d="M688.41,692" transform="translate(-2.06 -85.96)"/><path class="cls-6" d="M640.73,642.38" transform="translate(-2.06 -85.96)"/><path class="cls-6" d="M729,734.16" transform="translate(-2.06 -85.96)"/><path class="cls-6" d="M688.41,692" transform="translate(-2.06 -85.96)"/><path class="cls-7" d="M727.41,736.68l1.14-1.08" transform="translate(-2.06 -85.96)"/><path class="cls-6" d="M737,288.21" transform="translate(-2.06 -85.96)"/><path class="cls-7" d="M688.41,692c36.65-34.67,72.27-74.94,77.78-80.53" transform="translate(-2.06 -85.96)"/><path class="cls-6" d="M661.07,716.39l.06,0C670,709,679.23,700.65,688.41,692" transform="translate(-2.06 -85.96)"/><path class="cls-7" d="M766.27,611.35l-.08.08" transform="translate(-2.06 -85.96)"/><path class="cls-6" d="M663.79,309.06l1.33,1c9.08,6.72,18,14.15,26.49,21.85" transform="translate(-2.06 -85.96)"/><path class="cls-7" d="M691.61,331.87c38.57,34.82,69.85,75.21,78.54,81.31" transform="translate(-2.06 -85.96)"/><path class="cls-7" d="M663.79,309.06c-43.71-31.88-91.46-43.38-128.53-49.16C441.53,245.3,343.53,309.53,319.65,337c-22.75,26.13-98,126.62-61.43,251.55C294.58,712.75,393.92,738.79,399,740.94c65.46,27.92,190.13,35.12,262.1-24.55" transform="translate(-2.06 -85.96)"/><polyline class="cls-7" points="734.96 202.25 736.85 201.72 768.09 327.22"/><line class="cls-7" x1="768.09" y1="327.22" x2="642.46" y2="291.2"/><line class="cls-6" x1="734.96" y1="202.25" x2="661.73" y2="223.1"/><polyline class="cls-6" points="661.73 223.1 661.58 223.14 641.92 291.05 642.46 291.2"/><line class="cls-7" x1="764.13" y1="525.47" x2="726.93" y2="648.2"/><polyline class="cls-6" points="638.67 556.42 658.49 630.27 659.01 630.42"/><polyline class="cls-7" points="726.5 649.64 726.1 650.95 725.35 650.72"/><polyline class="cls-7" points="638.67 556.42 638.21 554.69 764.17 525.34 764.13 525.47"/><line class="cls-6" x1="659.01" y1="630.42" x2="725.35" y2="650.72"/><line class="cls-6" x1="726.5" y1="649.64" x2="726.93" y2="648.2"/></svg>
