<svg id="Layer_1_copy" data-name="Layer 1 copy" xmlns="http://www.w3.org/2000/svg" width="827" height="827" viewBox="0 0 827 827"><defs><style>.cls-1{opacity:0.91;}.cls-2{fill:#2d3562;}.cls-3,.cls-4,.cls-5,.cls-6{fill:none;stroke:#fff;}.cls-3,.cls-5{stroke-linecap:round;stroke-linejoin:round;}.cls-3,.cls-4{stroke-width:3px;}.cls-4,.cls-6{stroke-miterlimit:10;}.cls-5,.cls-6{stroke-width:4px;}</style></defs><title>cc_logo_ubaggrund</title><g class="cls-1"><rect class="cls-2" width="827" height="827" rx="161" ry="161"/></g><path class="cls-3" d="M405.09,645.82l-.27.27.48.46" transform="translate(-75 -116)"/><path class="cls-3" d="M405.45,420.79l-.63-.62c61.9-62.24,164.05-62.53,226.29-.64A160,160,0,0,1,518,693v-.08a158.82,158.82,0,0,1-112.14-45.81" transform="translate(-75 -116)"/><path class="cls-4" d="M427.92,443.26" transform="translate(-75 -116)"/><path class="cls-4" d="M451.23,466.57" transform="translate(-75 -116)"/><path class="cls-3" d="M450.52,600.39l1.14-1.13a93.66,93.66,0,0,0,133.39-.75c35.23-36.12,35.32-94.34.2-130.56a93.65,93.65,0,0,0-133.39-1.15l-.2.2-.43-.43" transform="translate(-75 -116)"/><path class="cls-3" d="M426,624.93" transform="translate(-75 -116)"/><path class="cls-3" d="M450.52,600.39" transform="translate(-75 -116)"/><path class="cls-3" d="M405.09,645.82" transform="translate(-75 -116)"/><path class="cls-3" d="M426,624.93" transform="translate(-75 -116)"/><path class="cls-4" d="M405.86,647.11l-.56-.56" transform="translate(-75 -116)"/><path class="cls-3" d="M405.45,420.79" transform="translate(-75 -116)"/><path class="cls-4" d="M426,624.93c-18.15-17.85-35.72-38.51-38.44-41.39" transform="translate(-75 -116)"/><path class="cls-3" d="M439.53,637.52l0,0c-4.39-3.79-9-8.09-13.52-12.57" transform="translate(-75 -116)"/><path class="cls-4" d="M387.5,583.5l0,0" transform="translate(-75 -116)"/><path class="cls-3" d="M442.18,432l-.68.47c-4.65,3.3-9.2,7-13.58,10.76" transform="translate(-75 -116)"/><path class="cls-4" d="M427.92,443.26c-19.8,17.18-36,37.25-40.42,40.24" transform="translate(-75 -116)"/><path class="cls-4" d="M442.18,432c22.36-15.65,46.56-21,65.32-23.53,47.42-6.44,96.22,26.93,108,41,11.22,13.4,48.17,64.84,28.5,127.5-19.56,62.31-69.93,74.46-72.5,75.5-33.3,13.44-96.26,15.84-132-15" transform="translate(-75 -116)"/><polyline class="cls-4" points="330.45 304.79 329.5 304.5 312.5 367.5"/><line class="cls-4" x1="312.5" y1="367.5" x2="376.23" y2="350.57"/><line class="cls-3" x1="330.45" y1="304.79" x2="367.18" y2="316.03"/><polyline class="cls-3" points="367.18 316.03 367.25 316.05 376.5 350.5 376.23 350.57"/><line class="cls-4" x1="312.54" y1="467.54" x2="330.09" y2="529.82"/><polyline class="cls-3" points="375.52 484.39 364.79 521.45 364.53 521.52"/><polyline class="cls-4" points="330.3 530.55 330.48 531.22 330.86 531.11"/><polyline class="cls-4" points="375.52 484.39 375.77 483.53 312.52 467.48 312.54 467.54"/><line class="cls-3" x1="364.53" y1="521.52" x2="330.86" y2="531.11"/><line class="cls-3" x1="330.3" y1="530.55" x2="330.09" y2="529.82"/><path class="cls-5" d="M729,760.16l.52.54-1,.9" transform="translate(-75 -116)"/><path class="cls-5" d="M737,314.21l1.26-1.21C618,187.26,415.63,182.73,289.88,303c-126.59,121-131.08,321.8-10,448.39a317.14,317.14,0,0,0,223.56,97.91v-.16a314.63,314.63,0,0,0,224-86.43" transform="translate(-75 -116)"/><path class="cls-6" d="M691.61,357.87" transform="translate(-75 -116)"/><path class="cls-6" d="M644.51,403.16" transform="translate(-75 -116)"/><path class="cls-5" d="M640.73,668.38l-2.21-2.3c-74.43,71.79-193.34,69-264.32-6.66-68.41-72.93-66.32-188.32,4.68-258.73,73.67-73.05,192.6-71.53,264.39,2.9l.38.4.86-.83" transform="translate(-75 -116)"/><path class="cls-5" d="M688.41,718" transform="translate(-75 -116)"/><path class="cls-5" d="M640.73,668.38" transform="translate(-75 -116)"/><path class="cls-5" d="M729,760.16" transform="translate(-75 -116)"/><path class="cls-5" d="M688.41,718" transform="translate(-75 -116)"/><path class="cls-6" d="M727.41,762.68l1.14-1.08" transform="translate(-75 -116)"/><path class="cls-5" d="M737,314.21" transform="translate(-75 -116)"/><path class="cls-6" d="M688.41,718c36.65-34.67,72.27-74.94,77.78-80.53" transform="translate(-75 -116)"/><path class="cls-5" d="M661.07,742.39l.06,0C670,735,679.23,726.65,688.41,718" transform="translate(-75 -116)"/><path class="cls-6" d="M766.27,637.35l-.08.08" transform="translate(-75 -116)"/><path class="cls-5" d="M663.79,335.06l1.33,1c9.08,6.72,18,14.15,26.49,21.85" transform="translate(-75 -116)"/><path class="cls-6" d="M691.61,357.87c38.57,34.82,69.85,75.21,78.54,81.31" transform="translate(-75 -116)"/><path class="cls-6" d="M663.79,335.06c-43.71-31.88-91.46-43.38-128.53-49.16C441.53,271.3,343.53,335.53,319.65,363c-22.75,26.13-98,126.62-61.43,251.55C294.58,738.75,393.92,764.79,399,766.94c65.46,27.92,190.13,35.12,262.1-24.55" transform="translate(-75 -116)"/><polyline class="cls-6" points="662.01 198.22 663.9 197.68 695.15 323.18"/><line class="cls-6" x1="695.15" y1="323.18" x2="569.51" y2="287.16"/><line class="cls-5" x1="662.01" y1="198.21" x2="588.79" y2="219.06"/><polyline class="cls-5" points="588.79 219.06 588.64 219.1 568.98 287.01 569.51 287.16"/><line class="cls-6" x1="691.19" y1="521.43" x2="653.99" y2="644.16"/><polyline class="cls-5" points="565.73 552.38 585.55 626.23 586.07 626.39"/><polyline class="cls-6" points="653.55 645.6 653.16 646.91 652.41 646.68"/><polyline class="cls-6" points="565.73 552.38 565.27 550.65 691.23 521.3 691.19 521.43"/><line class="cls-5" x1="586.07" y1="626.39" x2="652.41" y2="646.68"/><line class="cls-5" x1="653.55" y1="645.6" x2="653.99" y2="644.16"/></svg>
