<svg id="Layer_1" data-name="Layer 1" xmlns="http://www.w3.org/2000/svg" width="153.3mm" height="32.78mm" viewBox="0 0 434.54 92.93"><defs><style>.cls-1{fill:#fff;}.cls-2{opacity:0.74;}.cls-3,.cls-4,.cls-5,.cls-6,.cls-7{fill:none;stroke:#fff;}.cls-3,.cls-5,.cls-7{stroke-miterlimit:10;}.cls-3{stroke-width:0.06px;}.cls-4,.cls-6{stroke-linecap:round;stroke-linejoin:round;}.cls-4,.cls-5{stroke-width:0.37px;}.cls-6,.cls-7{stroke-width:0.49px;}</style></defs><title>cocreate_logo_white</title><path class="cls-1" d="M133.74,42.89a9.34,9.34,0,0,0-3.35-6.31,11,11,0,0,0-6.93-2.14,14.15,14.15,0,0,0-4.09.66,9.66,9.66,0,0,0-4,2.44,13.6,13.6,0,0,0-3.05,5,23.68,23.68,0,0,0-1.22,8.31,24.17,24.17,0,0,0,.66,5.58,15.31,15.31,0,0,0,2.08,5,11.33,11.33,0,0,0,3.7,3.52A10.54,10.54,0,0,0,123,66.22a10,10,0,0,0,7.18-2.7A12.52,12.52,0,0,0,133.74,56h9.92q-1.4,8.79-6.66,13.45t-14,4.66a23,23,0,0,1-9.36-1.79,19.74,19.74,0,0,1-6.83-4.87A20.67,20.67,0,0,1,102.61,60a28.94,28.94,0,0,1-1.43-9.23,31.52,31.52,0,0,1,1.39-9.49,21.64,21.64,0,0,1,4.18-7.7,19.54,19.54,0,0,1,6.92-5.14,23.33,23.33,0,0,1,9.71-1.87,27,27,0,0,1,7.44,1,19.79,19.79,0,0,1,6.27,3,16,16,0,0,1,4.48,5,17.31,17.31,0,0,1,2.09,7.23Z" transform="translate(-2.54 -4.69)"/><path class="cls-1" d="M168,74.06a24.48,24.48,0,0,1-9.62-1.79,20.43,20.43,0,0,1-7.14-4.92,20.78,20.78,0,0,1-4.44-7.48,28.77,28.77,0,0,1-1.52-9.58,28.4,28.4,0,0,1,1.52-9.49,20.91,20.91,0,0,1,4.44-7.49,20.56,20.56,0,0,1,7.14-4.92,26.89,26.89,0,0,1,19.24,0,20.75,20.75,0,0,1,7.14,4.92,21.2,21.2,0,0,1,4.44,7.49,28.66,28.66,0,0,1,1.52,9.49,29,29,0,0,1-1.52,9.58,21.07,21.07,0,0,1-4.44,7.48,20.62,20.62,0,0,1-7.14,4.92A24.52,24.52,0,0,1,168,74.06Zm0-7.84a11.35,11.35,0,0,0,5.74-1.39,12,12,0,0,0,4-3.66,16.17,16.17,0,0,0,2.31-5.09,22.86,22.86,0,0,0,0-11.54,15.68,15.68,0,0,0-2.31-5.09,12.23,12.23,0,0,0-4-3.61,12.49,12.49,0,0,0-11.49,0,12.29,12.29,0,0,0-4,3.61A15.27,15.27,0,0,0,156,44.54a22.86,22.86,0,0,0,0,11.54,15.74,15.74,0,0,0,2.31,5.09,12.11,12.11,0,0,0,4,3.66A11.39,11.39,0,0,0,168,66.22Z" transform="translate(-2.54 -4.69)"/><path class="cls-1" d="M244.91,42.89a9.26,9.26,0,0,0-3.35-6.31,10.94,10.94,0,0,0-6.92-2.14,14.1,14.1,0,0,0-4.09.66,9.69,9.69,0,0,0-4,2.44,13.58,13.58,0,0,0-3,5,23.45,23.45,0,0,0-1.22,8.31,24.15,24.15,0,0,0,.65,5.58,15.33,15.33,0,0,0,2.09,5,11.33,11.33,0,0,0,3.7,3.52,10.53,10.53,0,0,0,5.48,1.35,10,10,0,0,0,7.19-2.7A12.51,12.51,0,0,0,244.91,56h9.93q-1.4,8.79-6.66,13.45t-14,4.66a22.93,22.93,0,0,1-9.35-1.79A19.87,19.87,0,0,1,218,67.4,20.65,20.65,0,0,1,213.79,60a28.66,28.66,0,0,1-1.44-9.23,31.52,31.52,0,0,1,1.4-9.49,21.62,21.62,0,0,1,4.17-7.7,19.58,19.58,0,0,1,6.93-5.14,23.28,23.28,0,0,1,9.7-1.87,27.08,27.08,0,0,1,7.45,1,19.63,19.63,0,0,1,6.26,3,16,16,0,0,1,4.49,5,17.46,17.46,0,0,1,2.09,7.23Z" transform="translate(-2.54 -4.69)"/><path class="cls-1" d="M258.58,27.83h9.32v8.71h.17a10.06,10.06,0,0,1,1.7-3.57,16,16,0,0,1,3-3.18,15.23,15.23,0,0,1,4-2.31,11.86,11.86,0,0,1,4.44-.87,20.69,20.69,0,0,1,2.39.09l1.35.17v9.58c-.7-.12-1.41-.22-2.13-.31a19.65,19.65,0,0,0-2.14-.13A11.51,11.51,0,0,0,276,37a11,11,0,0,0-3.87,3,14.5,14.5,0,0,0-2.62,4.83,20.94,20.94,0,0,0-.95,6.62V72.84h-9.93Z" transform="translate(-2.54 -4.69)"/><path class="cls-1" d="M291.05,52.9A17.06,17.06,0,0,0,291.8,58,12.47,12.47,0,0,0,294,62.22a10.65,10.65,0,0,0,3.75,2.91,12.3,12.3,0,0,0,5.4,1.09,11.88,11.88,0,0,0,7-1.87,11.08,11.08,0,0,0,4-5.62h9.4a18.68,18.68,0,0,1-2.7,6.54,19.12,19.12,0,0,1-4.61,4.83,20.11,20.11,0,0,1-6.06,3,24.58,24.58,0,0,1-7,1,23.89,23.89,0,0,1-9.41-1.74,19.53,19.53,0,0,1-6.92-4.88A20.61,20.61,0,0,1,282.57,60a30.31,30.31,0,0,1-1.44-9.57,27.24,27.24,0,0,1,1.52-9.1A23.41,23.41,0,0,1,287,33.7a20.38,20.38,0,0,1,15.89-7.09,20.17,20.17,0,0,1,9.53,2.22,21,21,0,0,1,7,5.88,24,24,0,0,1,4.05,8.4,25.89,25.89,0,0,1,.65,9.79Zm23.16-6.53a15.77,15.77,0,0,0-1-4.52A11.86,11.86,0,0,0,311,38.06a11.06,11.06,0,0,0-3.48-2.61,10.25,10.25,0,0,0-4.57-1,11.91,11.91,0,0,0-4.75.92,11,11,0,0,0-3.66,2.52,12.69,12.69,0,0,0-2.43,3.79,13.25,13.25,0,0,0-1,4.7Z" transform="translate(-2.54 -4.69)"/><path class="cls-1" d="M365.06,62.83a5.37,5.37,0,0,0,.47,2.61,2,2,0,0,0,1.88.78h1a6.32,6.32,0,0,0,1.4-.17v6.87c-.35.12-.8.25-1.36.4s-1.11.27-1.69.39-1.16.2-1.74.26-1.08.09-1.48.09a9.56,9.56,0,0,1-5.05-1.22,6.06,6.06,0,0,1-2.62-4.27,17.46,17.46,0,0,1-7.26,4.18,28.73,28.73,0,0,1-8.32,1.31,20.39,20.39,0,0,1-5.83-.83,15.12,15.12,0,0,1-4.92-2.44,11.7,11.7,0,0,1-3.4-4.09,12.6,12.6,0,0,1-1.26-5.79,13.31,13.31,0,0,1,1.53-6.79,11.29,11.29,0,0,1,4-4.09A17.82,17.82,0,0,1,336,47.9a62.61,62.61,0,0,1,6.23-1,48.77,48.77,0,0,1,5.13-.74,24.3,24.3,0,0,0,4.31-.75,6.44,6.44,0,0,0,3-1.61,4.4,4.4,0,0,0,1.09-3.26,5.05,5.05,0,0,0-.91-3.13,6.15,6.15,0,0,0-2.27-1.88,10.07,10.07,0,0,0-3-.87,25,25,0,0,0-3.14-.22,12.46,12.46,0,0,0-6.87,1.75,6.77,6.77,0,0,0-3.05,5.4h-9.92a14.85,14.85,0,0,1,2.09-7.23,14.35,14.35,0,0,1,4.65-4.62,19,19,0,0,1,6.4-2.43,37.67,37.67,0,0,1,7.31-.7,30.37,30.37,0,0,1,6.53.7,18.27,18.27,0,0,1,5.79,2.26,12.53,12.53,0,0,1,4.14,4,11.14,11.14,0,0,1,1.57,6.05Zm-9.93-12.54a12.11,12.11,0,0,1-5.57,1.79c-2.21.2-4.41.5-6.62.91a20.43,20.43,0,0,0-3,.74A9.06,9.06,0,0,0,337.28,55a5.68,5.68,0,0,0-1.78,2.17,7.39,7.39,0,0,0-.65,3.27,4.13,4.13,0,0,0,.95,2.78,7,7,0,0,0,2.31,1.79,10.76,10.76,0,0,0,3,.91,17.71,17.71,0,0,0,2.92.26,16.2,16.2,0,0,0,3.57-.43,12.07,12.07,0,0,0,3.61-1.48A9.58,9.58,0,0,0,354,61.65a6.73,6.73,0,0,0,1.13-4Z" transform="translate(-2.54 -4.69)"/><path class="cls-1" d="M366.89,27.83h7.48V14.33h9.93v13.5h9v7.4h-9v24a23.45,23.45,0,0,0,.13,2.7,4.53,4.53,0,0,0,.61,1.91,2.91,2.91,0,0,0,1.43,1.18,7.12,7.12,0,0,0,2.62.39c.69,0,1.39,0,2.09,0a10.16,10.16,0,0,0,2.09-.31v7.66L390,73.1a28.2,28.2,0,0,1-3.22.17,21.75,21.75,0,0,1-6.31-.74,8.33,8.33,0,0,1-3.74-2.17,7.51,7.51,0,0,1-1.83-3.62,27.2,27.2,0,0,1-.57-5V35.23h-7.48Z" transform="translate(-2.54 -4.69)"/><path class="cls-1" d="M403.8,52.9a17.05,17.05,0,0,0,.74,5.05,12.31,12.31,0,0,0,2.22,4.27,10.62,10.62,0,0,0,3.74,2.91,12.3,12.3,0,0,0,5.4,1.09,11.92,11.92,0,0,0,7-1.87,11.07,11.07,0,0,0,4-5.62h9.4A18.66,18.66,0,0,1,429,70.1a20.17,20.17,0,0,1-6,3,24.64,24.64,0,0,1-7,1,23.81,23.81,0,0,1-9.4-1.74,19.35,19.35,0,0,1-6.92-4.88A20.63,20.63,0,0,1,395.31,60a30.31,30.31,0,0,1-1.44-9.57,27,27,0,0,1,1.53-9.1,23.21,23.21,0,0,1,4.35-7.58,20.38,20.38,0,0,1,15.89-7.09,20.15,20.15,0,0,1,9.53,2.22,20.88,20.88,0,0,1,7,5.88,23.68,23.68,0,0,1,4.05,8.4,25.69,25.69,0,0,1,.65,9.79ZM427,46.37a15.78,15.78,0,0,0-1-4.52,11.86,11.86,0,0,0-2.26-3.79,11.06,11.06,0,0,0-3.48-2.61,10.25,10.25,0,0,0-4.57-1,12,12,0,0,0-4.75.92,10.84,10.84,0,0,0-3.65,2.52,12.53,12.53,0,0,0-2.44,3.79,13,13,0,0,0-1,4.7Z" transform="translate(-2.54 -4.69)"/><g class="cls-2"><polygon class="cls-3" points="36.23 82.55 22.85 74.58 22.85 79.85 27.83 82.91 27.83 88.1 36.23 92.87 36.23 82.55"/><polygon class="cls-3" points="42.07 79.28 36.23 82.55 36.23 92.87 42.07 89.6 42.07 79.28"/><polyline class="cls-3" points="12.52 24.27 16.75 21.69 13.16 19.61 8.8 22.11 12.52 24.27 32.46 35.88 31.81 36.24 18.66 28.67 10.33 33.39 10.11 33.24 18.38 28.48 8.3 22.64 0.62 27.02 0.67 32.02 10.3 37.64 10.32 38.18 0.62 32.56 0.62 37.22 24.14 50.76 24.14 46.45 20.73 44.44 20.73 43.92 24.19 45.95 24.19 40.69 32.76 35.77 35.85 37.6 35.85 39.17 46.52 45.31 60.17 37.33 68.78 42.41 64.24 45.08 72.04 49.53 72.04 64.4 93.07 52.37 93.07 47.16 72.82 35.38"/><polygon class="cls-3" points="34.76 63.47 27.03 59.01 25.85 59.73 27.49 60.71 25.32 61.9 25 61.65 26.69 60.69 25.46 59.94 22.14 61.87 23.43 62.67 23.87 62.4 24.18 62.6 23.73 62.86 26.42 64.4 29.83 62.45 28.45 61.63 28.74 61.47 30.5 62.45 26.83 64.63 29.92 66.45 33.23 64.48 31.55 63.47 31.86 63.29 33.53 64.27 34.76 63.47"/><polygon class="cls-3" points="27.3 60.81 28.57 61.57 28.74 61.47 27.49 60.71 27.3 60.81"/><polygon class="cls-3" points="30.31 62.57 31.67 63.4 31.81 63.32 30.45 62.49 30.31 62.57"/><polygon class="cls-3" points="27.3 60.81 27.3 63.9 28.45 63.24 28.45 61.63 28.57 61.57 27.3 60.81"/><polygon class="cls-3" points="30.39 62.62 30.39 66.16 31.57 65.47 31.55 63.47 31.67 63.4 30.39 62.62"/><polyline class="cls-3" points="20.94 61.99 20.94 77.42 22.85 78.47 22.85 74.58 31.43 69.78 30.58 69.23 30.1 68.37 30.03 67.28 20.94 61.99 27.25 58.43 35.51 63.4 40.21 60.49 15.71 46.31 0.62 37.59 0.62 41.84 36.64 62.7 36.03 63.06 0.03 42.25 0.03 26.72 17.04 16.81 27.97 23.22 27.97 28.57 23.95 30.93 23.47 30.65 27.49 28.33 27.49 23.56 21.05 19.82 12.9 24.5"/><polygon class="cls-3" points="29.63 71.39 34.08 74.03 28.62 77.36 24.08 74.72 29.63 71.39"/><polyline class="cls-3" points="55.87 69.5 55.87 70.52 54.82 71.05 47.98 67.11 48.25 66.97 48.27 66.35 54.87 70.07 55.87 69.5 40.94 60.91 30.73 66.86 30.7 68.35 31.19 69.2 35.15 71.5 34.62 71.84 31.67 70.14 30.11 71.03 34.34 73.45 48.27 65.44 48.78 65.73 35.15 73.58 35.62 73.92 29.17 77.64 36.23 81.73 41.26 78.79 42.07 79.28"/><line class="cls-3" x1="54.87" y1="70.07" x2="54.82" y2="71.05"/><polyline class="cls-3" points="48.78 65.73 48.78 66.11 48.27 66.35 48.25 66.97"/><polyline class="cls-3" points="47.98 67.11 35.62 74.31 35.62 73.92"/><polyline class="cls-3" points="35.62 74.31 35.62 78.91 35.33 79.06"/><polyline class="cls-3" points="38.07 80.65 33.92 78.22 33.65 78.37 37.81 80.8 36.54 81.55 33.65 79.82 33.26 80.01"/><line class="cls-3" x1="33.65" y1="78.37" x2="33.65" y2="79.82"/><polyline class="cls-3" points="55.66 68.68 47.98 64.28 47.98 59.85 55.64 64.22 63.9 59.43 63.9 63.91 55.66 68.68 55.64 69.37 63.14 64.93 63.14 69.58 42.07 81.87"/><polyline class="cls-3" points="63 68.9 56.77 72.55 56.77 72.84 46.16 79.06 46.16 79.48"/><polygon class="cls-3" points="47.51 65.87 40.01 61.45 39.81 61.56 39.81 62.48 46.62 66.39 47.51 65.87"/><polygon class="cls-3" points="63.46 64.75 63.46 69.44 71.64 64.75 71.64 60.07 63.46 64.75"/><polygon class="cls-3" points="64.12 59.26 64.12 63.88 71.64 59.55 71.64 54.93 64.12 59.26"/><polygon class="cls-3" points="63.9 45.28 71.55 49.77 71.55 54.5 64.12 58.69 64.12 53.87 56.52 49.41 63.9 45.28"/><polygon class="cls-3" points="63.9 58.69 63.9 53.98 56.25 49.59 56.25 54.37 63.9 58.69"/><polyline class="cls-3" points="56.25 49.59 48.03 54.14 48.03 59.19 55.67 63.54 63.9 58.69"/><polyline class="cls-3" points="29.16 44.7 29.14 47.88 29.51 48.08 29.51 44.5 28.69 44.97 28.69 43.55 29.69 42.99 46.49 52.77 61.44 44 63.44 45.1 47.67 53.98 48.03 54.14 63.9 45.28 63.9 50.1 71.55 54.5"/><polyline class="cls-3" points="28.69 44.97 28.29 44.79 28.29 43.41 35.3 39.43 35.3 37.89 32.82 36.5 24.68 40.91 24.68 46.3 47.64 59.57 47.67 53.98"/><polyline class="cls-3" points="47.64 59.84 47.64 64.12 24.68 50.76 24.68 46.75 28.29 48.84 28.29 49.48 28.69 49.77 28.69 48.96 47.64 59.84 47.64 59.57"/><polyline class="cls-3" points="28.69 49.77 29.33 49.32 29.49 49.42 29.49 53.01 29.15 52.83 29.15 49.45"/><polyline class="cls-3" points="29.49 53.01 46.55 62.9 46.55 59.21"/><line class="cls-3" x1="47.59" y1="62.25" x2="46.55" y2="62.9"/><polygon class="cls-3" points="31.33 54.08 31.33 50.99 32.61 51.72 32.61 54.82 31.33 54.08"/><polyline class="cls-3" points="31.33 54.08 31.54 53.98 31.54 51.11"/><line class="cls-3" x1="31.54" y1="53.98" x2="32.61" y2="54.59"/><line class="cls-3" x1="31.67" y1="51.18" x2="31.67" y2="54.05"/><polygon class="cls-3" points="31.72 52.76 31.72 52.68 31.88 52.76 31.88 52.85 31.72 52.76"/><polygon class="cls-3" points="37.25 57.51 37.25 54.34 37.42 54.45 38.6 55.17 38.6 58.29 37.25 57.51"/><polyline class="cls-3" points="37.42 54.45 37.42 57.36 37.25 57.51"/><polyline class="cls-3" points="37.53 54.52 37.53 57.45 37.42 57.36"/><line class="cls-3" x1="38.6" y1="58.07" x2="37.54" y2="57.45"/><polygon class="cls-3" points="37.6 56.35 37.6 56.27 37.75 56.35 37.75 56.43 37.6 56.35"/><polygon class="cls-3" points="40.46 59.37 40.46 56.27 42.13 57.25 42.13 60.34 40.46 59.37"/><line class="cls-3" x1="41.79" y1="60.14" x2="41.79" y2="57.05"/><polyline class="cls-3" points="40.65 56.38 40.65 59.34 40.52 59.41"/><line class="cls-3" x1="40.65" y1="59.34" x2="41.79" y2="60.01"/><line class="cls-3" x1="40.78" y1="56.45" x2="40.77" y2="59.41"/><polygon class="cls-3" points="40.83 58.29 40.83 58.16 40.98 58.23 40.98 58.34 40.83 58.29"/><polyline class="cls-3" points="47.64 57.17 46.55 57.83 29.69 47.95 29.69 42.99"/><line class="cls-3" x1="29.51" y1="48.08" x2="29.69" y2="47.95"/><polygon class="cls-3" points="31.33 48.91 31.33 45.82 32.61 46.54 32.61 49.64 31.33 48.91"/><polyline class="cls-3" points="31.33 48.91 31.54 48.8 31.54 45.94"/><line class="cls-3" x1="31.54" y1="48.8" x2="32.61" y2="49.41"/><line class="cls-3" x1="31.67" y1="46.01" x2="31.67" y2="48.87"/><polygon class="cls-3" points="31.72 47.59 31.72 47.5 31.88 47.59 31.88 47.68 31.72 47.59"/><polygon class="cls-3" points="37.25 52.36 37.25 49.27 38.52 50 38.52 53.1 37.25 52.36"/><polyline class="cls-3" points="37.25 52.36 37.45 52.25 37.45 49.39"/><line class="cls-3" x1="37.45" y1="52.25" x2="38.52" y2="52.87"/><line class="cls-3" x1="37.58" y1="49.46" x2="37.58" y2="52.33"/><polygon class="cls-3" points="37.64 51.04 37.64 50.96 37.79 51.04 37.79 51.13 37.64 51.04"/><polygon class="cls-3" points="40.46 54.24 40.46 51.13 42.13 52.12 42.13 55.21 40.46 54.24"/><line class="cls-3" x1="41.79" y1="55.01" x2="41.79" y2="51.92"/><polyline class="cls-3" points="40.65 51.25 40.65 54.2 40.52 54.28"/><line class="cls-3" x1="40.65" y1="54.21" x2="41.79" y2="54.88"/><line class="cls-3" x1="40.78" y1="51.32" x2="40.77" y2="54.28"/><polygon class="cls-3" points="40.83 53.16 40.83 53.03 40.98 53.09 40.98 53.21 40.83 53.16"/><line class="cls-3" x1="46.5" y1="52.77" x2="46.55" y2="57.83"/><polygon class="cls-3" points="46.55 52.25 51.91 49.19 39.89 42.19 34.45 45.28 40.52 48.8 42.33 47.73 42.85 48.03 41.12 49.11 46.55 52.25"/><polygon class="cls-3" points="33.99 45.08 36.38 43.64 34.61 42.6 32.17 44.03 33.99 45.08"/><polygon class="cls-3" points="34.9 42.43 36.73 43.54 39.46 41.9 37.58 40.83 34.9 42.43"/><polygon class="cls-3" points="30.13 42.8 35.68 39.68 37.25 40.6 31.8 43.84 30.13 42.8"/><line class="cls-3" x1="35.68" y1="39.68" x2="35.68" y2="41.54"/><line class="cls-3" x1="37.58" y1="40.83" x2="37.58" y2="42.99"/><line class="cls-3" x1="34.61" y1="42.6" x2="34.61" y2="44.71"/><polyline class="cls-3" points="39.89 42.19 39.89 47.22 41.57 48.18"/><line class="cls-3" x1="42.85" y1="48.03" x2="42.85" y2="50.11"/><line class="cls-3" x1="42.85" y1="48.9" x2="47.67" y2="51.61"/><polygon class="cls-3" points="41.7 47.22 41.7 44.62 44.45 46.19 44.45 48.84 41.7 47.22"/><polyline class="cls-3" points="41.7 47.22 42.23 46.93 42.23 44.92"/><line class="cls-3" x1="42.23" y1="46.93" x2="44.45" y2="48.18"/><polyline class="cls-3" points="43.01 45.37 43.01 47.22 42.39 46.87 42.39 45.02"/><polyline class="cls-3" points="43.24 45.5 43.24 47.33 43.84 47.64 43.84 45.84"/><polyline class="cls-3" points="44.03 45.95 44.03 47.74 44.45 47.97"/><polygon class="cls-3" points="19.39 30.11 19.39 32.74 22.09 34.3 22.09 31.65 19.91 30.41 19.39 30.11"/><polyline class="cls-3" points="19.39 32.74 19.92 32.42 19.91 30.41 20.12 30.53 20.12 32.3 20.74 32.65 20.74 30.88 20.94 30.99 20.94 32.74 21.53 33.09 21.53 31.33 21.76 31.46 21.76 33.23 22.09 33.39"/><line class="cls-3" x1="19.92" y1="32.42" x2="22.09" y2="33.7"/><polygon class="cls-3" points="22.63 31.9 22.63 34.53 25.33 36.09 25.33 33.44 23.16 32.2 22.63 31.9"/><polyline class="cls-3" points="22.63 34.53 23.16 34.21 23.16 32.2 23.36 32.32 23.36 34.09 23.98 34.44 23.98 32.67 24.18 32.78 24.18 34.53 24.77 34.88 24.77 33.12 25 33.25 25 35.02 25.33 35.19"/><line class="cls-3" x1="23.16" y1="34.21" x2="25.33" y2="35.49"/><polygon class="cls-3" points="25.86 33.69 25.86 36.33 28.56 37.89 28.56 35.23 26.39 33.99 25.86 33.69"/><polyline class="cls-3" points="25.86 36.33 26.4 36 26.39 33.99 26.59 34.11 26.59 35.88 27.21 36.23 27.21 34.46 27.41 34.58 27.41 36.33 28 36.67 28 34.91 28.24 35.05 28.24 36.81 28.56 36.98"/><line class="cls-3" x1="26.4" y1="36" x2="28.56" y2="37.28"/><polyline class="cls-3" points="24.96 40.25 22.63 38.84 22.63 36.3 25.33 37.77 25.33 40.03"/><polyline class="cls-3" points="23.16 36.6 23.16 38.59 22.63 38.84"/><line class="cls-3" x1="23.16" y1="38.59" x2="25.33" y2="39.85"/><polyline class="cls-3" points="23.3 36.67 23.3 38.47 23.91 38.84 23.91 37 24.11 37.11 24.11 38.92 24.73 39.29 24.73 37.45 24.92 37.55 24.92 39.36 25.33 39.57"/><polyline class="cls-3" points="26.95 38.66 26.95 39.11 26.35 39.45 26.35 38.33 26.17 38.23 26.17 39.45 25.64 39.73 25.68 37.97 26.95 38.66 27.14 38.76 27.29 38.84 27.16 38.98"/><polyline class="cls-3" points="10.33 33.39 10.32 38.18 17.49 34.14 17.49 33.63 17.6 33.48 18.71 32.85 18.66 28.67"/><polyline class="cls-3" points="18.67 29.05 17.55 29.7 17.6 33.48"/><polygon class="cls-3" points="18.59 32.76 18.59 29.24 17.67 29.82 17.73 33.26 18.59 32.76"/><polygon class="cls-3" points="15 34.95 17.34 33.58 17.34 29.83 15 31.25 15 34.95"/><polygon class="cls-3" points="14.69 35.09 14.69 31.38 13 32.3 13 36 14.69 35.09"/><polygon class="cls-3" points="12.59 36.21 12.59 32.54 10.93 33.48 10.93 37.1 12.59 36.21"/><polyline class="cls-3" points="17.34 32.08 17.67 32.21 22.02 39.39 21.95 39.42 17.59 32.26"/><polyline class="cls-3" points="22.02 39.39 22.02 39.99 21.94 40.01"/><polyline class="cls-3" points="21.69 39.6 21.69 41.14 21.74 41.18 21.86 41.13 21.86 39.87"/><line class="cls-3" x1="21.75" y1="39.7" x2="21.74" y2="41.18"/><polyline class="cls-3" points="24.19 41 21.26 42.6 21.94 42.99 21.69 43.17 21.69 44.48 20.73 43.92 20.74 42.7 24.19 40.69 24.68 40.91"/><polyline class="cls-3" points="21.94 42.99 21.94 44.33 21.69 44.48"/><line class="cls-3" x1="20.74" y1="42.7" x2="21.69" y2="43.17"/><polyline class="cls-3" points="20.32 38.85 20.12 38.76 20.12 38.42 19.92 38.28 19.92 37.97 19.61 37.79 19.61 37.49 19.39 37.36 19.39 37.05 19.14 36.9 19.14 36.67 18.87 36.5 18.87 36.3 18.52 36.09 18.52 35.68 18.27 35.54 18.27 35.19 18.01 35.08 18.01 34.72 17.78 34.6 17.78 34.3 17.49 34.14"/><polyline class="cls-3" points="21.07 39.7 21.23 39.79 21.23 40.06 21.51 40.2 21.52 40.5 21.69 40.58 21.69 40.83 21.3 40.62 21.3 40.39 21 40.25 21 40.01 20.67 39.79"/><polyline class="cls-3" points="20.38 38.68 20.38 38.33 20.12 38.18 20.12 37.89 19.86 37.76 19.86 37.43 19.73 37.36"/><polygon class="cls-3" points="19.73 36.31 19.73 37.44 19.61 37.49 19.53 37.44 19.54 35.99 19.73 36.31"/><line class="cls-3" x1="19.63" y1="36.14" x2="19.62" y2="37.49"/><polyline class="cls-3" points="19.53 36.88 19.39 36.81 19.39 36.51 19.08 36.37 19.08 36.06 18.8 35.91 18.8 35.62 18.6 35.49"/><polygon class="cls-3" points="18.6 34.42 18.6 35.63 18.52 35.68 18.4 35.61 18.4 34.07 18.6 34.42"/><line class="cls-3" x1="18.5" y1="34.24" x2="18.52" y2="35.68"/><polyline class="cls-3" points="18.4 35.07 18.23 34.99 18.23 34.63 18 34.48 18 34.2 17.8 34.1 17.8 33.96 18.2 33.74"/><polyline class="cls-3" points="21.95 39.42 21.94 40.01 17.59 32.72 17.61 34.21 17.7 34.26 17.8 34.19 17.78 33.04"/><line class="cls-3" x1="17.72" y1="32.93" x2="17.7" y2="34.26"/><polyline class="cls-3" points="18.71 32.85 18.94 33 18.94 33.32 19.2 33.48 19.2 33.81 19.45 33.95 19.45 34.26 19.73 34.42 19.73 34.74 20.01 34.91 20.01 35.21 20.27 35.36 20.27 35.66 20.54 35.83 20.54 36.12 20.78 36.25 20.78 36.57 21.07 36.74 21.07 37.02 21.32 37.17 21.34 37.49 21.58 37.64 21.58 37.97 21.88 38.12 21.88 38.45 22.15 38.59 22.15 38.91 22.41 39.05 22.41 39.39 22.68 39.54 22.68 39.81 22.93 39.95 22.93 40.22 21.86 40.83"/><line class="cls-3" x1="22.93" y1="39.95" x2="21.86" y2="40.6"/><line class="cls-3" x1="22.68" y1="39.82" x2="21.86" y2="40.3"/><line class="cls-3" x1="21.69" y1="40.39" x2="21.52" y2="40.5"/><line class="cls-3" x1="22.68" y1="39.54" x2="22.02" y2="39.91"/><line class="cls-3" x1="21.51" y1="40.2" x2="21.69" y2="40.09"/><line class="cls-3" x1="22.41" y1="39.39" x2="22.02" y2="39.6"/><line class="cls-3" x1="21.69" y1="39.78" x2="21.23" y2="40.06"/><line class="cls-3" x1="22.41" y1="39.05" x2="21.97" y2="39.3"/><line class="cls-3" x1="21.23" y1="39.79" x2="21.64" y2="39.52"/><line class="cls-3" x1="22.15" y1="38.91" x2="21.84" y2="39.09"/><line class="cls-3" x1="21.5" y1="39.27" x2="21.12" y2="39.49"/><line class="cls-3" x1="22.15" y1="38.59" x2="21.69" y2="38.84"/><line class="cls-3" x1="21.36" y1="39.03" x2="21.06" y2="39.22"/><line class="cls-3" x1="21.87" y1="38.12" x2="21.41" y2="38.39"/><line class="cls-3" x1="21.08" y1="38.57" x2="20.82" y2="38.72"/><line class="cls-3" x1="20.76" y1="38.03" x2="20.76" y2="38.69"/><line class="cls-3" x1="20.67" y1="37.88" x2="20.67" y2="38.59"/><line class="cls-3" x1="20.57" y1="37.72" x2="20.57" y2="38.59"/><line class="cls-3" x1="21.58" y1="37.97" x2="21.27" y2="38.15"/><line class="cls-3" x1="20.95" y1="38.35" x2="20.76" y2="38.45"/><line class="cls-3" x1="21.58" y1="37.64" x2="21.12" y2="37.91"/><line class="cls-3" x1="20.57" y1="38.24" x2="20.38" y2="38.33"/><line class="cls-3" x1="21.34" y1="37.49" x2="20.99" y2="37.7"/><line class="cls-3" x1="20.57" y1="37.94" x2="20.12" y2="38.18"/><line class="cls-3" x1="21.32" y1="37.17" x2="20.85" y2="37.45"/><line class="cls-3" x1="20.12" y1="37.89" x2="20.53" y2="37.66"/><line class="cls-3" x1="21.07" y1="37.02" x2="20.71" y2="37.23"/><line class="cls-3" x1="19.85" y1="37.76" x2="20.4" y2="37.43"/><line class="cls-3" x1="19.85" y1="37.43" x2="20.26" y2="37.2"/><line class="cls-3" x1="20.58" y1="37.02" x2="21.07" y2="36.74"/><line class="cls-3" x1="20.78" y1="36.57" x2="20.44" y2="36.78"/><line class="cls-3" x1="20.12" y1="36.96" x2="19.73" y2="37.2"/><line class="cls-3" x1="20.78" y1="36.25" x2="20.3" y2="36.55"/><line class="cls-3" x1="19.98" y1="36.72" x2="19.73" y2="36.86"/><line class="cls-3" x1="20.54" y1="36.12" x2="20.17" y2="36.34"/><line class="cls-3" x1="19.85" y1="36.51" x2="19.73" y2="36.6"/><line class="cls-3" x1="19.53" y1="36.72" x2="19.39" y2="36.81"/><line class="cls-3" x1="20.54" y1="35.83" x2="20.04" y2="36.12"/><line class="cls-3" x1="19.39" y1="36.51" x2="19.54" y2="36.42"/><line class="cls-3" x1="20.27" y1="35.66" x2="19.89" y2="35.88"/><line class="cls-3" x1="19.53" y1="36.09" x2="19.08" y2="36.36"/><line class="cls-3" x1="20.27" y1="35.36" x2="19.77" y2="35.68"/><line class="cls-3" x1="19.08" y1="36.06" x2="19.46" y2="35.85"/><line class="cls-3" x1="20.01" y1="35.21" x2="19.62" y2="35.43"/><line class="cls-3" x1="18.8" y1="35.91" x2="19.31" y2="35.61"/><line class="cls-3" x1="20.01" y1="34.91" x2="19.49" y2="35.21"/><line class="cls-3" x1="18.8" y1="35.61" x2="19.19" y2="35.41"/><line class="cls-3" x1="19.73" y1="34.75" x2="19.35" y2="34.98"/><line class="cls-3" x1="18.6" y1="35.38" x2="19.04" y2="35.14"/><line class="cls-3" x1="19.73" y1="34.42" x2="19.19" y2="34.72"/><line class="cls-3" x1="18.9" y1="34.91" x2="18.6" y2="35.07"/><line class="cls-3" x1="19.45" y1="34.26" x2="19.06" y2="34.48"/><line class="cls-3" x1="18.75" y1="34.66" x2="18.6" y2="34.75"/><line class="cls-3" x1="18.23" y1="34.99" x2="18.4" y2="34.87"/><line class="cls-3" x1="19.45" y1="33.95" x2="18.91" y2="34.26"/><line class="cls-3" x1="18.23" y1="34.63" x2="18.4" y2="34.54"/><line class="cls-3" x1="19.2" y1="33.81" x2="18.78" y2="34.04"/><line class="cls-3" x1="18" y1="34.48" x2="18.4" y2="34.26"/><line class="cls-3" x1="19.2" y1="33.48" x2="18.64" y2="33.81"/><line class="cls-3" x1="18" y1="34.2" x2="18.35" y2="33.98"/><line class="cls-3" x1="18.94" y1="33.32" x2="18.49" y2="33.56"/><line class="cls-3" x1="18.94" y1="33" x2="18.35" y2="33.32"/><line class="cls-3" x1="17.79" y1="33.65" x2="18.06" y2="33.5"/><ellipse class="cls-3" cx="20.61" cy="38.84" rx="0.25" ry="0.14"/><ellipse class="cls-3" cx="20.61" cy="38.65" rx="0.1" ry="0.05"/><ellipse class="cls-3" cx="20.61" cy="38.84" rx="0.1" ry="0.05"/><line class="cls-3" x1="20.51" y1="38.84" x2="20.51" y2="38.65"/><line class="cls-3" x1="20.7" y1="38.84" x2="20.7" y2="38.65"/><ellipse class="cls-3" cx="20.61" cy="39.05" rx="0.25" ry="0.06"/><polyline class="cls-3" points="20.36 38.84 20.36 38.97 20.36 39.05"/><polyline class="cls-3" points="20.85 38.84 20.85 38.97 20.85 39.05"/><path class="cls-3" d="M23.39,43.66a.65.65,0,0,1,.24.61l0,0a.73.73,0,0,1-.92,0,.09.09,0,0,1,0-.07c0-.13.06-.51.24-.55" transform="translate(-2.54 -4.69)"/><ellipse class="cls-3" cx="17.82" cy="40.39" rx="0.25" ry="0.14"/><ellipse class="cls-3" cx="17.82" cy="40.2" rx="0.1" ry="0.05"/><ellipse class="cls-3" cx="17.82" cy="40.39" rx="0.1" ry="0.05"/><line class="cls-3" x1="17.73" y1="40.39" x2="17.73" y2="40.2"/><line class="cls-3" x1="17.92" y1="40.39" x2="17.92" y2="40.2"/><ellipse class="cls-3" cx="17.82" cy="40.59" rx="0.25" ry="0.06"/><polyline class="cls-3" points="17.58 40.39 17.58 40.52 17.58 40.59"/><polyline class="cls-3" points="18.07 40.39 18.07 40.52 18.07 40.59"/><path class="cls-3" d="M20.61,45.21a.62.62,0,0,1,.24.6l0,0a.73.73,0,0,1-.91,0,.07.07,0,0,1,0-.06c0-.14.06-.51.24-.56" transform="translate(-2.54 -4.69)"/><ellipse class="cls-3" cx="17.58" cy="37.06" rx="0.25" ry="0.14"/><ellipse class="cls-3" cx="17.58" cy="36.86" rx="0.1" ry="0.05"/><ellipse class="cls-3" cx="17.58" cy="37.06" rx="0.1" ry="0.05"/><line class="cls-3" x1="17.48" y1="37.06" x2="17.48" y2="36.86"/><line class="cls-3" x1="17.67" y1="37.06" x2="17.67" y2="36.86"/><ellipse class="cls-3" cx="17.58" cy="37.26" rx="0.25" ry="0.06"/><polyline class="cls-3" points="17.33 37.06 17.33 37.19 17.33 37.26"/><polyline class="cls-3" points="17.82 37.06 17.82 37.19 17.82 37.26"/><path class="cls-3" d="M20.36,41.87a.65.65,0,0,1,.24.61.08.08,0,0,1,0,0,.74.74,0,0,1-.92,0,.09.09,0,0,1,0-.07c0-.13.06-.5.24-.55" transform="translate(-2.54 -4.69)"/><ellipse class="cls-3" cx="14.75" cy="38.63" rx="0.25" ry="0.14"/><ellipse class="cls-3" cx="14.75" cy="38.43" rx="0.1" ry="0.05"/><ellipse class="cls-3" cx="14.75" cy="38.62" rx="0.1" ry="0.05"/><line class="cls-3" x1="14.66" y1="38.62" x2="14.66" y2="38.43"/><line class="cls-3" x1="14.85" y1="38.62" x2="14.85" y2="38.43"/><ellipse class="cls-3" cx="14.75" cy="38.83" rx="0.25" ry="0.06"/><polyline class="cls-3" points="14.51 38.63 14.51 38.75 14.51 38.83"/><polyline class="cls-3" points="15 38.63 14.99 38.75 14.99 38.83"/><path class="cls-3" d="M17.54,43.44a.63.63,0,0,1,.23.61s0,0,0,0a.72.72,0,0,1-.92,0,.06.06,0,0,1,0-.07c0-.13.05-.51.24-.55" transform="translate(-2.54 -4.69)"/><polyline class="cls-3" points="20.74 33.92 17.58 36.87 14.75 38.43 11.76 38.9"/><polyline class="cls-3" points="23.79 35.68 20.61 38.65 17.82 40.2 14.85 40.66"/><polygon class="cls-3" points="1.39 30.53 1.39 27.66 7.54 24.1 7.54 26.89 1.39 30.53"/><polyline class="cls-3" points="1.39 29.93 7.13 26.66 7.54 26.89"/><line class="cls-3" x1="7.13" y1="24.33" x2="7.13" y2="26.66"/><polyline class="cls-3" points="6.94 24.44 6.94 26.58 5.79 27.23 5.79 25.11"/><polyline class="cls-3" points="5.45 25.31 5.45 27.45 4.28 28.11 4.28 25.98"/><polyline class="cls-3" points="3.89 26.21 3.89 28.36 2.72 29 2.72 26.89"/><polyline class="cls-3" points="2.44 27.05 2.44 29.2 1.39 29.81"/><polyline class="cls-3" points="14.85 30.51 8.34 27.14 8.3 22.64"/><line class="cls-3" x1="0.67" y1="32.02" x2="8.34" y2="27.14"/><line class="cls-3" x1="0.62" y1="37.22" x2="4.67" y2="34.91"/><polygon class="cls-3" points="52.55 48.84 47.27 45.77 53.06 42.5 58.23 45.5 52.55 48.84"/><line class="cls-3" x1="53.06" y1="42.5" x2="53.02" y2="48.56"/><polygon class="cls-3" points="53.47 42.34 58.58 45.28 61.12 43.81 55.96 40.82 53.47 42.34"/><line class="cls-3" x1="55.96" y1="40.82" x2="55.96" y2="43.78"/><polygon class="cls-3" points="56.25 40.53 63.76 44.85 67.6 42.56 60.27 38.13 56.25 40.53"/><polyline class="cls-3" points="60.27 38.13 60.33 40.62 58.41 41.78"/><polyline class="cls-3" points="60.33 40.62 61.77 41.49 63.9 40.32"/><polyline class="cls-3" points="63.59 42.44 62.42 41.7 61.55 42.13 61.31 41.98 61.31 41.72 61.58 41.89 61.58 41.56 61.88 41.73 61.88 41.43 62.16 41.6 62.16 41.27 63.83 42.3 61.58 43.6"/><line class="cls-3" x1="61.77" y1="41.49" x2="61.31" y2="41.72"/><polyline class="cls-3" points="60.06 42.72 61.31 41.98 61.55 42.13 60.33 42.88"/><polyline class="cls-3" points="60.63 43.05 61.55 42.44 61.55 42.13"/><polyline class="cls-3" points="61.55 42.44 61.83 42.59 60.87 43.19"/><polyline class="cls-3" points="61.83 42.59 61.83 42.88 61.09 43.32"/><polyline class="cls-3" points="61.83 42.88 62.11 43.05 62.11 43.29"/><line class="cls-3" x1="62.11" y1="43.05" x2="61.39" y2="43.49"/><polyline class="cls-3" points="59.73 47.19 59.73 46.82 61.35 45.84 61.35 46.28"/><line class="cls-3" x1="59.99" y1="46.66" x2="59.99" y2="47.05"/><line class="cls-3" x1="61.09" y1="46" x2="61.09" y2="46.43"/><line class="cls-3" x1="61.19" y1="45.94" x2="61.21" y2="46.36"/><polygon class="cls-3" points="17.09 21.4 13.61 19.41 17.09 17.31 20.54 19.35 17.09 21.4"/><line class="cls-3" x1="17.09" y1="17.31" x2="17.09" y2="21.4"/><polyline class="cls-3" points="13.18 19.06 13.18 13.86 17.94 6.22 23.16 9.1 35.15 2.38"/><polyline class="cls-3" points="13.18 13.86 2.44 7.68 7.32 0.04 12.72 1.49 23.35 7.64 31.45 3.06 35.15 2.38 40.21 9.88 28 16.81"/><polyline class="cls-3" points="40.21 9.88 40.06 36.21 39.03 36.83 39.03 36.5 38.64 36.27 38.64 32.37 37.08 33.25 37.08 38.03 35.85 38.69 35.85 24.03 27.97 28.57"/><line class="cls-3" x1="35.3" y1="24.34" x2="35.3" y2="37.31"/><polygon class="cls-3" points="27.25 32.85 35.3 28.26 35.3 29.05 27.97 33.32 27.25 32.85"/><polygon class="cls-3" points="31.5 35.32 35.3 33.16 35.3 34.07 32.3 35.79 31.5 35.32"/><polyline class="cls-3" points="37.08 36.98 38.48 36.17 38.48 32.46"/><polyline class="cls-3" points="37.08 37.2 38.64 36.27 40.06 35.52 40.61 35.83 40.61 36.58 40.06 36.21"/><polyline class="cls-3" points="37.15 37.15 37.49 37.36 37.49 37.81 37.9 38.02 37.9 38.45 37.08 38.03"/><polyline class="cls-3" points="39.03 36.83 39.03 36.92 39.41 37.15 39.41 37.59 37.9 38.45"/><line class="cls-3" x1="37.9" y1="38.03" x2="39.41" y2="37.15"/><line class="cls-3" x1="37.49" y1="37.81" x2="39.03" y2="36.92"/><line class="cls-3" x1="37.49" y1="37.36" x2="38.99" y2="36.47"/><line class="cls-3" x1="35.85" y1="37.8" x2="37.08" y2="37.14"/><polyline class="cls-3" points="40.89 35.3 40.92 36.36 40.61 36.58 43.02 37.99 43.02 36.5 40.61 35.14 40.61 35.83"/><polyline class="cls-3" points="40.92 36.36 42.01 37.02 42.01 35.93 42.13 36 42.13 37.06 43.02 37.59"/><polyline class="cls-3" points="43.02 37.99 51.04 42.67 51.04 41.23 52.31 41.93"/><path class="cls-3" d="M49.08,44.73V43.25L46.7,41.94v1.35s0,0,0,0l.22-.16V42.09" transform="translate(-2.54 -4.69)"/><path class="cls-3" d="M47,42.09" transform="translate(-2.54 -4.69)"/><polyline class="cls-3" points="44.42 38.46 45.54 39.12 45.54 38.01 45.66 38.08 45.66 39.15 46.54 39.67"/><path class="cls-3" d="M50.45,44.09V45.2l-.26.14s0,0,0,0l0-1.37,2.39,1.34v1.49" transform="translate(-2.54 -4.69)"/><polyline class="cls-3" points="47.91 40.51 49.02 41.14 49.02 40.02"/><polyline class="cls-3" points="49.13 40.08 49.13 41.2 50.04 41.74"/><line class="cls-3" x1="51.34" y1="41.39" x2="51.32" y2="42.5"/><polygon class="cls-3" points="53.11 41.46 50.91 40.18 50.91 40.33 52.99 41.53 53.11 41.46"/><polyline class="cls-3" points="50.91 40.18 51.07 40.04 53.19 41.23 53.19 41.41 53.11 41.46"/><polyline class="cls-3" points="51.23 37.91 51.23 39.91 51.07 40.04 51.07 37.82 53.19 39.06 53.19 41.23"/><polyline class="cls-3" points="51.23 39.91 51.85 40.3 51.88 38.29"/><polyline class="cls-3" points="52.69 38.76 52.69 40.78 52.05 40.41 52.05 38.39"/><polyline class="cls-3" points="52.89 38.88 52.89 40.85 53.19 41.05"/><polygon class="cls-3" points="50.18 39.59 50.18 37.31 47.71 35.9 47.71 38.09 47.57 38.23 47.57 38.37 49.97 39.76 50.18 39.59"/><line class="cls-3" x1="49.97" y1="39.62" x2="47.57" y2="38.23"/><polyline class="cls-3" points="47.87 37.99 48.51 38.36 48.51 36.35 47.87 35.99 47.87 37.99 47.71 38.09 50.14 39.48 49.97 39.62 49.97 39.76"/><polyline class="cls-3" points="48.7 36.46 48.7 38.46 49.33 38.84 49.33 36.82"/><polyline class="cls-3" points="49.54 36.95 49.54 38.93 50.14 39.3"/><polygon class="cls-3" points="46.59 37.48 46.59 35.34 44.16 33.9 44.16 36.1 46.59 37.48"/><line class="cls-3" x1="43.97" y1="36.27" x2="46.39" y2="37.65"/><polyline class="cls-3" points="44.3 33.99 44.3 36.02 44.16 36.1 43.97 36.27 43.97 36.46 46.39 37.8 46.59 37.65 46.59 37.48 46.39 37.65 46.39 37.8"/><polyline class="cls-3" points="44.3 36.02 44.93 36.39 44.96 34.38"/><polyline class="cls-3" points="45.13 34.48 45.13 36.5 45.76 36.87 45.76 34.85"/><polyline class="cls-3" points="45.97 34.98 45.97 36.96 46.59 37.32"/><polygon class="cls-3" points="40.66 34.14 40.66 31.94 43.13 33.38 43.13 35.52 40.66 34.14"/><polyline class="cls-3" points="42.91 35.8 42.92 35.68 43.13 35.52 43.13 35.63 42.91 35.8 40.51 34.41 40.51 34.29 40.66 34.14 40.82 34.02 40.81 32.02"/><line class="cls-3" x1="40.51" y1="34.29" x2="42.92" y2="35.68"/><polyline class="cls-3" points="40.82 34.02 41.45 34.43 41.45 32.4"/><polyline class="cls-3" points="41.65 32.51 41.65 34.53 42.27 34.89 42.27 32.88"/><polyline class="cls-3" points="42.49 33 42.49 34.98 43.13 35.35"/><polyline class="cls-3" points="40.09 30.67 53.35 38.39 54.76 37.48 54.76 33.99 40.12 25.57"/><polyline class="cls-3" points="40.11 26.29 46.07 29.69 46.07 33.63 40.09 30.22"/><polygon class="cls-3" points="46.39 33.81 46.39 29.88 49.97 31.84 49.97 35.9 46.39 33.81"/><polygon class="cls-3" points="50.27 35.99 50.27 32.12 54.25 34.43 54.26 37.8 53.77 38.12 50.27 35.99"/><polyline class="cls-3" points="54.76 33.99 54.76 18.4 58.33 20.46 58.33 36.83"/><polyline class="cls-3" points="53.35 38.39 53.19 38.49 55.74 39.92"/><polyline class="cls-3" points="59.1 37.96 57.1 36.77 54.39 38.44 56.31 39.59"/><line class="cls-3" x1="57.1" y1="36.77" x2="57.1" y2="39.16"/><polygon class="cls-3" points="54.76 26.44 48.92 23.12 48.92 21.61 48.7 21.51 48.7 23.35 54.76 26.88 54.76 26.44"/><polygon class="cls-3" points="49.18 24.29 49.18 23.63 48.7 23.35 48.7 24.02 49.18 24.29"/><line class="cls-3" x1="49.18" y1="24.29" x2="49.72" y2="23.94"/><polyline class="cls-3" points="55.04 17.75 48.7 21.51 48.92 21.61 54.76 18.19"/><polyline class="cls-3" points="54.76 18.4 54.67 18.37 58.24 12.61 61.76 14.61 58.33 20.46"/><polyline class="cls-3" points="61.76 14.61 66.17 17.23 66.17 17.9"/><polygon class="cls-3" points="67.13 25.57 70.46 20.3 62.81 16.02 59.55 21.11 67.13 25.57"/><polygon class="cls-3" points="57.35 23.04 57.35 20.8 55.84 19.91 55.84 22.01 55.69 22.13 55.69 22.27 57.23 23.14 57.35 23.04"/><polyline class="cls-3" points="55.69 22.13 57.23 23.01 57.23 23.14"/><polyline class="cls-3" points="55.84 22.01 57.35 22.89 57.23 23.01"/><polyline class="cls-3" points="56 20 56 21.88 56.65 22.25 56.65 20.39"/><polyline class="cls-3" points="56.83 20.49 56.83 22.35 57.35 22.66"/><polygon class="cls-3" points="57.35 28.13 57.35 25.9 55.84 25 55.84 27.11 55.69 27.22 55.69 27.36 57.23 28.24 57.35 28.13"/><polyline class="cls-3" points="55.69 27.22 57.23 28.11 57.23 28.24"/><polyline class="cls-3" points="55.84 27.11 57.35 27.99 57.23 28.11"/><polyline class="cls-3" points="56 25.1 56 26.98 56.65 27.35 56.65 25.48"/><polyline class="cls-3" points="56.83 25.59 56.83 27.45 57.35 27.76"/><polygon class="cls-3" points="57.35 33.23 57.35 30.99 55.84 30.1 55.84 32.2 55.69 32.32 55.69 32.46 57.23 33.34 57.35 33.23"/><polyline class="cls-3" points="55.69 32.32 57.23 33.21 57.23 33.34"/><polyline class="cls-3" points="55.84 32.2 57.35 33.09 57.23 33.21"/><polyline class="cls-3" points="56 30.2 56 32.07 56.65 32.45 56.65 30.58"/><polyline class="cls-3" points="56.83 30.68 56.83 32.54 57.35 32.85"/><polyline class="cls-3" points="57.35 36.21 57.35 36.1 55.84 35.21 55.84 36.81"/><line class="cls-3" x1="56" y1="35.3" x2="56" y2="36.71"/><polyline class="cls-3" points="56.65 35.69 56.65 36.31 56.83 36.2 56.83 35.79"/><polygon class="cls-3" points="60.39 24.83 62.82 26.22 62.88 26.18 62.88 24.06 60.39 22.64 60.39 24.83"/><polyline class="cls-3" points="62.88 26.18 62.88 26.33 62.68 26.51 60.23 25.1 60.23 24.96 60.39 24.83 60.55 24.72 60.56 22.73"/><polyline class="cls-3" points="60.23 24.96 62.67 26.38 62.68 26.51"/><line class="cls-3" x1="62.67" y1="26.38" x2="62.82" y2="26.22"/><polyline class="cls-3" points="60.55 24.72 61.2 25.1 61.2 23.09"/><polyline class="cls-3" points="61.39 23.21 61.39 25.22 62.01 25.59 62.01 23.56"/><polyline class="cls-3" points="62.25 23.7 62.25 25.68 62.88 26.05"/><polygon class="cls-3" points="63.77 26.77 66.21 28.16 66.26 28.11 66.26 26 63.77 24.57 63.77 26.77"/><polyline class="cls-3" points="66.26 28.11 66.26 28.27 66.06 28.45 63.61 27.04 63.61 26.9 63.77 26.77 63.93 26.66 63.94 24.67"/><polyline class="cls-3" points="63.61 26.9 66.05 28.31 66.06 28.45"/><polyline class="cls-3" points="63.93 26.66 64.58 27.04 64.58 25.03"/><polyline class="cls-3" points="64.77 25.14 64.77 27.16 65.39 27.53 65.39 25.5"/><polyline class="cls-3" points="65.63 25.64 65.63 27.62 66.26 27.99"/><polygon class="cls-3" points="60.39 29.95 62.82 31.34 62.88 31.3 62.88 29.18 60.39 27.76 60.39 29.95"/><polyline class="cls-3" points="62.88 31.3 62.88 31.45 62.68 31.63 60.23 30.22 60.23 30.09 60.39 29.95 60.55 29.84 60.56 27.85"/><polyline class="cls-3" points="60.23 30.09 62.67 31.5 62.68 31.63"/><polyline class="cls-3" points="60.55 29.84 61.2 30.22 61.2 28.22"/><polyline class="cls-3" points="61.39 28.33 61.39 30.34 62.01 30.71 62.01 28.68"/><polyline class="cls-3" points="62.25 28.82 62.25 30.8 62.88 31.18"/><polygon class="cls-3" points="63.77 31.97 66.21 33.37 66.26 33.32 66.26 31.2 63.77 29.78 63.77 31.97"/><polyline class="cls-3" points="66.26 33.32 66.26 33.47 66.06 33.66 63.61 32.24 63.61 32.11 63.77 31.97 63.93 31.86 63.94 29.88"/><polyline class="cls-3" points="63.61 32.11 66.05 33.52 66.06 33.66"/><polyline class="cls-3" points="63.93 31.86 64.58 32.24 64.58 30.24"/><polyline class="cls-3" points="64.77 30.35 64.77 32.36 65.39 32.73 65.39 30.71"/><polyline class="cls-3" points="65.63 30.84 65.63 32.83 66.26 33.2"/><polygon class="cls-3" points="60.39 35.14 62.83 36.53 62.88 36.48 62.88 34.37 60.39 32.94 60.39 35.14"/><polyline class="cls-3" points="62.88 36.48 62.88 36.64 62.68 36.82 60.23 35.41 60.23 35.27 60.39 35.14 60.55 35.03 60.56 33.04"/><polyline class="cls-3" points="60.23 35.27 62.67 36.68 62.68 36.82"/><polyline class="cls-3" points="60.55 35.03 61.2 35.41 61.2 33.4"/><polyline class="cls-3" points="61.39 33.52 61.39 35.52 62.02 35.9 62.02 33.87"/><polyline class="cls-3" points="62.25 34.01 62.25 35.99 62.88 36.36"/><polygon class="cls-3" points="63.77 37.08 66.21 38.48 66.26 38.43 66.26 36.31 63.77 34.89 63.77 37.08"/><polyline class="cls-3" points="66.26 38.43 66.26 38.58 66.06 38.77 63.61 37.35 63.61 37.22 63.77 37.08 63.93 36.97 63.94 34.98"/><polyline class="cls-3" points="63.61 37.22 66.05 38.63 66.06 38.77"/><polyline class="cls-3" points="63.93 36.97 64.58 37.35 64.58 35.35"/><polyline class="cls-3" points="64.77 35.46 64.77 37.47 65.39 37.84 65.39 35.82"/><polyline class="cls-3" points="65.63 35.95 65.63 37.94 66.26 38.31"/><polyline class="cls-3" points="64.77 40.05 67.17 38.62 67.17 36.31 68.59 37.06 68.59 39.16 65.87 40.7"/><polyline class="cls-3" points="67.17 36.31 67.13 25.57 73.36 22.23 73.36 35.07 68.59 37.84"/><line class="cls-3" x1="73.36" y1="35.07" x2="93.93" y2="46.82"/><polygon class="cls-3" points="72.24 45.16 72.86 45.56 73.53 45.16 72.88 44.8 72.24 45.16"/><polyline class="cls-3" points="73.53 45.16 73.53 49.79 72.88 50.1 72.24 49.74 72.24 45.16"/><line class="cls-3" x1="72.86" y1="45.56" x2="72.88" y2="50.1"/><polygon class="cls-3" points="76.79 42.51 77.42 42.91 78.08 42.51 77.44 42.14 76.79 42.51"/><polyline class="cls-3" points="78.08 42.51 78.08 47.14 77.44 47.45 76.79 47.08 76.79 42.51"/><line class="cls-3" x1="77.42" y1="42.91" x2="77.44" y2="47.45"/><line class="cls-3" x1="68.59" y1="38.48" x2="76.79" y2="43.08"/><line class="cls-3" x1="78.08" y1="43.78" x2="93.07" y2="52.37"/><line class="cls-3" x1="39.89" y1="47.22" x2="38.84" y2="47.83"/><polyline class="cls-3" points="37.08 35.9 37.63 35.6 37.63 33.21 37.08 33.48"/><polygon class="cls-3" points="37.78 35.52 38.33 35.22 38.33 32.89 37.78 33.16 37.78 35.52"/><polygon class="cls-3" points="36.98 31.38 36.98 29.33 38.48 28.43 38.48 30.53 36.98 31.38"/><polyline class="cls-3" points="38.65 30.65 38.65 30.79 37.08 31.64 36.98 31.55 36.98 31.38 37.08 31.51 38.65 30.65 38.48 30.53"/><line class="cls-3" x1="37.08" y1="31.51" x2="37.08" y2="31.64"/><polyline class="cls-3" points="36.98 31.18 37.53 30.9 37.53 29"/><polyline class="cls-3" points="37.73 28.88 37.73 30.71 38.33 30.4 38.33 28.52"/><polygon class="cls-3" points="36.98 26.3 36.98 24.25 38.48 23.35 38.48 25.45 36.98 26.3"/><polyline class="cls-3" points="38.65 25.57 38.65 25.71 37.08 26.56 36.98 26.47 36.98 26.3 37.08 26.43 38.65 25.57 38.48 25.45"/><polyline class="cls-3" points="36.98 26.1 37.53 25.82 37.53 23.92"/><polyline class="cls-3" points="37.73 23.8 37.73 25.64 38.33 25.32 38.33 23.44"/><polygon class="cls-3" points="36.98 21.2 36.98 19.15 38.48 18.25 38.48 20.35 36.98 21.2"/><polyline class="cls-3" points="38.65 20.46 38.65 20.61 37.08 21.45 36.98 21.37 36.98 21.2 37.08 21.32 38.65 20.46 38.48 20.35"/><polyline class="cls-3" points="36.98 21 37.53 20.71 37.53 18.82"/><polyline class="cls-3" points="37.73 18.7 37.73 20.53 38.33 20.21 38.33 18.34"/><polygon class="cls-3" points="36.98 16.11 36.98 14.07 38.48 13.16 38.48 15.26 36.98 16.11"/><polyline class="cls-3" points="38.65 15.38 38.65 15.52 37.08 16.37 36.98 16.29 36.98 16.11 37.08 16.24 38.65 15.38 38.48 15.26"/><polyline class="cls-3" points="36.98 15.92 37.53 15.63 37.53 13.74"/><polyline class="cls-3" points="37.73 13.62 37.73 15.45 38.33 15.13 38.33 13.26"/><polygon class="cls-3" points="30.99 19.61 30.99 17.49 33.42 16.04 33.42 18.25 30.99 19.61"/><line class="cls-3" x1="31.18" y1="19.79" x2="33.62" y2="18.38"/><polyline class="cls-3" points="30.99 19.43 31.62 19.08 31.62 17.12"/><polyline class="cls-3" points="31.84 16.98 31.84 18.99 32.48 18.62 32.48 16.6"/><polyline class="cls-3" points="32.65 16.5 32.65 18.52 33.29 18.15 33.29 16.12"/><polyline class="cls-3" points="33.29 18.15 33.42 18.25 33.62 18.38 33.62 18.53 31.19 19.95 30.99 19.76 30.99 19.61 31.18 19.79 31.19 19.95"/><polygon class="cls-3" points="31.04 24.61 31.04 22.49 33.47 21.04 33.47 23.25 31.04 24.61"/><line class="cls-3" x1="31.23" y1="24.79" x2="33.67" y2="23.38"/><polyline class="cls-3" points="31.04 24.44 31.67 24.08 31.67 22.12"/><polyline class="cls-3" points="31.89 21.99 31.89 23.99 32.53 23.62 32.53 21.6"/><polyline class="cls-3" points="32.7 21.5 32.7 23.52 33.34 23.15 33.34 21.12"/><polyline class="cls-3" points="33.34 23.15 33.47 23.25 33.67 23.38 33.67 23.53 31.24 24.95 31.04 24.76 31.04 24.61 31.23 24.79 31.24 24.95"/><polygon class="cls-3" points="56.77 72.84 51.08 69.55 51.08 69.3 56.77 72.55 56.77 72.84"/><polyline class="cls-3" points="44.22 75.87 44.53 76 43.48 76.97 42.67 76.49 43.71 75.64"/><polyline class="cls-3" points="44.53 76 44.53 76.97 44.12 77.34"/><polygon class="cls-3" points="45.82 74.61 45.33 74.36 45.33 73.11 45.82 73.35 45.82 74.61"/><polyline class="cls-3" points="45.33 73.11 47.36 71.51 47.79 71.76 45.82 73.35"/><polygon class="cls-3" points="47.66 71.23 49.75 69.6 50.17 69.84 48.12 71.51 47.66 71.23"/><polyline class="cls-3" points="51.08 69.12 50.63 68.9 50.08 69.35 50.49 69.6 51.08 69.12 51.08 69.95"/><path class="cls-3" d="M48.67,75.46" transform="translate(-2.54 -4.69)"/><line class="cls-3" x1="46.13" y1="70.77" x2="49.59" y2="72.77"/><ellipse class="cls-3" cx="52.23" cy="77.34" rx="0.16" ry="0.12" transform="translate(-42.95 61.4) rotate(-49.04)"/><path class="cls-3" d="M48.79,75.11v-.56l-.73.39,0,.82.56-.3-.13-.07a.4.4,0,0,1-.13-.16c0-.08,0-.18.09-.21a.2.2,0,0,1,.17,0l3.65,2.16" transform="translate(-2.54 -4.69)"/><polyline class="cls-3" points="46.25 69.86 45.43 69.37 44.64 69.83 45.52 70.26"/><line class="cls-3" x1="44.64" y1="69.83" x2="44.64" y2="70.47"/><path class="cls-3" d="M47.18,75.09l.06,0,.35-.19a.2.2,0,0,1,.16.27L44.64,77v-.14l-.2-.13,2.8-1.61" transform="translate(-2.54 -4.69)"/><path class="cls-3" d="M44.64,77v.39l-.2-.09s-.33,0-.15.35l.21.11-.56.33v-.82l.7-.41" transform="translate(-2.54 -4.69)"/><polyline class="cls-3" points="41.4 72.59 40.46 72.15 40.46 72.85 41.4 73.41"/><polyline class="cls-3" points="40.46 72.15 41.26 71.68 41.9 72.05"/><line class="cls-3" x1="42.1" y1="72.72" x2="45.63" y2="74.84"/><ellipse class="cls-3" cx="48.11" cy="79.68" rx="0.16" ry="0.12" transform="translate(-46.14 59.1) rotate(-49.04)"/><path class="cls-3" d="M55.16,75.58l-3.7-2.2c-.35,0-.14.33-.14.33L55,75.85" transform="translate(-2.54 -4.69)"/><polyline class="cls-3" points="49.08 68.24 48.25 67.77 47.47 68.21 48.4 68.65 49.08 68.24 49.08 68.78"/><path class="cls-3" d="M50,72.9v.71l.33-.16s.26,0,.15.26l-.13.09.56.34,0-.8" transform="translate(-2.54 -4.69)"/><line class="cls-3" x1="48.96" y1="69.13" x2="48.38" y2="69.45"/><line class="cls-3" x1="47.82" y1="69.12" x2="46.25" y2="70"/><line class="cls-3" x1="47.47" y1="68.92" x2="46.04" y2="69.74"/><ellipse class="cls-3" cx="55.1" cy="75.73" rx="0.17" ry="0.12" transform="translate(-40.75 63.01) rotate(-49.04)"/><polyline class="cls-3" points="41.96 70.65 41.98 72.01 42.49 71.68 42.49 70.31 42.79 70.13 42.79 71.54"/><polyline class="cls-3" points="42.46 72.11 42.46 72.93 42.79 73.13 42.79 71.92"/><polyline class="cls-3" points="42.79 73.56 42.79 74 42.46 74.22 41.96 73.89 41.96 73.08 45.47 75.12"/><line class="cls-3" x1="42.46" y1="74.22" x2="42.46" y2="73.37"/><polygon class="cls-3" points="39.63 70.26 38.96 69.86 38.96 65.33 39.63 64.93 40.27 65.32 40.27 69.86 39.63 70.26"/><polyline class="cls-3" points="38.96 65.33 39.61 65.73 40.27 65.32"/><line class="cls-3" x1="39.61" y1="65.73" x2="39.62" y2="70.26"/><polyline class="cls-3" points="35.9 64.96 35.9 68.11 36.23 68.32 36.23 64.77 34.55 65.73 34.55 69.05"/><line class="cls-3" x1="35.9" y1="68.11" x2="34.55" y2="68.9"/><polyline class="cls-3" points="25.29 63.75 25.32 61.9 25 61.65 25 63.62"/><polyline class="cls-3" points="38.4 61.61 14.7 47.95 14.7 45.73"/><path class="cls-3" d="M18.25,51v2.19s0,0,0,0l.15-.09v-2" transform="translate(-2.54 -4.69)"/><line class="cls-3" x1="16" y1="46.48" x2="16.02" y2="48.49"/><polyline class="cls-3" points="15.89 48.42 16.96 49.03 16.96 49.25"/><line class="cls-3" x1="16.96" y1="49.03" x2="16.97" y2="47.05"/><polygon class="cls-3" points="16.06 47.09 16.06 47 16.2 47.09 16.2 47.16 16.06 47.09"/><path class="cls-3" d="M21.18,52.74v2.19a0,0,0,0,0,0,0l.16-.09v-2" transform="translate(-2.54 -4.69)"/><line class="cls-3" x1="18.95" y1="48.22" x2="18.96" y2="50.23"/><polyline class="cls-3" points="18.83 50.16 19.96 50.77 19.96 50.99"/><line class="cls-3" x1="19.96" y1="50.77" x2="19.97" y2="48.79"/><polygon class="cls-3" points="19.01 48.83 19.01 48.74 19.16 48.83 19.16 48.9 19.01 48.83"/><path class="cls-3" d="M24.44,54.59v2.19a0,0,0,0,0,0,0l.16-.09v-2" transform="translate(-2.54 -4.69)"/><line class="cls-3" x1="22.22" y1="50.07" x2="22.23" y2="52.08"/><polyline class="cls-3" points="22.09 52.01 23.24 52.62 23.24 52.84"/><line class="cls-3" x1="23.24" y1="52.62" x2="23.25" y2="50.64"/><polygon class="cls-3" points="22.28 50.68 22.28 50.59 22.43 50.68 22.43 50.75 22.28 50.68"/><path class="cls-3" d="M28.59,57v2.19s0,0,0,0l.16-.09,0-2" transform="translate(-2.54 -4.69)"/><line class="cls-3" x1="26.35" y1="52.46" x2="26.36" y2="54.46"/><polyline class="cls-3" points="26.23 54.4 27.3 55.01 27.3 55.22"/><line class="cls-3" x1="27.3" y1="55.01" x2="27.32" y2="53.02"/><polygon class="cls-3" points="26.4 53.07 26.4 52.97 26.55 53.07 26.55 53.14 26.4 53.07"/><line class="cls-3" x1="0.62" y1="41.84" x2="4.28" y2="39.71"/><polyline class="cls-3" points="2.04 38.41 2.04 40.15 3.55 39.28"/><line class="cls-3" x1="2.04" y1="39.51" x2="3.01" y2="38.97"/><polyline class="cls-3" points="2.85 38.88 2.2 39.28 2.2 38.5"/><polyline class="cls-3" points="1.41 33.02 1.41 35.27 3.39 34.16"/><line class="cls-3" x1="1.41" y1="34.7" x2="2.88" y2="33.87"/><polyline class="cls-3" points="1.54 33.09 1.54 34.48 2.74 33.79"/><line class="cls-3" x1="2.44" y1="7.68" x2="2.52" y2="25.31"/><polyline class="cls-3" points="37.53 5.71 38.65 5.04 56.46 15.49"/><polyline class="cls-3" points="37.11 5.29 38.84 4.34 56.83 14.88"/><line class="cls-3" x1="70.46" y1="20.29" x2="73.36" y2="22.23"/><polyline class="cls-3" points="93.92 53.1 96.72 54.67 44.98 84.74 42.07 83.05 93.92 53.1 93.92 46.82 93.07 47.16"/><polyline class="cls-3" points="42.07 83.56 45 85.31 96.72 55.18 96.72 54.67"/><polygon class="cls-3" points="37.75 85.48 37.75 82.95 40.52 81.35 40.52 83.91 37.75 85.48"/><polyline class="cls-3" points="40.7 84.07 37.91 85.62 37.9 85.78"/><polyline class="cls-3" points="37.91 85.62 37.75 85.48 37.75 85.59 37.9 85.78 40.7 84.19 40.7 84.07 40.52 83.91"/><polygon class="cls-3" points="37.9 83 37.9 85.18 38.62 84.74 38.62 82.61 37.9 83"/><polygon class="cls-3" points="38.8 82.49 38.8 84.68 39.48 84.28 39.48 82.13 38.8 82.49"/><polygon class="cls-3" points="39.66 82.01 39.66 84.18 40.36 83.78 40.36 81.62 39.66 82.01"/><polyline class="cls-3" points="37.43 92.2 37.43 87.25 41.28 85.05 41.28 90.04"/><line class="cls-3" x1="39.42" y1="91.08" x2="39.42" y2="86.08"/><polygon class="cls-3" points="37.75 91.71 39.3 90.8 39.3 86.54 37.75 87.41 37.75 91.71"/><polygon class="cls-3" points="39.55 90.69 39.55 86.43 41.11 85.48 41.11 89.84 39.55 90.69"/><polygon class="cls-3" points="39.65 88.45 39.65 88.83 39.98 88.64 39.98 88.28 39.65 88.45"/><polyline class="cls-3" points="42.07 89.6 95.09 59.21 95.09 56.13"/><polyline class="cls-3" points="94.27 56.61 94.27 59.04 90.52 61.11 90.52 58.79 90.63 58.73 90.65 60.87 94.17 58.92 94.16 56.67"/><polyline class="cls-3" points="93.22 57.22 93.22 58.38 94.17 58.92"/><line class="cls-3" x1="93.22" y1="58.38" x2="90.64" y2="59.86"/><polyline class="cls-3" points="90.08 59.05 90.08 61.52 86.33 63.58 86.33 61.26 86.44 61.2 86.45 63.34 89.97 61.39 89.97 59.12"/><polyline class="cls-3" points="89.03 59.66 89.03 60.86 89.97 61.39"/><line class="cls-3" x1="89.03" y1="60.86" x2="86.45" y2="62.33"/><polyline class="cls-3" points="82.66 63.36 82.66 65.8 78.91 67.86 78.91 65.55 79.02 65.48 79.03 67.63 82.55 65.67 82.55 63.43"/><polyline class="cls-3" points="81.61 63.98 81.61 65.14 82.55 65.67"/><line class="cls-3" x1="81.6" y1="65.14" x2="79.03" y2="66.61"/><polyline class="cls-3" points="72.91 69.06 72.91 71.52 69.16 73.58 69.16 71.27 69.27 71.2 69.28 73.35 72.8 71.4 72.79 69.12"/><polyline class="cls-3" points="71.85 69.66 71.85 70.86 72.8 71.4"/><line class="cls-3" x1="71.85" y1="70.86" x2="69.27" y2="72.33"/><polyline class="cls-3" points="68.45 71.66 68.45 74.09 64.7 76.16 64.7 73.84 64.81 73.78 64.83 75.92 68.35 73.97 68.34 71.72"/><polyline class="cls-3" points="67.4 72.27 67.4 73.43 68.35 73.97"/><line class="cls-3" x1="67.4" y1="73.43" x2="64.82" y2="74.91"/><polyline class="cls-3" points="63.78 74.37 63.78 76.81 60.03 78.87 60.03 76.56 60.15 76.49 60.16 78.63 63.68 76.68 63.67 74.44"/><polyline class="cls-3" points="62.73 74.98 62.73 76.15 63.68 76.68"/><line class="cls-3" x1="62.73" y1="76.15" x2="60.15" y2="77.62"/><polyline class="cls-3" points="56.45 78.64 56.45 81.11 52.71 83.18 52.71 80.86 52.82 80.8 52.83 82.94 56.35 80.99 56.34 78.7"/><polyline class="cls-3" points="55.4 79.25 55.4 80.46 56.35 80.99"/><line class="cls-3" x1="55.4" y1="80.46" x2="52.82" y2="81.93"/><polyline class="cls-3" points="51.85 81.33 51.85 83.76 48.1 85.83 48.1 83.51 48.21 83.45 48.22 85.59 51.74 83.64 51.74 81.39"/><polyline class="cls-3" points="50.8 81.94 50.8 83.11 51.74 83.64"/><line class="cls-3" x1="50.8" y1="83.11" x2="48.22" y2="84.58"/><polygon class="cls-3" points="57.09 78.27 57.09 80.99 57.23 80.91 57.23 78.19 57.09 78.27"/><line class="cls-3" x1="58.29" y1="77.57" x2="58.29" y2="80.3"/><line class="cls-3" x1="59.52" y1="76.86" x2="59.52" y2="79.59"/><line class="cls-3" x1="59.34" y1="79.7" x2="59.34" y2="76.96"/><polyline class="cls-3" points="58.39 77.52 58.39 79.07 59.34 79.59"/><polyline class="cls-3" points="75.7 67.42 76.27 67.74 76.27 69.66 74.72 70.58 74.7 68.01"/><line class="cls-3" x1="76.27" y1="67.74" x2="76.27" y2="67.1"/><polyline class="cls-3" points="76.48 66.97 76.52 69.59 78.08 68.73 78.08 66.04"/><line class="cls-3" x1="76.49" y1="67.86" x2="78.08" y2="68.73"/><line class="cls-3" x1="78.25" y1="65.94" x2="78.25" y2="68.86"/><line class="cls-3" x1="74.45" y1="68.16" x2="74.45" y2="71.04"/><polygon class="cls-3" points="38.36 88.74 38.36 88.51 38.11 88.38 38.11 88.09 37.83 87.93 37.83 87.64 37.75 87.6 37.75 88.17 37.89 88.25 37.89 88.49 38.36 88.74"/><line class="cls-3" x1="38.36" y1="88.74" x2="39.3" y2="88.2"/><line class="cls-3" x1="38.36" y1="88.51" x2="39.3" y2="87.94"/><path class="cls-3" d="M41.82,92.08l-.28-.15-1.17.69.28.16,1.17-.67S41.83,92.08,41.82,92.08Z" transform="translate(-2.54 -4.69)"/><line class="cls-3" x1="39.28" y1="87.72" x2="38.11" y2="88.38"/><path class="cls-3" d="M40.37,92.33l1.16-.68s0,0,0,0v.26" transform="translate(-2.54 -4.69)"/><line class="cls-3" x1="39.01" y1="86.98" x2="38.83" y2="86.8"/><polygon class="cls-3" points="32.03 75.28 29.26 73.64 29.26 73.12 32.44 75.03 32.03 75.28"/><polygon class="cls-3" points="29.26 73.12 28.06 72.33 27.74 72.52 29.02 73.27 29.26 73.12"/><polyline class="cls-3" points="27.83 72.57 27.83 72.88 27.55 73.01 27.55 73.33 27.31 73.48 27.31 73.81 27.02 73.97 27.02 74.31 26.76 74.45 26.76 74.75 26.48 74.89 26.48 75.22 26.21 75.4 26.21 75.66 25.97 75.82 27.13 76.5 27.36 76.35 27.37 76.05 27.64 75.92 27.66 75.6 27.93 75.45 27.93 75.15 28.22 75 28.22 74.69 28.5 74.53 28.5 74.16 28.75 74.03 28.75 73.74 29.01 73.59 29.02 73.27"/><line class="cls-3" x1="27.83" y1="72.88" x2="29.01" y2="73.59"/><line class="cls-3" x1="27.55" y1="73.01" x2="28.75" y2="73.74"/><line class="cls-3" x1="27.55" y1="73.33" x2="28.75" y2="74.03"/><line class="cls-3" x1="27.31" y1="73.48" x2="28.5" y2="74.16"/><line class="cls-3" x1="27.31" y1="73.81" x2="28.5" y2="74.53"/><line class="cls-3" x1="27.02" y1="73.97" x2="28.22" y2="74.69"/><line class="cls-3" x1="27.02" y1="74.31" x2="28.22" y2="75"/><line class="cls-3" x1="26.76" y1="74.45" x2="27.93" y2="75.15"/><line class="cls-3" x1="26.76" y1="74.75" x2="27.93" y2="75.45"/><line class="cls-3" x1="26.48" y1="74.89" x2="27.66" y2="75.6"/><line class="cls-3" x1="26.48" y1="75.22" x2="27.64" y2="75.92"/><line class="cls-3" x1="26.21" y1="75.4" x2="27.37" y2="76.05"/><line class="cls-3" x1="26.21" y1="75.66" x2="27.36" y2="76.35"/><polyline class="cls-3" points="27.31 76.6 27.62 76.44 27.62 76.22 27.88 76.05 27.88 75.85 28.22 75.66 28.22 75.22 28.5 75.05 28.5 74.75 28.75 74.58 28.75 74.26 28.97 74.16 28.97 73.81 29.26 73.64 29.66 73.87 29.66 76.73"/><polyline class="cls-3" points="19.82 22.24 19.82 25.7 20.26 26 21.05 25.29 21.05 19.82"/><line class="cls-3" x1="18.23" y1="23.15" x2="19.82" y2="24.12"/><line class="cls-3" x1="13.16" y1="19.61" x2="13.16" y2="23.88"/><polyline class="cls-3" points="13.38 23.75 13.38 22.79 14.16 23.27"/><line class="cls-3" x1="13.61" y1="22.93" x2="13.61" y2="23.64"/><polygon class="cls-3" points="5.7 14.18 5.7 12.12 4.19 11.22 4.19 13.31 5.7 14.18"/><polyline class="cls-3" points="4.34 11.31 4.34 13.18 5.02 13.56 5.02 11.71"/><polyline class="cls-3" points="5.21 11.82 5.21 13.66 5.7 13.94"/><polyline class="cls-3" points="5.59 14.47 5.59 14.31 5.7 14.18 5.7 14.37 5.59 14.47 4.03 13.61 4.03 13.44 4.19 13.31"/><line class="cls-3" x1="5.59" y1="14.31" x2="4.03" y2="13.44"/><polygon class="cls-3" points="9.24 16.06 9.24 13.99 7.73 13.09 7.73 15.19 9.24 16.06"/><polyline class="cls-3" points="7.88 13.18 7.88 15.05 8.56 15.44 8.56 13.59"/><polyline class="cls-3" points="8.75 13.7 8.75 15.54 9.24 15.82"/><polyline class="cls-3" points="9.13 16.35 9.13 16.18 9.24 16.06 9.24 16.24 9.13 16.35 7.57 15.48 7.57 15.32 7.73 15.19"/><line class="cls-3" x1="9.13" y1="16.18" x2="7.57" y2="15.32"/><polygon class="cls-3" points="5.72 19.31 5.72 17.25 4.22 16.35 4.22 18.44 5.72 19.31"/><polyline class="cls-3" points="4.37 16.44 4.37 18.31 5.04 18.69 5.04 16.84"/><polyline class="cls-3" points="5.23 16.96 5.23 18.8 5.72 19.08"/><polyline class="cls-3" points="5.61 19.61 5.61 19.44 5.72 19.31 5.72 19.5 5.61 19.61 4.06 18.74 4.06 18.57 4.22 18.44"/><line class="cls-3" x1="5.61" y1="19.44" x2="4.06" y2="18.57"/><polygon class="cls-3" points="9.2 21.13 9.2 19.07 7.69 18.17 7.69 20.26 9.2 21.13"/><polyline class="cls-3" points="7.84 18.26 7.84 20.13 8.52 20.51 8.52 18.66"/><polyline class="cls-3" points="8.71 18.77 8.71 20.61 9.2 20.89"/><polyline class="cls-3" points="9.09 21.42 9.09 21.26 9.2 21.13 9.2 21.32 9.09 21.42 7.53 20.55 7.53 20.39 7.69 20.26"/><line class="cls-3" x1="9.09" y1="21.26" x2="7.53" y2="20.39"/><polyline class="cls-3" points="5.72 23.4 5.72 22.33 4.22 21.42 4.22 23.49 4.87 23.9"/><polyline class="cls-3" points="4.22 23.49 4.06 23.64 4.06 23.8 4.53 24.1"/><line class="cls-3" x1="4.06" y1="23.64" x2="4.71" y2="23.99"/><line class="cls-3" x1="5.18" y1="22" x2="5.18" y2="23.75"/><polyline class="cls-3" points="4.37 21.51 4.37 23.37 4.97 23.75 4.97 21.87"/><line class="cls-3" x1="21.05" y1="25.29" x2="27.49" y2="28.33"/><polyline class="cls-3" points="20.26 26 20.26 22.01 17.71 23.52 17.72 27.3"/><polyline class="cls-3" points="27.49 23.56 27.97 23.22 28 16.81 23.16 9.1 17.09 12.55 17.04 16.81"/><polyline class="cls-3" points="44.77 14.53 44.77 10.45 45.86 9.88 47.06 10.56 47.06 14.53 45.84 13.71 45.86 9.88 45.87 9.55 45.67 9.41 40.2 12.51"/><polygon class="cls-3" points="46.79 14.15 46.85 10.68 46 10.16 46 13.65 46.79 14.15"/><polyline class="cls-3" points="44.84 14.36 44.66 14.47 44.93 14.63 44.93 13.03"/><polygon class="cls-3" points="44.93 12.9 44.84 12.98 44.84 14.57 44.93 14.63 45.02 14.57 45.02 12.97 44.93 12.9"/><polyline class="cls-3" points="44.84 12.98 44.93 13.03 45.02 12.97"/><polygon class="cls-3" points="45.73 14.34 45.64 14.41 45.64 16 45.73 16.06 45.82 16 45.82 14.4 45.73 14.34"/><polyline class="cls-3" points="45.64 14.41 45.73 14.46 45.82 14.4"/><polygon class="cls-3" points="46.84 16.17 46.75 16.25 46.75 17.84 46.84 17.89 46.93 17.84 46.93 16.24 46.84 16.17"/><polyline class="cls-3" points="46.75 16.25 46.84 16.3 46.93 16.24"/><polyline class="cls-3" points="46.84 16.3 46.84 17.89 46.84 18.21 47.05 18.34 47.05 18.65 47.35 18.81 47.35 19.1 47.59 19.22 47.59 19.59 47.8 19.7"/><polygon class="cls-3" points="47.89 18.03 47.8 18.11 47.8 19.7 47.89 19.75 47.98 19.7 47.98 18.1 47.89 18.03"/><polyline class="cls-3" points="47.8 18.11 47.89 18.16 47.98 18.1"/><line class="cls-3" x1="47.89" y1="19.75" x2="47.89" y2="18.16"/><polyline class="cls-3" points="48.91 21.39 48.88 19.92 48.98 19.84 49.07 19.9 49.07 21.29"/><line class="cls-3" x1="48.98" y1="19.98" x2="49" y2="21.33"/><polyline class="cls-3" points="45.73 14.46 45.73 16.06 45.44 15.89 45.44 15.54 45.19 15.39 45.19 15.1 44.93 14.96 44.93 14.63"/><polyline class="cls-3" points="45.73 16.06 45.73 16.38 46 16.52 46 16.83 46.29 16.97 46.29 17.27 46.58 17.42 46.58 17.72 46.75 17.84"/><polyline class="cls-3" points="47.86 19.73 47.86 20.05 48.16 20.23 48.16 20.51 48.43 20.66 48.43 20.98 48.73 21.13 48.74 21.49"/><polyline class="cls-3" points="48.7 21.61 48.5 21.51 48.5 21.28 48.21 21.12 48.21 20.89 47.89 20.71 47.89 20.61"/><polyline class="cls-3" points="44.8 12.54 44.84 12.51 49.26 19.75 49.17 19.82 44.77 12.58"/><line class="cls-3" x1="45.02" y1="13.47" x2="45.64" y2="14.47"/><line class="cls-3" x1="45.82" y1="14.79" x2="46.75" y2="16.34"/><line class="cls-3" x1="46.93" y1="16.67" x2="47.82" y2="18.16"/><polyline class="cls-3" points="47.98 18.44 48.88 19.92 48.98 19.98 49.07 19.9"/><polyline class="cls-3" points="49.17 19.82 49.17 20.45 49.07 20.27"/><polyline class="cls-3" points="49.26 19.75 49.29 20.33 49.17 20.45"/><line class="cls-3" x1="45.02" y1="14.25" x2="45.38" y2="14.04"/><line class="cls-3" x1="45.67" y1="13.87" x2="45.91" y2="13.76"/><line class="cls-3" x1="45.02" y1="14.57" x2="45.52" y2="14.28"/><line class="cls-3" x1="45.82" y1="14.11" x2="46.14" y2="13.92"/><polyline class="cls-3" points="46.06 13.97 46.11 14.25 46.42 14.38 46.42 14.71 46.66 14.84 46.66 15.15 46.93 15.32 46.93 15.64 47.22 15.81 47.22 16.1 47.48 16.27 47.48 16.57 47.74 16.75 47.74 17.01 47.98 17.15 47.98 17.46 48.26 17.62 48.26 17.93 48.56 18.1 48.56 18.4 48.79 18.52 48.79 18.86 49.07 19.03 49.07 19.34 49.35 19.51 49.35 19.82 49.63 19.95 49.63 20.28 49.89 20.45 49.89 20.73 49.97 20.76"/><line class="cls-3" x1="44.93" y1="14.96" x2="45.64" y2="14.53"/><line class="cls-3" x1="46.11" y1="14.25" x2="45.96" y2="14.34"/><line class="cls-3" x1="46.42" y1="14.38" x2="46.11" y2="14.58"/><line class="cls-3" x1="46.42" y1="14.71" x2="46.24" y2="14.8"/><line class="cls-3" x1="46.66" y1="14.84" x2="46.37" y2="15.02"/><line class="cls-3" x1="46.66" y1="15.16" x2="46.52" y2="15.25"/><line class="cls-3" x1="46.93" y1="15.32" x2="46.66" y2="15.49"/><line class="cls-3" x1="46.93" y1="15.64" x2="46.8" y2="15.71"/><line class="cls-3" x1="47.22" y1="15.81" x2="46.96" y2="15.97"/><line class="cls-3" x1="47.22" y1="16.1" x2="47.09" y2="16.17"/><line class="cls-3" x1="47.48" y1="16.27" x2="47.22" y2="16.4"/><line class="cls-3" x1="47.48" y1="16.56" x2="47.35" y2="16.63"/><line class="cls-3" x1="47.74" y1="16.75" x2="47.52" y2="16.89"/><line class="cls-3" x1="47.74" y1="17.01" x2="47.64" y2="17.1"/><line class="cls-3" x1="47.98" y1="17.15" x2="47.76" y2="17.29"/><line class="cls-3" x1="47.98" y1="17.46" x2="47.89" y2="17.51"/><line class="cls-3" x1="48.26" y1="17.62" x2="48.04" y2="17.75"/><line class="cls-3" x1="48.26" y1="17.93" x2="48.19" y2="18"/><line class="cls-3" x1="48.56" y1="18.1" x2="48.33" y2="18.23"/><line class="cls-3" x1="48.56" y1="18.4" x2="48.46" y2="18.44"/><line class="cls-3" x1="48.79" y1="18.52" x2="48.58" y2="18.64"/><line class="cls-3" x1="48.79" y1="18.85" x2="48.74" y2="18.89"/><line class="cls-3" x1="49.07" y1="19.03" x2="48.88" y2="19.13"/><line class="cls-3" x1="49.35" y1="19.51" x2="49.18" y2="19.61"/><line class="cls-3" x1="49.35" y1="19.82" x2="49.27" y2="19.84"/><line class="cls-3" x1="49.63" y1="19.95" x2="49.28" y2="20.18"/><line class="cls-3" x1="49.89" y1="20.45" x2="49.07" y2="20.91"/><line class="cls-3" x1="49.63" y1="20.28" x2="49.07" y2="20.61"/><line class="cls-3" x1="45.64" y1="14.84" x2="45.19" y2="15.1"/><line class="cls-3" x1="45.19" y1="15.39" x2="45.64" y2="15.1"/><line class="cls-3" x1="45.82" y1="15.02" x2="45.93" y2="14.97"/><line class="cls-3" x1="45.44" y1="15.53" x2="45.64" y2="15.41"/><line class="cls-3" x1="45.82" y1="15.32" x2="46.06" y2="15.19"/><line class="cls-3" x1="45.44" y1="15.89" x2="45.64" y2="15.76"/><line class="cls-3" x1="45.82" y1="15.68" x2="46.21" y2="15.43"/><line class="cls-3" x1="45.82" y1="16" x2="46.35" y2="15.68"/><line class="cls-3" x1="45.73" y1="16.38" x2="46.5" y2="15.93"/><line class="cls-3" x1="46" y1="16.52" x2="46.64" y2="16.15"/><line class="cls-3" x1="46" y1="16.83" x2="46.75" y2="16.4"/><line class="cls-3" x1="46.29" y1="16.97" x2="46.75" y2="16.7"/><line class="cls-3" x1="46.93" y1="16.89" x2="47.03" y2="16.83"/><line class="cls-3" x1="46.29" y1="17.27" x2="46.75" y2="16.99"/><line class="cls-3" x1="46.58" y1="17.42" x2="46.75" y2="17.33"/><line class="cls-3" x1="46.93" y1="17.27" x2="47.22" y2="17.1"/><line class="cls-3" x1="46.58" y1="17.72" x2="46.75" y2="17.62"/><line class="cls-3" x1="46.93" y1="17.51" x2="47.3" y2="17.29"/><line class="cls-3" x1="46.93" y1="17.79" x2="47.42" y2="17.48"/><line class="cls-3" x1="46.84" y1="18.21" x2="47.58" y2="17.75"/><line class="cls-3" x1="47.05" y1="18.34" x2="47.7" y2="17.97"/><line class="cls-3" x1="47.05" y1="18.65" x2="47.8" y2="18.21"/><line class="cls-3" x1="47.35" y1="18.81" x2="47.8" y2="18.55"/><line class="cls-3" x1="47.35" y1="19.1" x2="47.8" y2="18.84"/><line class="cls-3" x1="47.98" y1="18.74" x2="48.11" y2="18.65"/><line class="cls-3" x1="47.59" y1="19.22" x2="47.8" y2="19.12"/><line class="cls-3" x1="47.98" y1="19.03" x2="48.25" y2="18.87"/><line class="cls-3" x1="47.59" y1="19.59" x2="47.8" y2="19.48"/><line class="cls-3" x1="47.98" y1="19.37" x2="48.39" y2="19.12"/><line class="cls-3" x1="47.98" y1="19.66" x2="48.53" y2="19.35"/><line class="cls-3" x1="47.86" y1="20.05" x2="48.67" y2="19.57"/><line class="cls-3" x1="48.16" y1="20.23" x2="48.83" y2="19.84"/><line class="cls-3" x1="48.16" y1="20.51" x2="48.88" y2="20.1"/><line class="cls-3" x1="48.43" y1="20.66" x2="48.89" y2="20.41"/><line class="cls-3" x1="48.43" y1="20.98" x2="48.89" y2="20.71"/><line class="cls-3" x1="48.74" y1="21.13" x2="48.9" y2="21.03"/><ellipse class="cls-3" cx="47.37" cy="19.78" rx="0.25" ry="0.14"/><ellipse class="cls-3" cx="47.37" cy="19.58" rx="0.1" ry="0.05"/><ellipse class="cls-3" cx="47.37" cy="19.78" rx="0.1" ry="0.05"/><line class="cls-3" x1="47.27" y1="19.78" x2="47.27" y2="19.58"/><line class="cls-3" x1="47.46" y1="19.78" x2="47.46" y2="19.58"/><ellipse class="cls-3" cx="47.37" cy="19.98" rx="0.25" ry="0.06"/><polyline class="cls-3" points="47.61 19.78 47.61 19.9 47.61 19.98"/><path class="cls-3" d="M50.15,24.59a.65.65,0,0,1,.24.61s0,0,0,0a.73.73,0,0,1-.92,0,.09.09,0,0,1,0-.07c0-.13.06-.51.24-.55" transform="translate(-2.54 -4.69)"/><ellipse class="cls-3" cx="44.58" cy="21.32" rx="0.25" ry="0.14"/><ellipse class="cls-3" cx="44.58" cy="21.13" rx="0.1" ry="0.05"/><ellipse class="cls-3" cx="44.58" cy="21.32" rx="0.1" ry="0.05"/><line class="cls-3" x1="44.49" y1="21.32" x2="44.49" y2="21.13"/><line class="cls-3" x1="44.68" y1="21.32" x2="44.68" y2="21.13"/><ellipse class="cls-3" cx="44.58" cy="21.53" rx="0.25" ry="0.06"/><polyline class="cls-3" points="44.34 21.32 44.34 21.45 44.34 21.52"/><polyline class="cls-3" points="44.83 21.32 44.83 21.45 44.83 21.52"/><path class="cls-3" d="M47.37,26.14a.62.62,0,0,1,.23.6.05.05,0,0,1,0,0,.72.72,0,0,1-.91,0,.07.07,0,0,1,0-.06c0-.13.06-.51.24-.56" transform="translate(-2.54 -4.69)"/><polyline class="cls-3" points="50.54 16.61 47.37 19.58 44.58 21.13 41.6 21.59"/><ellipse class="cls-3" cx="50.64" cy="24.91" rx="0.25" ry="0.14"/><ellipse class="cls-3" cx="50.64" cy="24.72" rx="0.1" ry="0.05"/><ellipse class="cls-3" cx="50.64" cy="24.91" rx="0.1" ry="0.05"/><line class="cls-3" x1="50.54" y1="24.91" x2="50.54" y2="24.72"/><line class="cls-3" x1="50.73" y1="24.91" x2="50.73" y2="24.72"/><ellipse class="cls-3" cx="50.64" cy="25.12" rx="0.25" ry="0.06"/><polyline class="cls-3" points="50.39 24.91 50.39 25.04 50.39 25.12"/><polyline class="cls-3" points="50.88 24.91 50.88 25.04 50.88 25.12"/><path class="cls-3" d="M53.42,29.73a.65.65,0,0,1,.24.61s0,0,0,0a.74.74,0,0,1-.92,0,.09.09,0,0,1,0-.07c0-.13.06-.51.24-.55" transform="translate(-2.54 -4.69)"/><ellipse class="cls-3" cx="47.61" cy="23.09" rx="0.25" ry="0.14"/><ellipse class="cls-3" cx="47.61" cy="22.9" rx="0.1" ry="0.05"/><ellipse class="cls-3" cx="47.61" cy="23.09" rx="0.1" ry="0.05"/><line class="cls-3" x1="47.52" y1="23.09" x2="47.52" y2="22.9"/><line class="cls-3" x1="47.71" y1="23.09" x2="47.71" y2="22.9"/><ellipse class="cls-3" cx="47.61" cy="23.3" rx="0.25" ry="0.06"/><polyline class="cls-3" points="47.37 23.09 47.37 23.22 47.37 23.3"/><path class="cls-3" d="M50.4,27.91a.63.63,0,0,1,.23.61s0,0,0,0a.72.72,0,0,1-.92,0,.14.14,0,0,1,0-.07c0-.13,0-.51.24-.55" transform="translate(-2.54 -4.69)"/><polyline class="cls-3" points="50.88 24.62 50.64 24.72 47.76 25.12"/><polyline class="cls-3" points="48.7 22.38 47.61 22.9 44.75 23.41"/><line class="cls-3" x1="50.64" y1="24.67" x2="49.53" y2="24.06"/><polyline class="cls-3" points="48.66 23.55 47.86 23.09 47.86 23.22 47.86 23.3"/><line class="cls-3" x1="47.52" y1="22.9" x2="44.58" y2="21.13"/><line class="cls-3" x1="40.2" y1="12.73" x2="45.87" y2="9.55"/><polygon class="cls-3" points="40.24 16.97 40.24 12.97 41.95 11.97 41.95 16 40.24 16.97"/><polyline class="cls-3" points="44.66 14.47 42.21 15.84 42.21 11.88 44.6 10.53 44.66 14.47 44.69 14.99 44.98 15.16 44.98 15.49 45.21 15.62 45.21 15.97 45.47 16.11 45.47 16.44 45.73 16.58 45.73 16.99 46.06 17.19 46.06 17.41 46.35 17.58 46.35 17.8 46.59 17.93 46.59 18.3 46.84 18.4 46.84 18.71 47.12 18.84 47.12 19.19 47.35 19.32 47.35 19.51"/><line class="cls-3" x1="51.04" y1="70.35" x2="48.96" y2="72.03"/><polyline class="cls-3" points="48.67 72.24 45.82 74.61 45.58 74.81"/><polyline class="cls-3" points="45.31 75.02 44.22 75.87 43.71 75.64 43.71 74.67 43.21 74.39 41.18 76.03 44.91 78.27 45.31 78.04 41.96 76.07 43.71 74.67"/><polyline class="cls-3" points="47.47 68.78 46.48 69.37 45.57 68.83 45.57 68.51 46.51 67.97 47.65 67.31 47.66 68.1"/><line class="cls-3" x1="46.48" y1="69.37" x2="46.46" y2="67.99"/><line class="cls-3" x1="45.52" y1="65.76" x2="45.52" y2="67.02"/><polyline class="cls-3" points="41.25 63.3 41.25 65.14 45.22 67.31"/><line class="cls-3" x1="41.25" y1="63.54" x2="45.52" y2="65.99"/><line class="cls-3" x1="36.23" y1="68.32" x2="41.25" y2="65.14"/><polyline class="cls-3" points="32.44 69.92 33.39 69.37 35.17 69.99 35.62 69.46 33.28 68.6 31.76 69.53"/><polyline class="cls-3" points="35.17 69.99 35.23 71.39 35.62 71.07 35.62 69.46"/><line class="cls-3" x1="33.39" y1="69.37" x2="33.39" y2="70.47"/><line class="cls-3" x1="34.96" y1="71.39" x2="35.23" y2="71.39"/><polyline class="cls-3" points="35.78 72.63 36.93 70.9 36.23 70.59 36.93 70.05 38.43 70.56 38.06 71.32"/><line class="cls-3" x1="36.23" y1="70.59" x2="36.23" y2="71.95"/><polyline class="cls-3" points="34.62 71.84 34.62 73.29 35.23 72.94 35.15 71.5"/><polyline class="cls-3" points="38.46 72.65 38.46 74.94 38.07 75.16 37.61 74.89 37.61 73.13"/><line class="cls-3" x1="38.07" y1="72.88" x2="38.07" y2="75.16"/><polyline class="cls-3" points="35.62 76.97 37.21 76.07 36.41 75.59 35.62 76.07"/><polyline class="cls-3" points="35.62 78.59 37.21 77.67 37.21 76.07"/><polyline class="cls-3" points="36.31 73.9 37.48 74.81 37.61 74.75"/><line class="cls-3" x1="37.42" y1="73.26" x2="37.61" y2="73.41"/><polyline class="cls-3" points="38.46 73.03 40.3 74.36 38.43 75.49 37.42 74.86 37.48 74.81"/><polyline class="cls-3" points="40.3 74.36 40.3 75.88 38.43 76.97 37.42 76.38 37.42 74.86"/><line class="cls-3" x1="38.43" y1="75.49" x2="38.43" y2="76.96"/><polyline class="cls-3" points="45.31 78.04 45.47 78.97 46.16 78.57 46.16 79.06"/><line class="cls-3" x1="45.33" y1="78.11" x2="46.16" y2="78.57"/><polyline class="cls-3" points="41.18 76.03 41.18 78.11 44.93 80.2 44.91 78.27"/><polygon class="cls-3" points="22.04 66.16 24.62 67.64 24.62 65.27 22.04 63.81 22.04 66.16"/><polyline class="cls-3" points="24.5 67.98 24.5 67.81 24.62 67.64 24.62 67.84 24.5 67.98 21.89 66.48 21.89 66.36 22.04 66.16"/><line class="cls-3" x1="21.89" y1="66.36" x2="24.5" y2="67.81"/><polygon class="cls-3" points="22.2 64.07 22.85 64.45 22.85 66.45 22.2 66.09 22.2 64.07"/><polygon class="cls-3" points="23.02 66.55 23.02 64.53 23.64 64.89 23.64 66.9 23.02 66.55"/><polygon class="cls-3" points="23.84 66.99 23.84 64.99 24.47 65.33 24.47 67.38 23.84 66.99"/><polygon class="cls-3" points="25.8 68.3 28.38 69.78 28.38 67.41 25.8 65.95 25.8 68.3"/><polyline class="cls-3" points="28.27 70.12 28.27 69.96 28.38 69.78 28.38 69.98 28.27 70.12 25.66 68.62 25.66 68.5 25.8 68.3"/><line class="cls-3" x1="25.66" y1="68.5" x2="28.27" y2="69.96"/><polygon class="cls-3" points="25.96 66.21 26.62 66.59 26.62 68.59 25.96 68.23 25.96 66.21"/><polygon class="cls-3" points="26.79 68.69 26.79 66.67 27.4 67.03 27.4 69.04 26.79 68.69"/><polygon class="cls-3" points="27.61 69.13 27.61 67.13 28.24 67.47 28.24 69.53 27.61 69.13"/><polygon class="cls-3" points="22.04 70.3 24.62 71.78 24.62 69.41 22.04 67.95 22.04 70.3"/><polyline class="cls-3" points="24.5 72.12 24.5 71.95 24.62 71.78 24.62 71.98 24.5 72.12 21.89 70.61 21.89 70.5 22.04 70.3"/><line class="cls-3" x1="21.89" y1="70.5" x2="24.5" y2="71.95"/><polygon class="cls-3" points="22.2 68.21 22.85 68.59 22.85 70.58 22.2 70.23 22.2 68.21"/><polygon class="cls-3" points="23.02 70.69 23.02 68.67 23.64 69.03 23.64 71.04 23.02 70.69"/><polygon class="cls-3" points="23.84 71.13 23.84 69.13 24.47 69.47 24.47 71.52 23.84 71.13"/><polyline class="cls-3" points="28.27 71.55 25.8 70.18 25.8 72.57 26.15 72.73"/><polyline class="cls-3" points="25.8 72.57 25.66 72.67 25.66 72.83 25.84 72.91"/><line class="cls-3" x1="25.66" y1="72.67" x2="25.97" y2="72.83"/><polyline class="cls-3" points="28.13 71.62 27.62 71.34 27.59 71.92"/><polyline class="cls-3" points="27.44 72.01 27.44 71.22 26.78 70.87 26.78 72.38"/><polyline class="cls-3" points="26.62 72.47 26.62 70.77 25.97 70.41 25.97 72.42 26.32 72.64"/><polyline class="cls-3" points="24.47 73.67 22.07 72.29 22.07 74.69 22.85 75.15"/><polyline class="cls-3" points="22.07 74.69 21.89 74.8 21.89 74.96 22.85 75.48"/><line class="cls-3" x1="21.89" y1="74.8" x2="22.85" y2="75.36"/><polyline class="cls-3" points="22.85 74.58 22.85 72.91 22.2 72.53 22.2 74.53 22.85 74.92"/><polyline class="cls-3" points="23.66 74.12 23.66 73.38 23.02 73.01 23.02 74.48"/><polyline class="cls-3" points="23.84 74 23.84 73.46 24.34 73.74"/><polygon class="cls-3" points="54.19 55.57 54.19 52.11 52.49 53.1 52.49 56.56 54.19 55.57"/><polyline class="cls-3" points="48.03 59.19 52.49 56.56 54.19 55.57 55.87 56.13 55.87 52.6 54.19 52.11"/><polygon class="cls-3" points="55.28 54.67 55.28 54.56 55.61 54.61 55.61 54.77 55.28 54.67"/><line class="cls-3" x1="56.25" y1="54.37" x2="55.87" y2="54.56"/><polyline class="cls-3" points="53.88 52.29 53.88 55.44 54.19 55.57"/><line class="cls-3" x1="52.49" y1="54.5" x2="53.88" y2="53.72"/><polyline class="cls-3" points="60.12 51.52 60.12 48.44 62.04 47.34 62.04 51.1 63.9 50.1"/><polyline class="cls-3" points="60.24 51.59 60.24 48.58 61.92 47.6 61.92 51.15 60.63 51.82"/><polygon class="cls-3" points="60.4 50.78 60.4 50.67 60.54 50.62 60.54 50.7 60.4 50.78"/><line class="cls-3" x1="68.78" y1="42.42" x2="68.78" y2="47.67"/><line class="cls-3" x1="68.59" y1="39.16" x2="68.59" y2="42.3"/><polyline class="cls-3" points="85.73 64.57 85.73 61.58 83.31 62.99 83.31 65.96 83.45 65.88 83.45 62.98 85.56 61.74 85.56 64.67"/><line class="cls-3" x1="84.52" y1="62.35" x2="84.52" y2="65.27"/><line class="cls-3" x1="44.97" y1="84.74" x2="45" y2="85.32"/><line class="cls-3" x1="71.55" y1="49.77" x2="72.04" y2="49.53"/><line class="cls-3" x1="28.29" y1="43.41" x2="28.69" y2="43.55"/><line class="cls-3" x1="0.03" y1="26.72" x2="0.62" y2="27.02"/><polyline class="cls-3" points="4.38 28.06 4.37 26.58 5.45 27.23"/><polyline class="cls-3" points="5.01 27.7 5.01 26.96 5.15 27.05 5.15 27.61"/><line class="cls-3" x1="55.67" y1="63.54" x2="55.64" y2="64.22"/><line class="cls-3" x1="69.94" y1="20" x2="66.56" y2="25.24"/><polyline class="cls-3" points="69.5 19.76 66.17 25 65.69 24.72 69.02 19.49 68.54 19.22 65.19 24.43 64.77 24.18 68.07 18.96 67.66 18.73 64.34 23.93 63.93 23.7 67.24 18.5 66.79 18.24 63.5 23.43 63.01 23.14 66.33 17.99 65.83 17.71 62.56 22.88 62.12 22.62 65.46 17.5 64.94 17.21 61.7 22.37 61.2 22.07 64.5 16.97 64.06 16.72 60.77 21.83 60.35 21.58 63.61 16.47 63.22 16.25 59.94 21.34"/><line class="cls-3" x1="58.57" y1="12.8" x2="55" y2="18.54"/><line class="cls-3" x1="58.97" y1="13.02" x2="55.4" y2="18.77"/><line class="cls-3" x1="59.35" y1="13.24" x2="55.77" y2="18.98"/><line class="cls-3" x1="59.8" y1="13.5" x2="56.2" y2="19.23"/><line class="cls-3" x1="60.23" y1="13.74" x2="56.6" y2="19.46"/><line class="cls-3" x1="60.77" y1="14.05" x2="57.19" y2="19.8"/><line class="cls-3" x1="61.2" y1="14.29" x2="57.56" y2="20.06"/><line class="cls-3" x1="61.55" y1="14.49" x2="58.04" y2="20.29"/><line class="cls-3" x1="34.54" y1="2.72" x2="39.4" y2="10.34"/><polyline class="cls-3" points="38.58 10.81 33.74 3.17 30.21 3.73 29.88 3.95 33.22 3.46 38.1 11.08"/><polyline class="cls-3" points="37.62 11.35 32.74 3.73 29.49 4.17 29.1 4.38 32.35 3.95 37.19 11.6"/><polyline class="cls-3" points="36.73 11.86 31.87 4.22 28.66 4.64 28.28 4.85 31.38 4.49 36.26 12.12"/><polyline class="cls-3" points="35.82 12.37 30.95 4.74 27.87 5.08 27.41 5.34 30.48 5 35.39 12.62"/><polyline class="cls-3" points="34.93 12.88 30.08 5.22 26.92 5.62 26.45 5.88 29.6 5.49 34.42 13.16"/><polyline class="cls-3" points="33.98 13.42 29.1 5.77 26.04 6.12 25.46 6.45 28.66 6.02 33.53 13.68"/><polyline class="cls-3" points="31.31 3.14 34.93 2.5 39.78 10.13"/><polyline class="cls-3" points="34.42 2.72 30.95 3.34 30.65 3.51 34.16 2.94 39.02 10.56"/><polyline class="cls-3" points="24.26 7.12 27.25 6.81 26.83 7.04 23.86 7.35 23.47 7.57 26.34 7.27 25.88 7.58 23.35 7.8 23.3 8.03 25.42 7.84 24.96 8.09 23.3 8.23 23.24 8.49 24.46 8.37 24.03 8.62 23.25 8.68 23.2 8.86 23.54 8.89 28.44 16.56 28.93 16.28 24.03 8.62 24.46 8.37 29.36 16.04 29.83 15.77 24.96 8.09 25.42 7.84 30.29 15.51 30.78 15.23 25.88 7.58 26.34 7.27 31.28 14.95 31.72 14.7 26.83 7.04 27.25 6.81 32.12 14.47 32.62 14.19 27.7 6.56 24.79 6.83 25.12 6.64 28.21 6.27 33.09 13.93"/><polyline class="cls-3" points="12.85 1.57 7.73 0.28 2.83 7.9 3.19 8.11 8.07 0.48 8.56 0.76 3.64 8.37 4.11 8.64 8.99 1.01 9.48 1.29 4.61 8.93 5.02 9.16 9.93 1.56 10.31 1.78 5.45 9.41 5.94 9.69 10.82 2.07 11.35 2.38 6.46 9.99 6.84 10.21 11.73 2.6 12.1 2.82 7.32 10.48 7.73 10.72 12.63 3.13 13.09 3.4 8.22 11.01 8.74 11.31 13.58 3.68 13.98 3.92 9.13 11.5 9.64 11.82 14.43 4.18 14.93 4.46 10.09 12.08 10.49 12.31 15.36 4.72 15.79 4.96 10.97 12.59 11.48 12.88 16.32 5.27 16.69 5.49 11.84 13.09 12.33 13.37 17.17 5.77 17.67 6.06 12.85 13.68"/><polyline class="cls-3" points="13.08 1.7 8.07 0.48 8.56 0.76 13.51 1.95 13.66 2.04 8.99 1.01 9.48 1.29 13.96 2.21 14.25 2.38 9.93 1.56 10.31 1.78 14.71 2.64 15.04 2.84 10.82 2.07 11.35 2.38 15.54 3.13 15.91 3.34 11.73 2.6 12.1 2.82 16.45 3.65 16.73 3.81 12.63 3.13 13.09 3.4 17.23 4.1 17.67 4.36 13.58 3.68 13.98 3.92 18.1 4.61 18.45 4.81 14.43 4.18 14.93 4.46 19.11 5.19 19.42 5.37 15.36 4.72 15.79 4.96 20.01 5.71 20.39 5.93 16.32 5.27 16.69 5.49 20.84 6.19 21.24 6.42 17.17 5.77 17.67 6.06 21.87 6.79 22.2 6.98 17.94 6.22 7.32 0.04"/><polyline class="cls-3" points="18.78 6.68 22.65 7.24 22.97 7.43 19.29 6.96 19.81 7.25 23.35 7.64 23.33 7.8 23.16 9.1"/><polyline class="cls-3" points="20.19 7.46 23.33 7.8 23.3 8.03 20.76 7.77 21.18 8 23.3 8.23 23.24 8.49 21.76 8.32 22.25 8.6 23.25 8.68 23.2 8.86 22.73 8.86"/><line class="cls-3" x1="44.69" y1="14.99" x2="40.17" y2="17.64"/><line class="cls-3" x1="41.68" y1="16.75" x2="47.12" y2="19.78"/><line class="cls-3" x1="32.82" y1="36.5" x2="32.82" y2="40.82"/><polyline class="cls-3" points="54.94 49.89 54.94 49.53 56.61 48.56 56.61 48.95"/><line class="cls-3" x1="55.24" y1="49.36" x2="55.24" y2="49.71"/><polyline class="cls-3" points="56.3 48.74 56.3 49.12 56.44 49.05 56.44 48.66"/><polyline class="cls-3" points="50.91 47.89 52.02 47.22 52.02 44.62 49.31 46.15 49.31 46.93"/><polyline class="cls-3" points="52.02 47.22 51.52 46.93 50.41 47.6"/><line class="cls-3" x1="51.5" y1="44.92" x2="51.52" y2="46.93"/><polyline class="cls-3" points="51.36 45 51.36 46.82 50.75 47.22 50.75 45.34 50.53 45.47 50.53 47.26 50.18 47.47"/><polyline class="cls-3" points="49.71 45.92 49.71 47.19 49.9 47.3 49.9 45.82"/><polyline class="cls-3" points="35.45 44.2 34.79 43.75 34.79 44.6"/><line class="cls-3" x1="34.98" y1="43.88" x2="34.98" y2="44.48"/><polyline class="cls-3" points="34.45 44.81 34.45 43.55 32.89 44.45"/><line class="cls-3" x1="34.17" y1="43.71" x2="34.17" y2="44.97"/><line class="cls-3" x1="14.85" y1="35.68" x2="20.12" y2="38.76"/><line class="cls-3" x1="38.65" y1="5.04" x2="38.65" y2="7.56"/><line class="cls-3" x1="54.76" y1="19.48" x2="48.92" y2="23.12"/><line class="cls-3" x1="21.95" y1="43.33" x2="24.19" y2="42.01"/><polyline class="cls-3" points="59.52 21.12 59.69 37.61 57.08 36.05 54.76 37.48"/></g><path class="cls-4" d="M38.92,60.57l0,0,0,0" transform="translate(-2.54 -4.69)"/><path class="cls-4" d="M39,33.14l-.07-.08a19.51,19.51,0,1,1,13.8,33.27h0A19.35,19.35,0,0,1,39,60.73" transform="translate(-2.54 -4.69)"/><path class="cls-5" d="M41.7,35.88" transform="translate(-2.54 -4.69)"/><path class="cls-5" d="M44.54,38.72" transform="translate(-2.54 -4.69)"/><path class="cls-4" d="M44.46,55l.14-.14a11.42,11.42,0,1,0,0-16.15l0,0-.06-.05" transform="translate(-2.54 -4.69)"/><path class="cls-4" d="M41.47,58" transform="translate(-2.54 -4.69)"/><path class="cls-4" d="M44.46,55" transform="translate(-2.54 -4.69)"/><path class="cls-4" d="M38.92,60.57" transform="translate(-2.54 -4.69)"/><path class="cls-4" d="M41.47,58" transform="translate(-2.54 -4.69)"/><path class="cls-5" d="M39,60.73l-.07-.07" transform="translate(-2.54 -4.69)"/><path class="cls-4" d="M39,33.14" transform="translate(-2.54 -4.69)"/><path class="cls-5" d="M41.47,58c-2.22-2.18-4.36-4.7-4.69-5.05" transform="translate(-2.54 -4.69)"/><path class="cls-4" d="M43.12,59.56h0c-.53-.46-1.09-1-1.64-1.53" transform="translate(-2.54 -4.69)"/><path class="cls-5" d="M36.77,53h0" transform="translate(-2.54 -4.69)"/><path class="cls-4" d="M43.44,34.51l-.08.05c-.57.41-1.12.85-1.66,1.32" transform="translate(-2.54 -4.69)"/><path class="cls-5" d="M41.7,35.88c-2.41,2.09-4.38,4.54-4.93,4.9" transform="translate(-2.54 -4.69)"/><path class="cls-5" d="M43.44,34.51a17.77,17.77,0,0,1,8-2.87c5.78-.79,11.73,3.28,13.16,5s5.88,7.9,3.48,15.54a13.35,13.35,0,0,1-8.84,9.21C55.15,63,47.47,63.32,43.12,59.56" transform="translate(-2.54 -4.69)"/><polyline class="cls-5" points="36.42 28.45 36.3 28.41 34.23 36.09"/><line class="cls-5" x1="34.23" y1="36.09" x2="42" y2="34.03"/><line class="cls-4" x1="36.42" y1="28.45" x2="40.9" y2="29.82"/><polyline class="cls-4" points="40.9 29.82 40.91 29.82 42.04 34.02 42 34.03"/><line class="cls-5" x1="34.24" y1="48.29" x2="36.38" y2="55.89"/><polyline class="cls-4" points="41.92 50.35 40.61 54.87 40.58 54.87"/><polyline class="cls-5" points="36.4 55.98 36.42 56.06 36.47 56.04"/><polyline class="cls-5" points="41.92 50.35 41.95 50.24 34.23 48.28 34.24 48.29"/><line class="cls-4" x1="40.58" y1="54.87" x2="36.47" y2="56.04"/><line class="cls-4" x1="36.4" y1="55.97" x2="36.38" y2="55.89"/><path class="cls-6" d="M78.41,74.52l.07.06-.12.11" transform="translate(-2.54 -4.69)"/><path class="cls-6" d="M79.39,20.14l.15-.15A38.67,38.67,0,1,0,50.91,85.38v0A38.35,38.35,0,0,0,78.22,74.82" transform="translate(-2.54 -4.69)"/><path class="cls-7" d="M73.85,25.46" transform="translate(-2.54 -4.69)"/><path class="cls-7" d="M68.11,31" transform="translate(-2.54 -4.69)"/><path class="cls-6" d="M67.65,63.32,67.38,63A22.63,22.63,0,1,1,68,31l.05.05.1-.1" transform="translate(-2.54 -4.69)"/><path class="cls-6" d="M73.46,69.37" transform="translate(-2.54 -4.69)"/><path class="cls-6" d="M67.65,63.32" transform="translate(-2.54 -4.69)"/><path class="cls-6" d="M78.41,74.52" transform="translate(-2.54 -4.69)"/><path class="cls-6" d="M73.46,69.37" transform="translate(-2.54 -4.69)"/><path class="cls-7" d="M78.22,74.82l.14-.13" transform="translate(-2.54 -4.69)"/><path class="cls-6" d="M79.39,20.14" transform="translate(-2.54 -4.69)"/><path class="cls-7" d="M73.46,69.37c4.47-4.23,8.82-9.14,9.49-9.82" transform="translate(-2.54 -4.69)"/><path class="cls-6" d="M70.13,72.35h0c1.08-.89,2.2-1.91,3.32-3" transform="translate(-2.54 -4.69)"/><path class="cls-7" d="M83,59.54h0" transform="translate(-2.54 -4.69)"/><path class="cls-6" d="M70.46,22.68l.16.12c1.11.82,2.19,1.73,3.23,2.66" transform="translate(-2.54 -4.69)"/><path class="cls-7" d="M73.85,25.46c4.71,4.25,8.52,9.17,9.58,9.92" transform="translate(-2.54 -4.69)"/><path class="cls-7" d="M70.46,22.68a35.25,35.25,0,0,0-15.67-6c-11.43-1.78-23.38,6-26.29,9.39S16.55,41.52,21,56.76,37.56,75.08,38.17,75.34c8,3.41,23.19,4.29,32-3" transform="translate(-2.54 -4.69)"/><polyline class="cls-7" points="76.85 15.45 77.08 15.39 80.89 30.69"/><line class="cls-7" x1="80.89" y1="30.69" x2="65.57" y2="26.3"/><line class="cls-6" x1="76.85" y1="15.45" x2="67.92" y2="17.99"/><polyline class="cls-6" points="67.92 17.99 67.9 18 65.51 26.28 65.57 26.3"/><line class="cls-7" x1="80.41" y1="54.86" x2="75.87" y2="69.83"/><polyline class="cls-6" points="65.11 58.64 67.53 67.64 67.59 67.66"/><polyline class="cls-7" points="75.82 70 75.77 70.16 75.68 70.14"/><polyline class="cls-7" points="65.11 58.64 65.05 58.43 80.41 54.85 80.41 54.86"/><line class="cls-6" x1="67.59" y1="67.66" x2="75.68" y2="70.13"/><line class="cls-6" x1="75.82" y1="70" x2="75.87" y2="69.83"/></svg>
